<svg id="Layer_2" height="512" viewBox="0 0 128 128" width="512" xmlns="http://www.w3.org/2000/svg" data-name="Layer 2"><path d="m64 34.083a1.749 1.749 0 0 1 -1.75-1.75v-4.263a6.209 6.209 0 0 1 4.011-5.787l3.584-1.344a2.68 2.68 0 0 0 -.945-5.189h-6.444a6.586 6.586 0 0 0 -6.036 3.95 1.75 1.75 0 1 1 -3.207-1.4 10.083 10.083 0 0 1 9.243-6.05h6.444a6.18 6.18 0 0 1 2.17 11.967l-3.584 1.344a2.691 2.691 0 0 0 -1.736 2.509v4.263a1.749 1.749 0 0 1 -1.75 1.75z" fill="#a3da59"/><path d="m89.877 34.712a16 16 0 0 0 -8.393-2.379h-34.968a16 16 0 0 0 -8.393 2.379l-2.352 1.449a8.939 8.939 0 0 0 3.289 1.267l4.578.754-4.578.755a9 9 0 0 0 -7.417 7.417l-.755 4.578-.754-4.578a8.973 8.973 0 0 0 -2.7-5.057l-20.6 12.7 15.915 20.011 9.226-6.87v59.112h64.05v-59.112l9.226 6.87 15.916-20.016z" fill="#025f80"/><path d="m51.917 32.333h24.166a0 0 0 0 1 0 0 11.667 11.667 0 0 1 -11.666 11.667h-.833a11.667 11.667 0 0 1 -11.667-11.667 0 0 0 0 1 0 0z" fill="#75d5eb"/><path d="m30.134 30.011.754-4.578.755 4.578a9 9 0 0 0 7.417 7.417l4.578.755-4.578.754a9 9 0 0 0 -7.417 7.417l-.755 4.579-.754-4.579a9 9 0 0 0 -7.417-7.417l-4.579-.754 4.579-.755a9 9 0 0 0 7.417-7.417z" fill="#ffd70d"/><path d="m99.405 6.328.754-4.578.754 4.578a9 9 0 0 0 7.418 7.418l4.578.754-4.578.754a9 9 0 0 0 -7.418 7.418l-.754 4.578-.754-4.578a9 9 0 0 0 -7.418-7.418l-4.578-.754 4.578-.754a9 9 0 0 0 7.418-7.418z" fill="#ffd70d"/><path d="m87.125 16.227 4.578.753a7.25 7.25 0 0 1 5.976 5.976l.754 4.578a1.75 1.75 0 0 0 3.453 0l.754-4.578a7.249 7.249 0 0 1 5.975-5.976l4.578-.753a1.75 1.75 0 0 0 0-3.454l-4.578-.753a7.249 7.249 0 0 1 -5.975-5.976l-.754-4.578a1.75 1.75 0 0 0 -3.453 0l-.754 4.578a7.25 7.25 0 0 1 -5.979 5.976l-4.578.753a1.75 1.75 0 0 0 0 3.454zm13.034-6.589a10.765 10.765 0 0 0 4.862 4.862 10.765 10.765 0 0 0 -4.862 4.862 10.765 10.765 0 0 0 -4.859-4.862 10.765 10.765 0 0 0 4.859-4.862z"/><path d="m31.975 96.359a1.75 1.75 0 0 0 -1.75 1.75v6.007a1.75 1.75 0 0 0 3.5 0v-6.007a1.751 1.751 0 0 0 -1.75-1.75z"/><path d="m30.225 89.725a1.75 1.75 0 0 0 3.5 0v-22.587a1.75 1.75 0 0 0 -2.8-1.4l-7.867 5.858-13.627-17.149 17.675-10.891a7.284 7.284 0 0 1 1.3 3.083l.754 4.578a1.75 1.75 0 0 0 3.453 0l.754-4.578a7.248 7.248 0 0 1 5.976-5.976l4.578-.754a1.75 1.75 0 0 0 0-3.453l-4.14-.682a14.239 14.239 0 0 1 6.734-1.691h3.785a13.425 13.425 0 0 0 13.283 11.667h.834a13.425 13.425 0 0 0 13.288-11.667h3.778a14.237 14.237 0 0 1 7.476 2.117 1.749 1.749 0 0 0 1.841-2.977 17.732 17.732 0 0 0 -9.312-2.64h-15.738v-2.513a2.691 2.691 0 0 1 1.739-2.509l3.584-1.344a6.18 6.18 0 0 0 -2.173-11.967h-6.444a10.083 10.083 0 0 0 -9.243 6.05 1.75 1.75 0 1 0 3.207 1.4 6.586 6.586 0 0 1 6.036-3.95h6.444a2.68 2.68 0 0 1 .942 5.189l-3.584 1.344a6.209 6.209 0 0 0 -4.008 5.787v2.513h-15.733a17.74 17.74 0 0 0 -9.312 2.639l-1.361.838a7.23 7.23 0 0 1 -2.475-4.333l-.754-4.579a1.75 1.75 0 0 0 -3.453 0l-.754 4.579a7.251 7.251 0 0 1 -5.975 5.973l-4.579.754a1.75 1.75 0 0 0 0 3.453l4.579.754a7.207 7.207 0 0 1 1.787.56l-18.305 11.279a1.75 1.75 0 0 0 -.452 2.579l15.916 20.021a1.749 1.749 0 0 0 2.415.314l6.431-4.788zm43.954-55.642a9.933 9.933 0 0 1 -9.762 8.167h-.834a9.933 9.933 0 0 1 -9.762-8.167zm-43.29-.764a10.75 10.75 0 0 0 4.862 4.864 10.842 10.842 0 0 0 -4.863 4.863 10.748 10.748 0 0 0 -4.862-4.863 10.757 10.757 0 0 0 4.863-4.864z"/><path d="m122.891 53.69a1.751 1.751 0 0 0 -.806-1.188l-22.147-13.647a1.75 1.75 0 1 0 -1.838 2.981l20.466 12.611-13.629 17.145-7.867-5.858a1.75 1.75 0 0 0 -2.795 1.4v57.366h-60.55v-12a1.75 1.75 0 0 0 -3.5 0v13.75a1.749 1.749 0 0 0 1.75 1.75h64.05a1.749 1.749 0 0 0 1.75-1.75v-55.627l6.431 4.788a1.748 1.748 0 0 0 2.415-.314l15.916-20.016a1.745 1.745 0 0 0 .354-1.391z"/></svg>