<?xml version="1.0" encoding="UTF-8"?>
<svg xmlns="http://www.w3.org/2000/svg" xmlns:xlink="http://www.w3.org/1999/xlink" width="100pt" height="100pt" viewBox="0 0 100 100" version="1.1">
<g id="surface1229312">
<path style=" stroke:none;fill-rule:nonzero;fill:rgb(90.980392%,15.686275%,15.686275%);fill-opacity:1;" d="M 51.074219 8.960938 C 29.257812 8.960938 11.574219 26.644531 11.574219 48.460938 C 11.574219 70.277344 29.257812 87.960938 51.074219 87.960938 C 72.890625 87.960938 90.574219 70.277344 90.574219 48.460938 C 90.574219 26.644531 72.890625 8.960938 51.074219 8.960938 Z M 51.074219 8.960938 "/>
<path style=" stroke:none;fill-rule:nonzero;fill:rgb(12.156863%,12.941176%,16.862745%);fill-opacity:1;" d="M 51.074219 88.960938 C 28.742188 88.960938 10.574219 70.792969 10.574219 48.460938 C 10.574219 26.128906 28.742188 7.960938 51.074219 7.960938 C 73.40625 7.960938 91.574219 26.128906 91.574219 48.460938 C 91.574219 70.792969 73.40625 88.960938 51.074219 88.960938 Z M 51.074219 9.960938 C 29.847656 9.960938 12.574219 27.230469 12.574219 48.460938 C 12.574219 69.691406 29.847656 86.960938 51.074219 86.960938 C 72.304688 86.960938 89.574219 69.691406 89.574219 48.460938 C 89.574219 27.230469 72.304688 9.960938 51.074219 9.960938 Z M 51.074219 9.960938 "/>
<path style=" stroke:none;fill-rule:nonzero;fill:rgb(99.607843%,99.215686%,93.72549%);fill-opacity:1;" d="M 84.898438 45.542969 C 85.515625 52.703125 83.890625 60.09375 79.769531 66.59375 C 69.742188 82.414062 48.726562 86.976562 32.835938 76.777344 C 16.941406 66.582031 12.1875 45.492188 22.214844 29.667969 C 32.242188 13.847656 53.257812 9.289062 69.152344 19.484375 C 74.800781 23.109375 79.042969 28.109375 81.714844 33.761719 "/>
<path style=" stroke:none;fill-rule:nonzero;fill:rgb(12.156863%,12.941176%,16.862745%);fill-opacity:1;" d="M 51.246094 82.726562 C 44.691406 82.726562 38.246094 80.84375 32.566406 77.199219 C 16.46875 66.871094 11.636719 45.429688 21.796875 29.402344 C 26.6875 21.679688 34.308594 16.339844 43.242188 14.363281 C 52.28125 12.363281 61.578125 14.03125 69.421875 19.066406 C 74.960938 22.617188 79.367188 27.628906 82.164062 33.550781 C 82.285156 33.800781 82.175781 34.097656 81.929688 34.214844 C 81.679688 34.335938 81.382812 34.226562 81.261719 33.976562 C 78.542969 28.226562 74.261719 23.359375 68.882812 19.90625 C 61.265625 15.019531 52.238281 13.394531 43.460938 15.339844 C 34.785156 17.257812 27.390625 22.441406 22.640625 29.9375 C 12.773438 45.503906 17.46875 66.328125 33.105469 76.359375 C 40.722656 81.246094 49.75 82.867188 58.527344 80.925781 C 67.203125 79.007812 74.597656 73.824219 79.347656 66.328125 C 83.289062 60.113281 85.035156 52.941406 84.398438 45.585938 C 84.378906 45.3125 84.578125 45.066406 84.855469 45.046875 C 85.121094 45.015625 85.371094 45.222656 85.394531 45.5 C 86.050781 53.074219 84.25 60.460938 80.191406 66.863281 C 75.300781 74.585938 67.679688 79.925781 58.746094 81.902344 C 56.253906 82.453125 53.742188 82.726562 51.246094 82.726562 Z M 51.246094 82.726562 "/>
<path style=" stroke:none;fill-rule:nonzero;fill:rgb(99.607843%,99.215686%,93.72549%);fill-opacity:1;" d="M 83.699219 40.011719 C 83.894531 40.8125 84.0625 41.621094 84.199219 42.433594 "/>
<path style=" stroke:none;fill-rule:nonzero;fill:rgb(12.156863%,12.941176%,16.862745%);fill-opacity:1;" d="M 84.199219 42.933594 C 83.960938 42.933594 83.75 42.761719 83.707031 42.515625 C 83.574219 41.71875 83.40625 40.914062 83.214844 40.132812 C 83.148438 39.863281 83.3125 39.59375 83.582031 39.527344 C 83.851562 39.460938 84.121094 39.625 84.183594 39.894531 C 84.382812 40.699219 84.554688 41.527344 84.695312 42.351562 C 84.738281 42.621094 84.554688 42.878906 84.285156 42.925781 C 84.257812 42.929688 84.226562 42.933594 84.199219 42.933594 Z M 84.199219 42.933594 "/>
<path style=" stroke:none;fill-rule:nonzero;fill:rgb(95.294118%,49.411765%,59.607843%);fill-opacity:1;" d="M 55.3125 41.621094 L 34.417969 62.644531 C 33.898438 63.171875 33.261719 64.03125 33.785156 64.554688 C 34.308594 65.082031 35.164062 64.445312 35.6875 63.917969 L 56.578125 42.898438 C 57.476562 43.132812 59.097656 43.011719 59.792969 42.308594 L 61.691406 40.398438 C 62.738281 39.347656 62.738281 37.625 61.691406 36.574219 C 60.648438 35.523438 58.9375 35.523438 57.894531 36.574219 L 55.992188 38.484375 C 55.296875 39.1875 55.078125 40.722656 55.3125 41.621094 Z M 55.3125 41.621094 "/>
<path style=" stroke:none;fill-rule:nonzero;fill:rgb(12.156863%,12.941176%,16.862745%);fill-opacity:1;" d="M 34.257812 65.253906 C 33.941406 65.253906 33.652344 65.132812 33.429688 64.910156 C 33.136719 64.609375 32.605469 63.761719 34.066406 62.292969 L 54.769531 41.460938 C 54.597656 40.390625 54.882812 38.898438 55.640625 38.132812 L 57.539062 36.222656 C 58.738281 35.015625 60.847656 35.015625 62.046875 36.222656 C 63.289062 37.46875 63.289062 39.5 62.046875 40.75 L 60.148438 42.660156 C 59.355469 43.457031 57.769531 43.613281 56.742188 43.441406 L 36.039062 64.273438 C 35.59375 64.71875 34.925781 65.253906 34.257812 65.253906 Z M 59.792969 36.285156 C 59.210938 36.285156 58.660156 36.515625 58.25 36.925781 L 56.351562 38.839844 C 55.804688 39.386719 55.601562 40.742188 55.796875 41.496094 C 55.84375 41.667969 55.792969 41.851562 55.667969 41.976562 L 34.773438 62.996094 C 34.253906 63.523438 33.980469 64.042969 34.140625 64.203125 C 34.175781 64.242188 34.207031 64.253906 34.257812 64.253906 C 34.4375 64.253906 34.828125 64.074219 35.332031 63.566406 L 56.226562 42.546875 C 56.351562 42.421875 56.53125 42.367188 56.707031 42.414062 C 57.523438 42.632812 58.925781 42.472656 59.4375 41.957031 L 61.335938 40.046875 C 62.191406 39.1875 62.191406 37.789062 61.335938 36.929688 C 60.925781 36.515625 60.378906 36.285156 59.792969 36.285156 Z M 50.074219 17.960938 C 49.800781 17.960938 49.574219 17.738281 49.574219 17.460938 L 49.574219 14.460938 C 49.574219 14.183594 49.800781 13.960938 50.074219 13.960938 C 50.351562 13.960938 50.574219 14.183594 50.574219 14.460938 L 50.574219 17.460938 C 50.574219 17.738281 50.351562 17.960938 50.074219 17.960938 Z M 50.074219 82.960938 C 49.800781 82.960938 49.574219 82.738281 49.574219 82.460938 L 49.574219 78.460938 C 49.574219 78.183594 49.800781 77.960938 50.074219 77.960938 C 50.351562 77.960938 50.574219 78.183594 50.574219 78.460938 L 50.574219 82.460938 C 50.574219 82.738281 50.351562 82.960938 50.074219 82.960938 Z M 85.074219 47.960938 L 80.074219 47.960938 C 79.800781 47.960938 79.574219 47.738281 79.574219 47.460938 C 79.574219 47.183594 79.800781 46.960938 80.074219 46.960938 L 85.074219 46.960938 C 85.351562 46.960938 85.574219 47.183594 85.574219 47.460938 C 85.574219 47.738281 85.351562 47.960938 85.074219 47.960938 Z M 20.074219 47.960938 L 18.074219 47.960938 C 17.800781 47.960938 17.574219 47.738281 17.574219 47.460938 C 17.574219 47.183594 17.800781 46.960938 18.074219 46.960938 L 20.074219 46.960938 C 20.351562 46.960938 20.574219 47.183594 20.574219 47.460938 C 20.574219 47.738281 20.351562 47.960938 20.074219 47.960938 Z M 20.074219 47.960938 "/>
<path style=" stroke:none;fill-rule:nonzero;fill:rgb(95.294118%,49.411765%,59.607843%);fill-opacity:1;" d="M 74.453125 24.0625 L 71.652344 26.882812 "/>
<path style=" stroke:none;fill-rule:nonzero;fill:rgb(12.156863%,12.941176%,16.862745%);fill-opacity:1;" d="M 71.652344 27.382812 C 71.523438 27.382812 71.398438 27.332031 71.300781 27.234375 C 71.105469 27.039062 71.105469 26.722656 71.296875 26.527344 L 74.097656 23.710938 C 74.292969 23.515625 74.609375 23.515625 74.804688 23.710938 C 75 23.902344 75 24.21875 74.808594 24.414062 L 72.007812 27.234375 C 71.910156 27.332031 71.78125 27.382812 71.652344 27.382812 Z M 71.652344 27.382812 "/>
<path style=" stroke:none;fill-rule:nonzero;fill:rgb(95.294118%,49.411765%,59.607843%);fill-opacity:1;" d="M 29.667969 69.027344 L 26.867188 71.84375 "/>
<path style=" stroke:none;fill-rule:nonzero;fill:rgb(12.156863%,12.941176%,16.862745%);fill-opacity:1;" d="M 26.867188 72.34375 C 26.738281 72.34375 26.613281 72.296875 26.515625 72.195312 C 26.320312 72.003906 26.320312 71.6875 26.511719 71.488281 L 29.3125 68.671875 C 29.507812 68.476562 29.824219 68.476562 30.019531 68.671875 C 30.214844 68.863281 30.214844 69.183594 30.023438 69.378906 L 27.222656 72.195312 C 27.125 72.292969 26.996094 72.34375 26.867188 72.34375 Z M 26.867188 72.34375 "/>
<path style=" stroke:none;fill-rule:nonzero;fill:rgb(95.294118%,49.411765%,59.607843%);fill-opacity:1;" d="M 75.304688 72.15625 L 72.503906 69.339844 "/>
<path style=" stroke:none;fill-rule:nonzero;fill:rgb(12.156863%,12.941176%,16.862745%);fill-opacity:1;" d="M 75.304688 72.65625 C 75.175781 72.65625 75.046875 72.605469 74.949219 72.507812 L 72.148438 69.691406 C 71.957031 69.496094 71.957031 69.179688 72.152344 68.984375 C 72.347656 68.789062 72.664062 68.789062 72.859375 68.984375 L 75.660156 71.804688 C 75.851562 72 75.851562 72.316406 75.65625 72.511719 C 75.558594 72.605469 75.429688 72.65625 75.304688 72.65625 Z M 75.304688 72.65625 "/>
<path style=" stroke:none;fill-rule:nonzero;fill:rgb(95.294118%,49.411765%,59.607843%);fill-opacity:1;" d="M 29.980469 26.460938 L 27.179688 23.644531 "/>
<path style=" stroke:none;fill-rule:nonzero;fill:rgb(12.156863%,12.941176%,16.862745%);fill-opacity:1;" d="M 29.980469 26.960938 C 29.851562 26.960938 29.722656 26.910156 29.625 26.8125 L 26.824219 23.996094 C 26.632812 23.800781 26.632812 23.484375 26.828125 23.289062 C 27.023438 23.09375 27.339844 23.097656 27.535156 23.289062 L 30.335938 26.109375 C 30.527344 26.304688 30.527344 26.621094 30.332031 26.816406 C 30.234375 26.910156 30.109375 26.960938 29.980469 26.960938 Z M 68.574219 48.960938 L 54.574219 48.960938 C 54.023438 48.960938 53.574219 48.511719 53.574219 47.960938 C 53.574219 47.410156 54.023438 46.960938 54.574219 46.960938 L 68.574219 46.960938 C 69.128906 46.960938 69.574219 47.410156 69.574219 47.960938 C 69.574219 48.511719 69.128906 48.960938 68.574219 48.960938 Z M 50.574219 45.960938 C 50.023438 45.960938 49.574219 45.511719 49.574219 44.960938 L 49.574219 21.960938 C 49.574219 21.410156 50.023438 20.960938 50.574219 20.960938 C 51.128906 20.960938 51.574219 21.410156 51.574219 21.960938 L 51.574219 44.960938 C 51.574219 45.511719 51.128906 45.960938 50.574219 45.960938 Z M 50.574219 45.960938 "/>
<path style=" stroke:none;fill-rule:nonzero;fill:rgb(99.607843%,96.470588%,66.666667%);fill-opacity:1;" d="M 50.574219 44.460938 C 48.640625 44.460938 47.074219 46.027344 47.074219 47.960938 C 47.074219 49.894531 48.640625 51.460938 50.574219 51.460938 C 52.507812 51.460938 54.074219 49.894531 54.074219 47.960938 C 54.074219 46.027344 52.507812 44.460938 50.574219 44.460938 Z M 50.574219 44.460938 "/>
<path style=" stroke:none;fill-rule:nonzero;fill:rgb(12.156863%,12.941176%,16.862745%);fill-opacity:1;" d="M 50.574219 51.960938 C 48.367188 51.960938 46.574219 50.167969 46.574219 47.960938 C 46.574219 45.753906 48.367188 43.960938 50.574219 43.960938 C 52.78125 43.960938 54.574219 45.753906 54.574219 47.960938 C 54.574219 50.167969 52.78125 51.960938 50.574219 51.960938 Z M 50.574219 44.960938 C 48.921875 44.960938 47.574219 46.308594 47.574219 47.960938 C 47.574219 49.613281 48.921875 50.960938 50.574219 50.960938 C 52.230469 50.960938 53.574219 49.613281 53.574219 47.960938 C 53.574219 46.308594 52.230469 44.960938 50.574219 44.960938 Z M 50.574219 44.960938 "/>
</g>
</svg>
