<svg xmlns="http://www.w3.org/2000/svg" width="1322.019" height="806.612" viewBox="0 0 1322.019 806.612">
  <g id="Component_1_1" data-name="Component 1 – 1" transform="translate(0 0.5)">
    <path id="Path_1" data-name="Path 1" d="M469.622,5.461s10.51,267.287,124.15,418.85S789.079,457.986,966.28,514.62s230.295,119.621,336.295,136.227,52.364,0,52.364,0V5.461L1216.946-3.112Z" transform="translate(-48.463 3.112)" fill="rgba(76,158,201,0.9)" stroke="#707070" stroke-width="1"/>
    <g id="Untitled" transform="translate(21.375 31.982)">
      <path id="XMLID_341_" d="M0,0H1322.019V800H0Z" transform="translate(-21.375 -25.87)" fill="rgba(82,12,12,0)" fill-rule="evenodd"/>
      <path id="XMLID_340_" d="M.4,860.9H1279.669v93.923H.4Z" transform="translate(-0.034 -180.85)" fill="#d99536" fill-rule="evenodd"/>
      <path id="XMLID_84_" d="M.4,828H1280.034v25.989H.4Z" transform="translate(-0.034 -173.939)" fill="#805f3e" fill-rule="evenodd"/>
      <path id="XMLID_339_" d="M758.9,227.439v4.345c.183.316.457,4.5.64,5.371A48.034,48.034,0,0,0,772.523,262.2l4.206,3.95c.732.711,3.657,2.765,4.663,3.476a63.067,63.067,0,0,0,26.789,10.19c1.006.158,5.943.553,6.309.632h6.583c.457-.158,5.12-.474,6.217-.632,9.509-1.343,19.292-4.9,26.606-10.032.64-.474,1.371-.869,2.011-1.343a52.915,52.915,0,0,0,9.966-9.479,46.675,46.675,0,0,0,10.423-24.093,25.606,25.606,0,0,1,.274-2.844v-5.214c-.183-.316-.64-4.582-.731-5.451a46.417,46.417,0,0,0-5.028-13.824c-1.737-3.081-5.486-8.452-8.32-10.98l-1.646-1.659c-.548-.553-1.188-.948-1.737-1.5a41.571,41.571,0,0,0-3.657-2.923,61.571,61.571,0,0,0-23.223-10.19c-1.92-.395-3.84-.711-5.851-1.027l-6.4-.553h-5.212c-.366.158-5.211.474-6.309.632-2.011.237-3.84.632-5.76,1.027a57.922,57.922,0,0,0-10.24,3.239,62.107,62.107,0,0,0-12.8,7.188l-.457.395-1.006.79c-.183.158-.274.158-.457.316-.64.474-1.189.948-1.737,1.422-8.686,7.583-14.629,17.615-16.366,28.279Z" transform="translate(-65.049 -37.54)" fill-rule="evenodd"/>
      <path id="XMLID_338_" d="M814.874,184.463c-8.32.711-13.714,1.738-21.12,4.977a56.954,56.954,0,0,0-8.228,4.5c-.64.395-1.28.869-1.829,1.264l-1.829,1.343c-1.188,1.106-2.194,1.9-3.383,2.923a50.873,50.873,0,0,0-5.76,6.556,41.031,41.031,0,0,0-2.377,45.816,51.986,51.986,0,0,0,6.674,8.689c.183.158.183.237.366.395l2.834,2.607c.64.553,1.1.869,1.737,1.422a7.921,7.921,0,0,0,.914.632,58.081,58.081,0,0,0,6.674,4.345,60.289,60.289,0,0,0,32,7.03c11.611-.79,22.766-4.5,31.086-10.822l3.474-2.765c1.554-1.422,3.291-3.16,4.663-4.661,7.589-8.531,11.794-19.985,10.88-31.044a42.015,42.015,0,0,0-5.76-18.168,47.328,47.328,0,0,0-5.211-7.109,39.505,39.505,0,0,0-4.663-4.582c-.64-.553-1.1-.869-1.737-1.422a66.261,66.261,0,0,0-7.589-4.977,51.579,51.579,0,0,0-8.96-3.871,60.623,60.623,0,0,0-22.857-3.081" transform="translate(-65.525 -38.721)" fill="#fff" fill-rule="evenodd"/>
      <path id="XMLID_337_" d="M819.715,233.758c.457-.237.457-.474,1.006-.711a4.874,4.874,0,0,1,1.554-.316c-.548-1.5-5.211-11.849-6.034-13.587l-1.829-4.187c-.091-.474.091-.474.183-.948.274-2.37-4.663-6.872-5.3-7.109-.183,2.528-.183,5.924,1.189,7.9.548.711,1.005.632,1.28,1.027.183.316.549,1.264.731,1.659.457,1.106,1.006,2.133,1.463,3.239.914,2.212,1.92,4.345,2.834,6.477a59.093,59.093,0,0,0,2.926,6.556" transform="translate(-69.361 -43.464)" fill-rule="evenodd"/>
      <path id="XMLID_336_" d="M868.724,251.831c-.914-.711-7.223-3.713-9.417-2.923-.914.395-.64.237-2.56-.079-10.057-1.817-20.023-3.792-30.08-5.53-.091,1.738-1.829,1.185,3.291,2.133,9.052,1.659,18.56,3.476,27.612,5.056,1.92.316.64,1.343,4.846,1.58a33.733,33.733,0,0,0,6.308-.237" transform="translate(-70.827 -51.11)" fill-rule="evenodd"/>
      <path id="XMLID_335_" d="M822.612,240.383c-3.474.79-2.011,4.9,1.1,4.187,3.2-.632,2.011-4.819-1.1-4.187" transform="translate(-70.337 -50.484)" fill-rule="evenodd"/>
      <path id="XMLID_334_" d="M822.1,292.568v6.24l2.194.079v-6.24c-1.006-.711-1.1-.79-2.194-.079" transform="translate(-70.466 -61.356)" fill-rule="evenodd"/>
      <path id="XMLID_333_" d="M872.848,243.8h7.223v-1.9h-7.223c-.914,1.027-.549.948,0,1.9" transform="translate(-74.768 -50.816)" fill-rule="evenodd"/>
      <path id="XMLID_332_" d="M765.9,243.8h7.223c.731-1.185.823-.711,0-1.9h-7.131Z" transform="translate(-65.649 -50.816)" fill-rule="evenodd"/>
      <path id="XMLID_331_" d="M822.1,191.84c1.371.711.823.632,2.194,0V185.6H822.1Z" transform="translate(-70.466 -38.989)" fill-rule="evenodd"/>
      <path id="XMLID_330_" d="M794.1,291.186c.457.158.457.237.914.395l3.474-5.214c.366-.553.183-.395,0-.869-.914,0-.549-.158-1.463,1.106-.457.79-2.743,4.029-2.926,4.582" transform="translate(-68.066 -59.974)" fill-rule="evenodd"/>
      <path id="XMLID_329_" d="M865.7,217.692c.823.237.274.316,1.737-.395.64-.316,1.1-.553,1.737-.869,1.189-.553,2.377-1.106,3.474-1.738-.091-.395-.274-.395-.457-.79-.64.158-4.937,2.37-6.126,3-.548.316-.366.158-.366.79" transform="translate(-74.2 -44.934)" fill-rule="evenodd"/>
      <path id="XMLID_328_" d="M865.7,267.444c0,.553-.091.474.274.711a2.074,2.074,0,0,0,.457.237l2.469,1.264a34.684,34.684,0,0,0,3.474,1.659l.366-.711c-.274-.316-4.206-2.133-5.211-2.686-1.737-.948-1.1-.711-1.829-.474" transform="translate(-74.202 -56.138)" fill-rule="evenodd"/>
      <path id="XMLID_327_" d="M773.3,270.511l.549.711c1.646-.711,4.114-2.054,6.034-3,.64-.316.457-.158.457-.869-.64-.158-.366-.316-1.006,0l-2.651,1.343c-.548.316-3.109,1.58-3.383,1.817" transform="translate(-66.283 -56.125)" fill-rule="evenodd"/>
      <path id="XMLID_326_" d="M794.1,193.416c.183.553,2.743,4.187,3.474,5.293.366.553.183.395,1.006.395.274-.632.274-.474-.457-1.5l-3.017-4.5c-.457.079-.549.237-1.006.316" transform="translate(-68.066 -40.565)" fill-rule="evenodd"/>
      <path id="XMLID_325_" d="M851.237,291.461l.823-.395c-.183-.553-2.651-3.95-3.291-5.056a1.034,1.034,0,0,0-.274-.395c-.274-.316-.091-.316-.914-.316-.274.711-.457.079.549,1.58.64.948,2.834,4.345,3.109,4.582" transform="translate(-72.631 -59.933)" fill-rule="evenodd"/>
      <path id="XMLID_324_" d="M773.3,214.69l6.034,3c.548.237.457.158,1.006,0,0-.711,0-.632-.548-.869-1.92-.869-4.023-2.054-5.943-2.923-.091.079-.091,0-.183.158,0,0-.091.158-.183.158a2.966,2.966,0,0,1-.183.474" transform="translate(-66.283 -44.934)" fill-rule="evenodd"/>
      <path id="XMLID_323_" d="M847.68,199.182c.914,0,.549.237,1.463-1.106l3.017-4.5-.823-.474c-.274.237-2.56,3.713-3.017,4.5-1.1,1.5-.914.869-.64,1.58" transform="translate(-72.64 -40.565)" fill-rule="evenodd"/>
      <path id="XMLID_322_" d="M822.8,246.311l.823,1.9,2.743-.869a3.964,3.964,0,0,0-.823-1.738,2.8,2.8,0,0,1-1.005.553,6.819,6.819,0,0,1-1.737.158" transform="translate(-70.526 -51.594)" fill-rule="evenodd"/>
      <path id="XMLID_321_" d="M817.3,242.922l2.469.474a4.054,4.054,0,0,1,.091-1.5l-2.194-.395Z" transform="translate(-70.054 -50.732)" fill-rule="evenodd"/>
      <path id="XMLID_320_" d="M505.7,202.5H617.791V369.807H505.7Z" transform="translate(-43.346 -42.539)" fill="#dbdddc" fill-rule="evenodd"/>
      <path id="XMLID_112_" d="M505.7,202.5V369.807H617.791V202.5Zm49.646,153.009H521.883V293.421h33.463Zm-33.463-76.544h0l-.091-47.633a4.521,4.521,0,0,1,.091-1.106v-13.35h14.994a17.179,17.179,0,0,1,3.291,0h15.177v62.088Zm79.908,76.544H568.329V293.421h33.463Zm-33.463-76.544h0l-.091-47.633a6.637,6.637,0,0,1,.091-1.343V216.956h14.994a17.182,17.182,0,0,1,3.291,0h15.177v62.088l-33.463-.079Z" transform="translate(-43.346 -42.539)" fill="#fff" fill-rule="evenodd"/>
      <path id="XMLID_107_" d="M511.231,291.687c.091-1.58.274-3,.366-4.187-.183,1.185-.274,2.607-.366,4.187m-.731,14.3c0-1.738.091-3.476.183-5.135,0-1.659.183-3.318.274-4.819s.183-3,.274-4.345c-.091,1.343-.183,2.765-.274,4.345-.091,1.5-.183,3.16-.274,4.819s-.183,3.4-.183,5.135Zm0,5.293c0-1.817,0-3.555.091-5.293-.091,1.738-.091,3.555-.091,5.293Zm0,1.975v0Z" transform="translate(-43.757 -60.396)" fill="#fbe5a6" fill-rule="evenodd"/>
      <path id="XMLID_310_" d="M355.7,202.5H492.843V315.223H355.7Z" transform="translate(-30.489 -42.539)" fill="#fff" fill-rule="evenodd"/>
      <path id="XMLID_309_" d="M365.3,212.1H484.98v97.635H365.3Z" transform="translate(-31.311 -44.556)" fill="#d29b5c" fill-rule="evenodd"/>
      <path id="XMLID_308_" d="M365.3,279.2H481.689v4.187H365.3Z" transform="translate(-31.311 -58.652)" fill="#af814d" fill-rule="evenodd"/>
      <path id="XMLID_307_" d="M365.3,212.1H481.689v4.187H365.3Z" transform="translate(-31.311 -44.556)" fill="#af814d" fill-rule="evenodd"/>
      <path id="XMLID_306_" d="M508.8,274.929v-1.5a2.713,2.713,0,0,1,2.926-2.528h0a2.713,2.713,0,0,0-2.926,2.528v1.5h0" transform="translate(-43.611 -56.908)" fill="#ffebb8" fill-rule="evenodd"/>
      <path id="XMLID_305_" d="M205.7,202.5H342.843V315.223H205.7Z" transform="translate(-17.631 -42.539)" fill="#fff" fill-rule="evenodd"/>
      <path id="XMLID_304_" d="M215.2,212.1H334.88v97.635H215.2Z" transform="translate(-18.446 -44.556)" fill="#eee" fill-rule="evenodd"/>
      <path id="XMLID_303_" d="M215.2,212.1H334.88v97.635H215.2Z" transform="translate(-18.446 -44.556)" fill="none" stroke="#eee" stroke-miterlimit="22.926" stroke-width="0.216"/>
      <path id="XMLID_302_" d="M333.189,325.525c-4.206,0-7.589-2.923-7.589-6.556a2.816,2.816,0,0,1,.091-.869c.457,3.239,3.657,5.766,7.589,5.766h0c3.84,0,7.04-2.528,7.589-5.766,0,.237.091.553.091.869-.183,3.634-3.566,6.556-7.771,6.556" transform="translate(-27.909 -66.824)" fill="#c8c8c9" fill-rule="evenodd"/>
      <path id="XMLID_301_" d="M340.777,315.356c0-3.634-3.383-6.556-7.589-6.556s-7.589,2.923-7.589,6.556,3.383,6.556,7.589,6.556,7.589-2.923,7.589-6.556" transform="translate(-27.909 -64.87)" fill="#606872" fill-rule="evenodd"/>
      <path id="XMLID_300_" d="M333.189,321.913h-.549c3.383-.237,5.943-2.686,5.943-5.609,0-3.081-2.926-5.609-6.491-5.609-3.383,0-6.217,2.291-6.491,5.135v-.474c0-3.634,3.383-6.556,7.589-6.556s7.589,2.923,7.589,6.556c0,3.555-3.383,6.556-7.589,6.556" transform="translate(-27.909 -64.87)" fill="#727a81" fill-rule="evenodd"/>
      <path id="XMLID_299_" d="M354.1,202.5h2.834V315.223H354.1Z" transform="translate(-30.351 -42.539)" fill="#c8c8c9" fill-rule="evenodd"/>
      <path id="XMLID_298_" d="M83,202.5H195.091V369.807H83Z" transform="translate(-7.114 -42.539)" fill="#dbdddc" fill-rule="evenodd"/>
      <path id="XMLID_88_" d="M83,202.5V369.807H195.091V202.5Zm62.537,90.921H179v62.088H145.537Zm15.086-76.465a17.179,17.179,0,0,1,3.291,0H179v13.113c0,.395.091.869.091,1.264v47.633H179v.079H145.537V216.956Zm-61.44,76.465h33.463v62.088H99.183Zm15.086-76.465a17.179,17.179,0,0,1,3.291,0h15.086v62.088H99.183V216.956Z" transform="translate(-7.114 -42.539)" fill="#fff" fill-rule="evenodd"/>
      <path id="XMLID_81_" d="M196.114,279.2m.274.079Zm-2.743,1.659a2.294,2.294,0,0,1,2.377-1.738,2.445,2.445,0,0,0-2.377,1.738Zm0,.079ZM192,311.508v0Zm8.137,0h0v-1.9a6.578,6.578,0,0,1,0,1.9Z" transform="translate(-16.457 -58.652)" fill="#fbe5a6" fill-rule="evenodd"/>
      <path id="XMLID_286_" d="M589.937,186.7H73l9.143,12.481H580.794Z" transform="translate(-6.257 -39.22)" fill="#c8c8c9" fill-rule="evenodd"/>
      <path id="XMLID_285_" d="M586.737,191.124H76.291L73,186.7H589.937Z" transform="translate(-6.257 -39.22)" fill="#dbdddc" fill-rule="evenodd"/>
      <path id="XMLID_284_" d="M505.7,202.5H617.791V207H505.7Z" transform="translate(-43.346 -42.539)" fill="#dbdddc" fill-rule="evenodd"/>
      <path id="XMLID_283_" d="M357.3,202.5H486.489V207H357.3Z" transform="translate(-30.626 -42.539)" fill="#dbdddc" fill-rule="evenodd"/>
      <path id="XMLID_282_" d="M341.38,207H212.466v-4.5H205.7v0H341.38Z" transform="translate(-17.631 -42.539)" fill="#dbdddc" fill-rule="evenodd"/>
      <path id="XMLID_281_" d="M354.1,202.5h2.834V207H354.1Z" transform="translate(-30.351 -42.539)" fill="#9e9e9f" fill-rule="evenodd"/>
      <path id="XMLID_280_" d="M83,202.5H195.091V207H83Z" transform="translate(-7.114 -42.539)" fill="#dbdddc" fill-rule="evenodd"/>
      <path id="XMLID_279_" d="M205.7,208.2h6.766V316.42H205.7Z" transform="translate(-17.631 -43.737)" fill="#eee" fill-rule="evenodd"/>
      <path id="XMLID_278_" d="M205.7,202.5h6.766V207H205.7Z" transform="translate(-17.631 -42.539)" fill="#9e9e9f" fill-rule="evenodd"/>
      <path id="XMLID_277_" d="M205.7,399.4H479.986v11.849H205.7Z" transform="translate(-17.631 -83.902)" fill="#fff" fill-rule="evenodd"/>
      <path id="XMLID_276_" d="M205.7,399.4h6.766v11.849H205.7Z" transform="translate(-17.631 -83.902)" fill="#eee" fill-rule="evenodd"/>
      <path id="XMLID_275_" d="M498.3,399.4h6.766v11.849H498.3Z" transform="translate(-42.711 -83.902)" fill="#eee" fill-rule="evenodd"/>
      <path id="XMLID_274_" d="M505.7,400.2h0v9.479h0Z" transform="translate(-43.346 -84.071)" fill="#d6be77" fill-rule="evenodd"/>
      <path id="XMLID_273_" d="M365.2,212.1H484.971v97.635H365.2Z" transform="translate(-31.303 -44.556)" fill="#eee" fill-rule="evenodd"/>
      <path id="XMLID_272_" d="M365.2,212.1H484.971v97.635H365.2Z" transform="translate(-31.303 -44.556)" fill="none" stroke="#eee" stroke-miterlimit="22.926" stroke-width="0.216"/>
      <path id="XMLID_271_" d="M376.489,325.525c-4.206,0-7.589-2.923-7.589-6.556a2.815,2.815,0,0,1,.091-.869c.457,3.239,3.657,5.766,7.589,5.766h0c3.84,0,7.04-2.528,7.589-5.766,0,.237.091.553.091.869-.183,3.634-3.566,6.556-7.771,6.556" transform="translate(-31.62 -66.824)" fill="#c8c8c9" fill-rule="evenodd"/>
      <path id="XMLID_270_" d="M384.077,315.356c0-3.634-3.383-6.556-7.589-6.556s-7.589,2.923-7.589,6.556,3.383,6.556,7.589,6.556,7.589-2.923,7.589-6.556" transform="translate(-31.62 -64.87)" fill="#606872" fill-rule="evenodd"/>
      <path id="XMLID_269_" d="M376.489,321.913h-.549c3.383-.237,5.943-2.686,5.943-5.609,0-3.081-2.926-5.609-6.491-5.609-3.383,0-6.217,2.291-6.491,5.135v-.474c0-3.634,3.383-6.556,7.589-6.556s7.589,2.923,7.589,6.556c0,3.555-3.383,6.556-7.589,6.556" transform="translate(-31.62 -64.87)" fill="#727a81" fill-rule="evenodd"/>
      <path id="XMLID_268_" d="M191.594,405.193c-2.926,0-5.394-2.054-5.394-4.661V399.9a5.132,5.132,0,0,0,5.3,4.029h0c2.743,0,5.029-1.738,5.3-4.029v.632c.183,2.607-2.194,4.661-5.211,4.661" transform="translate(-15.96 -84.008)" fill="#c8c8c9" fill-rule="evenodd"/>
      <path id="XMLID_267_" d="M196.989,397.961c0-2.528-2.377-4.661-5.394-4.661-2.926,0-5.394,2.054-5.394,4.661,0,2.528,2.377,4.661,5.394,4.661s5.394-2.054,5.394-4.661" transform="translate(-15.96 -82.621)" fill="#606872" fill-rule="evenodd"/>
      <path id="XMLID_266_" d="M191.6,402.642h-.366a4.243,4.243,0,0,0,4.206-3.95c0-2.212-2.1-3.95-4.571-3.95a4.372,4.372,0,0,0-4.571,3.634v-.316c0-2.528,2.377-4.661,5.394-4.661,2.926,0,5.394,2.054,5.394,4.661-.091,2.528-2.469,4.582-5.486,4.582" transform="translate(-15.969 -82.642)" fill="#727a81" fill-rule="evenodd"/>
      <path id="XMLID_265_" d="M517.794,405.193c-2.926,0-5.394-2.054-5.394-4.661V399.9a5.132,5.132,0,0,0,5.3,4.029h0c2.743,0,5.029-1.738,5.3-4.029v.632c.092,2.607-2.286,4.661-5.211,4.661" transform="translate(-43.92 -84.008)" fill="#c8c8c9" fill-rule="evenodd"/>
      <path id="XMLID_264_" d="M523.089,397.961c0-2.528-2.377-4.661-5.394-4.661-2.926,0-5.394,2.054-5.394,4.661,0,2.528,2.377,4.661,5.394,4.661s5.394-2.054,5.394-4.661" transform="translate(-43.911 -82.621)" fill="#606872" fill-rule="evenodd"/>
      <path id="XMLID_263_" d="M517.8,402.642h-.366a4.243,4.243,0,0,0,4.206-3.95c0-2.212-2.1-3.95-4.571-3.95a4.371,4.371,0,0,0-4.571,3.634v-.316c0-2.528,2.377-4.661,5.394-4.661,2.926,0,5.394,2.054,5.394,4.661a5.289,5.289,0,0,1-5.486,4.582" transform="translate(-43.929 -82.642)" fill="#727a81" fill-rule="evenodd"/>
      <path id="XMLID_262_" d="M498.3,208.2h6.766V316.42H498.3Z" transform="translate(-42.711 -43.737)" fill="#eee" fill-rule="evenodd"/>
      <path id="XMLID_261_" d="M498.3,202.5h6.766V207H498.3Z" transform="translate(-42.711 -42.539)" fill="#9e9e9f" fill-rule="evenodd"/>
      <path id="XMLID_246_" d="M1011.1,634.8V645.3a3.666,3.666,0,0,0,3.931,3.4h60.526a3.666,3.666,0,0,0,3.932-3.4V634.8a3.666,3.666,0,0,0-3.932-3.4h-60.526a3.666,3.666,0,0,0-3.931,3.4" transform="translate(-86.666 -132.639)" fill="#dadbda" fill-rule="evenodd"/>
      <path id="XMLID_245_" d="M1042.786,645.779c-3.017,0-5.486-2.133-5.486-4.74s2.468-4.74,5.486-4.74,5.486,2.133,5.486,4.74a5.229,5.229,0,0,1-5.486,4.74" transform="translate(-88.912 -133.668)" fill="#323f4a" fill-rule="evenodd"/>
      <path id="XMLID_244_" d="M1042.854,645.415c-2.651,0-4.754-1.817-4.754-4.108s2.1-4.108,4.754-4.108,4.754,1.817,4.754,4.108c0,2.212-2.1,4.108-4.754,4.108" transform="translate(-88.98 -133.857)" fill="#606872" fill-rule="evenodd"/>
      <path id="XMLID_243_" d="M1045,640.69h-3.84a.4.4,0,1,1,0-.79H1045a.405.405,0,0,1,.457.395.549.549,0,0,1-.457.395" transform="translate(-89.203 -134.425)" fill="#323f4a" fill-rule="evenodd"/>
      <path id="XMLID_242_" d="M1045,644.49h-3.84a.4.4,0,1,1,0-.79H1045a.405.405,0,0,1,.457.395.549.549,0,0,1-.457.4" transform="translate(-89.203 -135.223)" fill="#323f4a" fill-rule="evenodd"/>
      <path id="XMLID_241_" d="M1048.171,641.04c0-2.607-2.469-4.74-5.486-4.74s-5.486,2.133-5.486,4.74h.64c0-2.291,2.1-4.108,4.754-4.108s4.755,1.817,4.755,4.108Z" transform="translate(-88.903 -133.668)" fill="#29343e" fill-rule="evenodd"/>
      <path id="XMLID_240_" d="M1045.354,640.3a.405.405,0,0,0-.457-.395h-3.84a.4.4,0,1,0,0,.79h3.84a.405.405,0,0,0,.457-.395" transform="translate(-89.194 -134.425)" fill="#29343e" fill-rule="evenodd"/>
      <path id="XMLID_239_" d="M1026.986,645.779c-3.017,0-5.486-2.133-5.486-4.74s2.469-4.74,5.486-4.74,5.486,2.133,5.486,4.74c-.091,2.607-2.56,4.74-5.486,4.74" transform="translate(-87.557 -133.668)" fill="#323f4a" fill-rule="evenodd"/>
      <path id="XMLID_238_" d="M1027.054,645.415c-2.651,0-4.754-1.817-4.754-4.108s2.1-4.108,4.754-4.108,4.754,1.817,4.754,4.108c0,2.212-2.1,4.108-4.754,4.108" transform="translate(-87.626 -133.857)" fill="#606872" fill-rule="evenodd"/>
      <path id="XMLID_237_" d="M1029.2,640.69h-3.84a.4.4,0,1,1,0-.79h3.84a.406.406,0,0,1,.457.395.549.549,0,0,1-.457.395" transform="translate(-87.849 -134.425)" fill="#323f4a" fill-rule="evenodd"/>
      <path id="XMLID_236_" d="M1029.2,644.49h-3.84a.4.4,0,1,1,0-.79h3.84a.405.405,0,0,1,.457.395.549.549,0,0,1-.457.4" transform="translate(-87.849 -135.223)" fill="#323f4a" fill-rule="evenodd"/>
      <path id="XMLID_235_" d="M1032.372,641.04c0-2.607-2.469-4.74-5.486-4.74s-5.486,2.133-5.486,4.74h.64c0-2.291,2.1-4.108,4.754-4.108s4.754,1.817,4.754,4.108Z" transform="translate(-87.549 -133.668)" fill="#29343e" fill-rule="evenodd"/>
      <path id="XMLID_234_" d="M1029.554,640.3a.406.406,0,0,0-.457-.395h-3.84a.4.4,0,1,0,0,.79h3.84a.406.406,0,0,0,.457-.395" transform="translate(-87.84 -134.425)" fill="#29343e" fill-rule="evenodd"/>
      <path id="XMLID_233_" d="M1058.586,645.779c-3.017,0-5.486-2.133-5.486-4.74s2.469-4.74,5.486-4.74,5.486,2.133,5.486,4.74a5.228,5.228,0,0,1-5.486,4.74" transform="translate(-90.266 -133.668)" fill="#323f4a" fill-rule="evenodd"/>
      <path id="XMLID_232_" d="M1058.654,645.415c-2.651,0-4.754-1.817-4.754-4.108s2.1-4.108,4.754-4.108,4.754,1.817,4.754,4.108c0,2.212-2.1,4.108-4.754,4.108" transform="translate(-90.334 -133.857)" fill="#606872" fill-rule="evenodd"/>
      <path id="XMLID_231_" d="M1060.8,640.69h-3.84a.4.4,0,1,1,0-.79h3.84a.405.405,0,0,1,.457.395.549.549,0,0,1-.457.395" transform="translate(-90.557 -134.425)" fill="#323f4a" fill-rule="evenodd"/>
      <path id="XMLID_230_" d="M1060.8,644.49h-3.84a.4.4,0,1,1,0-.79h3.84a.405.405,0,0,1,.457.395.549.549,0,0,1-.457.4" transform="translate(-90.557 -135.223)" fill="#323f4a" fill-rule="evenodd"/>
      <path id="XMLID_229_" d="M1063.971,641.04c0-2.607-2.469-4.74-5.486-4.74s-5.486,2.133-5.486,4.74h.64c0-2.291,2.1-4.108,4.754-4.108s4.755,1.817,4.755,4.108Z" transform="translate(-90.257 -133.668)" fill="#29343e" fill-rule="evenodd"/>
      <path id="XMLID_228_" d="M1061.154,640.3a.405.405,0,0,0-.457-.395h-3.84a.4.4,0,1,0,0,.79h3.84a.406.406,0,0,0,.457-.395" transform="translate(-90.549 -134.425)" fill="#29343e" fill-rule="evenodd"/>
      <path id="XMLID_227_" d="M1074.986,645.179c3.017,0,5.486-2.133,5.486-4.74s-2.469-4.74-5.486-4.74-5.486,2.133-5.486,4.74a5.228,5.228,0,0,0,5.486,4.74" transform="translate(-91.671 -133.542)" fill="#323f4a" fill-rule="evenodd"/>
      <path id="XMLID_226_" d="M1075.054,644.815c2.651,0,4.754-1.817,4.754-4.108s-2.1-4.108-4.754-4.108-4.754,1.817-4.754,4.108c0,2.212,2.1,4.108,4.754,4.108" transform="translate(-91.74 -133.731)" fill="#606872" fill-rule="evenodd"/>
      <path id="XMLID_225_" d="M1073.357,639.3h3.84a.4.4,0,1,1,0,.79h-3.84a.405.405,0,0,1-.457-.4c.091-.158.274-.395.457-.395" transform="translate(-91.963 -134.299)" fill="#323f4a" fill-rule="evenodd"/>
      <path id="XMLID_224_" d="M1073.357,643.2h3.84a.4.4,0,1,1,0,.79h-3.84a.405.405,0,0,1-.457-.4.549.549,0,0,1,.457-.395" transform="translate(-91.963 -135.118)" fill="#323f4a" fill-rule="evenodd"/>
      <path id="XMLID_48_" d="M1076.091,635.879a4.324,4.324,0,0,0-1.006-.079c-3.017,0-5.486,2.133-5.486,4.74h.64a4.223,4.223,0,0,1,3.84-4.029,5.892,5.892,0,0,1,2.012-.632m4.389,4.582a4.379,4.379,0,0,0-.914-2.607,10.412,10.412,0,0,1,.274,2.607Z" transform="translate(-91.68 -133.563)" fill="#29343e" fill-rule="evenodd"/>
      <path id="XMLID_221_" d="M1074.14,636.6a4.35,4.35,0,0,0-3.84,4.029h.549a5.235,5.235,0,0,1,3.291-4.029" transform="translate(-91.74 -133.731)" fill="#4d565f" fill-rule="evenodd"/>
      <path id="XMLID_220_" d="M1013.9,636.5h4.846v9.084H1013.9Z" transform="translate(-86.906 -133.71)" fill="#e41e26" fill-rule="evenodd"/>
      <path id="XMLID_219_" d="M1013.9,636.5h4.846v4.582H1013.9Z" transform="translate(-86.906 -133.71)" fill="#c72127" fill-rule="evenodd"/>
      <path id="XMLID_36_" d="M667.334,572.4h382.994c3.291,0,6.034,2.291,6.034,5.214,0,2.844-2.651,5.214-6.034,5.214H667.334c-3.291,0-6.034-2.291-6.034-5.214.091-2.844,2.743-5.214,6.034-5.214" transform="translate(-56.683 -120.245)" fill="#c29c56" fill-rule="evenodd"/>
      <path id="XMLID_35_" d="M667.343,572.4h382.994c3.292,0,6.034,2.291,6.034,5.214H661.4c0-2.844,2.651-5.214,5.943-5.214" transform="translate(-56.691 -120.245)" fill="#eabb63" fill-rule="evenodd"/>
      <path id="XMLID_34_" d="M703.4,585.5h328.777v6.4H703.4Z" transform="translate(-60.291 -122.997)" fill="#8e6e45" fill-rule="evenodd"/>
      <path id="XMLID_33_" d="M703.4,585.5h328.777v2.528H703.4Z" transform="translate(-60.291 -122.997)" fill="#805f3e" fill-rule="evenodd"/>
      <path id="XMLID_32_" d="M809.4,599.6h8.5L959.8,808.22h-8.5Z" transform="translate(-69.377 -125.959)" fill="#795d3b" fill-rule="evenodd"/>
      <path id="XMLID_31_" d="M921,599.6h-8.5L770.6,808.22h8.5Z" transform="translate(-66.051 -125.959)" fill="#8e6e45" fill-rule="evenodd"/>
      <path id="XMLID_30_" d="M778.174,845.7,768.3,860.156h12.983l9.783-14.456Z" transform="translate(-65.854 -177.657)" fill="#231916" fill-rule="evenodd"/>
      <path id="XMLID_29_" d="M964.283,845.7l9.783,14.456H961.174L951.3,845.7Z" transform="translate(-81.54 -177.657)" fill="#231916" fill-rule="evenodd"/>
      <path id="XMLID_28_" d="M872.146,696.5a1.437,1.437,0,1,1-1.646,1.422,1.54,1.54,0,0,1,1.646-1.422" transform="translate(-74.614 -146.315)" fill="#2c2c36" fill-rule="evenodd"/>
      <path id="XMLID_26_" d="M805.177,591.3h14.446A2.274,2.274,0,0,1,822,593.354v2.686a2.274,2.274,0,0,1-2.377,2.054H805.177a2.275,2.275,0,0,1-2.377-2.054v-2.607a2.281,2.281,0,0,1,2.377-2.133" transform="translate(-68.811 -124.215)" fill="#6a4f34" fill-rule="evenodd"/>
      <path id="XMLID_25_" d="M813.1,593.3a1.836,1.836,0,1,1-2.1,1.817,2.059,2.059,0,0,1,2.1-1.817" transform="translate(-69.514 -124.635)" fill="#2c2c36" fill-rule="evenodd"/>
      <path id="XMLID_24_" d="M924.677,591.3h14.446a2.275,2.275,0,0,1,2.377,2.054v2.686a2.274,2.274,0,0,1-2.377,2.054H924.677a2.274,2.274,0,0,1-2.377-2.054v-2.607a2.281,2.281,0,0,1,2.377-2.133" transform="translate(-79.054 -124.215)" fill="#6a4f34" fill-rule="evenodd"/>
      <path id="XMLID_23_" d="M932.7,593.3a1.836,1.836,0,1,1-2.1,1.817c-.091-.948.914-1.817,2.1-1.817" transform="translate(-79.765 -124.635)" fill="#2c2c36" fill-rule="evenodd"/>
      <path id="XMLID_22_" d="M787.381,539.717c.457-.079,6.766-3.16,8.137-3.95l.457-.395c-2.377-3.081-10.149.079-8.594,4.345" transform="translate(-67.472 -112.207)" fill="#cd2027" fill-rule="evenodd"/>
      <path id="XMLID_21_" d="M756.5,571.221l63.634.395c1.737,0,2.56-.316,3.2-1.264,2.377-3.4,2.56-2.765-7.5-2.765H761.894c-2.56,0-5.394,1.343-5.394,3.634" transform="translate(-64.843 -119.224)" fill="#dbdddc" fill-rule="evenodd"/>
      <path id="XMLID_20_" d="M824.56,568.906c.366-.632.457-.948-.274-1.106h-63.36A7.075,7.075,0,0,0,758,568.906Z" transform="translate(-64.971 -119.278)" fill="#9e9e9f" fill-rule="evenodd"/>
      <path id="XMLID_19_" d="M803.6,551.27v1.5h.366c5.211-.395,10.514.711,15.726.237h0c0-1.58,0-4.108-2.194-4.108H805.7c-1.646.079-2.1.553-2.1,2.37" transform="translate(-68.88 -115.308)" fill="#cd2027" fill-rule="evenodd"/>
      <path id="XMLID_43_" d="M799.417,548.181l17.646.079c3.017-.237,6.857-1.264,7.589-3.555.549-1.5.183-6.793-.274-8.373-.823-2.686-4.023-2.528-7.406-2.133a82.918,82.918,0,0,0-16.731,3.4,18.908,18.908,0,0,0-8.686,5.924c-.64.79-1.646,2.054-.549,3,1.554,1.422,6.217,1.422,8.411,1.659m36.48-18.326a4.8,4.8,0,0,0-2.56-1.027c-1.1-.079-2.011-.158-3.109-.316a78.994,78.994,0,0,0-35.749,5.134,77.3,77.3,0,0,0-9.051,4.345,86.612,86.612,0,0,0-9.966,6.635l-3.566,3.081c-3.109,2.449-8.594,8.847-10.7,11.77,1.829.158,4.389,0,6.309,0h56.96c3.017,0,1.554-.237,2.926-2.923,2.377-4.74,6.4-3.16,6.4-5.293.183-5.056-.366-11.533,0-16.352a3.766,3.766,0,0,0,2.011-.948v-4.108Z" transform="translate(-65.246 -110.956)" fill="#fff" fill-rule="evenodd"/>
      <path id="XMLID_16_" d="M764.674,560.956A45.056,45.056,0,0,0,761.2,565.3c1.829.158,4.389,0,6.309,0h56.96c3.017,0,1.554-.237,2.926-2.923,2.377-4.74,6.4-3.16,6.4-5.293V555.9c-15.726,4.661-40.96,5.451-69.12,5.056" transform="translate(-65.246 -116.779)" fill="#ecb961" fill-rule="evenodd"/>
      <path id="XMLID_218_" d="M576.266,650.623H89.5V592.8H576.266Z" transform="translate(-7.671 -124.53)" fill="#fff" fill-rule="evenodd"/>
      <path id="XMLID_217_" d="M107.9,606.6H295.786v37.68H107.9Z" transform="translate(-9.249 -127.429)" fill="#eee" fill-rule="evenodd"/>
      <path id="XMLID_216_" d="M145.6,606.5h8.96v37.759H145.6Z" transform="translate(-12.48 -127.408)" fill="#fff" fill-rule="evenodd"/>
      <path id="XMLID_215_" d="M265.9,606.5h8.96v37.759H265.9Z" transform="translate(-22.791 -127.408)" fill="#fff" fill-rule="evenodd"/>
      <path id="XMLID_214_" d="M206.55,636.114c-1.737,0-3.566,0-5.3-.079-1.737,0-3.474-.079-5.12-.158-1.646,0-3.291-.158-4.754-.237-1.554-.079-2.926-.158-4.3-.237-2.651-.158-4.846-.395-6.4-.553s-2.469-.316-2.469-.316a2.036,2.036,0,0,1-1.28-3.634,3.012,3.012,0,0,0,1.28.553s.914.158,2.469.316,3.749.4,6.4.553c1.371.079,2.743.158,4.3.237s3.109.158,4.754.237,3.383.079,5.12.158c1.737,0,3.474.079,5.3.079,1.737,0,3.566,0,5.3-.079,1.737,0,3.474-.079,5.12-.158,1.646,0,3.291-.158,4.754-.158,1.554-.079,2.926-.158,4.3-.237,2.651-.158,4.846-.395,6.4-.553s2.469-.316,2.469-.316a2.6,2.6,0,0,0,1.28-.553,1.937,1.937,0,0,1,.731,1.9,2.285,2.285,0,0,1-2.011,1.738s-.914.158-2.469.316-3.749.4-6.4.553c-1.371.079-2.743.158-4.3.237s-3.109.158-4.754.158c-1.646.079-3.383.079-5.12.158s-3.474.079-5.3.079" transform="translate(-15.098 -132.534)" fill="#dbdddc" fill-rule="evenodd"/>
      <path id="XMLID_213_" d="M234.893,630.146s-.914.158-2.469.316-3.749.395-6.4.553c-1.371.079-2.743.158-4.3.237s-3.109.158-4.754.158c-1.646.079-3.383.079-5.12.158-1.737,0-3.474,0-5.3.079-1.737,0-3.566,0-5.3-.079-1.737,0-3.474-.079-5.12-.158-1.646,0-3.291-.158-4.754-.237-1.554-.079-2.926-.158-4.3-.237-2.651-.158-4.846-.395-6.4-.553s-2.469-.316-2.469-.316a2.1,2.1,0,0,1-2.011-2.449,2.285,2.285,0,0,1,2.011-1.738s.914-.158,2.469-.316,3.749-.395,6.4-.553c1.371-.079,2.743-.158,4.3-.237s3.109-.158,4.754-.237,3.383-.079,5.12-.158c1.737,0,3.474-.079,5.3-.079h5.3c1.737,0,3.474.079,5.12.158,1.646,0,3.291.158,4.754.158,1.554.079,2.926.158,4.3.237,2.651.158,4.846.4,6.4.553s2.469.316,2.469.316a2.152,2.152,0,0,1,2.011,2.449,2.348,2.348,0,0,1-2.011,1.975" transform="translate(-15.098 -131.148)" fill="#606872" fill-rule="evenodd"/>
      <path id="XMLID_212_" d="M242.6,629.395h0V629a.319.319,0,0,1,0,.395h0" transform="translate(-20.794 -132.135)" fill="#d6a771" fill-rule="evenodd"/>
      <path id="XMLID_211_" d="M236.541,629.24a2.385,2.385,0,0,0-1.646-.948s-.914-.158-2.469-.316-3.749-.395-6.4-.553c-1.371-.079-2.743-.158-4.3-.237s-3.109-.158-4.754-.158c-1.646-.079-3.383-.079-5.12-.158-1.737,0-3.474,0-5.3-.079-1.737,0-3.566,0-5.3.079-1.737,0-3.474.079-5.12.158-1.646,0-3.291.158-4.754.237-1.554.079-2.926.158-4.3.237-2.651.158-4.846.395-6.4.553s-2.469.316-2.469.316a2.6,2.6,0,0,0-1.646.948,2.1,2.1,0,0,1-.366-1.5,2.285,2.285,0,0,1,2.011-1.738s.914-.158,2.469-.316,3.749-.4,6.4-.553c1.371-.079,2.743-.158,4.3-.237s3.109-.158,4.754-.237,3.383-.079,5.12-.158c1.737,0,3.474-.079,5.3-.079h5.3c1.737,0,3.474.079,5.12.158,1.646,0,3.291.158,4.754.158,1.554.079,2.926.158,4.3.237,2.651.158,4.846.395,6.4.553s2.469.316,2.469.316a2.232,2.232,0,0,1,2.011,2.133v.316h0a1.524,1.524,0,0,1-.366.869" transform="translate(-15.101 -131.19)" fill="#727a81" fill-rule="evenodd"/>
      <path id="XMLID_210_" d="M310.4,587.821H88.866c-3.749,0-6.766-2.607-6.766-5.846v-7.03c0-3.239,3.017-5.845,6.766-5.845H310.489v18.721Z" transform="translate(-7.037 -119.552)" fill="#fff" fill-rule="evenodd"/>
      <path id="XMLID_209_" d="M82.1,574.629c.183-3.081,3.2-5.529,6.766-5.529-3.657,0-6.583,2.449-6.766,5.529" transform="translate(-7.037 -119.552)" fill="#fff" fill-rule="evenodd"/>
      <path id="XMLID_208_" d="M311.031,598.724H89.5V592.8H576.266v5.924H311.031Z" transform="translate(-7.671 -124.53)" fill="#dbdddc" fill-rule="evenodd"/>
      <path id="XMLID_207_" d="M321.42,666H210.7V819.957H321.42Z" transform="translate(-18.06 -139.908)" fill="#fff" fill-rule="evenodd"/>
      <path id="XMLID_206_" d="M89.5,666H200.311V819.957H89.5Z" transform="translate(-7.671 -139.908)" fill="#fff" fill-rule="evenodd"/>
      <path id="XMLID_205_" d="M100.1,676.6h91.429V813.811H100.1Z" transform="translate(-8.58 -142.134)" fill="#eee" fill-rule="evenodd"/>
      <path id="XMLID_204_" d="M100.1,676.6h91.429v6.556H100.1Z" transform="translate(-8.58 -142.134)" fill="#dbdddc" fill-rule="evenodd"/>
      <path id="XMLID_356_" d="M186.114,714.5m.274.079Zm-2.743,1.738a2.356,2.356,0,0,1,2.377-1.817,2.438,2.438,0,0,0-2.377,1.817ZM182,746.729v-1.9h0v1.9Zm8.137,0h0v-.395C190.229,746.492,190.137,746.571,190.137,746.729Z" transform="translate(-15.6 -150.096)" fill="#c09850" fill-rule="evenodd"/>
      <path id="XMLID_198_" d="M208.5,666h3.84V819.957H208.5Z" transform="translate(-17.871 -139.908)" fill="#eee" fill-rule="evenodd"/>
      <path id="XMLID_197_" d="M349,606.6h99.657v37.68H349Z" transform="translate(-29.914 -127.429)" fill="#eee" fill-rule="evenodd"/>
      <path id="XMLID_196_" d="M401.05,637.114c-1.737,0-3.566,0-5.3-.079-1.737,0-3.474-.079-5.12-.158-1.646,0-3.291-.158-4.754-.158-1.554-.079-2.926-.158-4.3-.237-2.651-.158-4.846-.395-6.4-.553s-2.469-.316-2.469-.316a2.036,2.036,0,0,1-1.28-3.634,3.011,3.011,0,0,0,1.28.553s.914.158,2.469.316,3.749.395,6.4.553c1.371.079,2.743.158,4.3.237s3.109.158,4.754.158c1.646.079,3.383.079,5.12.158,1.737,0,3.474,0,5.3.079,1.737,0,3.566,0,5.3-.079,1.737,0,3.474-.079,5.12-.158,1.646,0,3.291-.158,4.754-.237,1.554-.079,2.926-.158,4.3-.237,2.651-.158,4.846-.395,6.4-.553s2.469-.316,2.469-.316a2.6,2.6,0,0,0,1.28-.553,1.937,1.937,0,0,1,.731,1.9,2.285,2.285,0,0,1-2.011,1.738s-.914.158-2.469.316-3.749.395-6.4.553c-1.371.079-2.743.158-4.3.237s-3.109.158-4.754.237-3.383.079-5.12.158c-1.828.079-3.566.079-5.3.079" transform="translate(-31.77 -132.744)" fill="#dbdddc" fill-rule="evenodd"/>
      <path id="XMLID_195_" d="M372.607,627s.914-.158,2.469-.316,3.749-.395,6.4-.553c1.371-.079,2.743-.158,4.3-.237s3.109-.158,4.754-.158c1.646-.079,3.383-.079,5.12-.158,1.737,0,3.474,0,5.3-.079,1.737,0,3.566,0,5.3.079,1.737,0,3.474.079,5.12.158,1.646,0,3.291.158,4.754.237,1.554.079,2.926.158,4.3.237,2.651.158,4.846.395,6.4.553s2.469.316,2.469.316a2.1,2.1,0,0,1,2.011,2.449,2.285,2.285,0,0,1-2.011,1.738s-.914.158-2.469.316-3.749.395-6.4.553c-1.371.079-2.743.158-4.3.237s-3.109.158-4.754.237-3.383.079-5.12.158c-1.737,0-3.474.079-5.3.079-1.737,0-3.566,0-5.3-.079-1.737,0-3.474-.079-5.12-.158-1.646,0-3.291-.158-4.754-.158-1.554-.079-2.926-.158-4.3-.237-2.651-.158-4.846-.4-6.4-.553s-2.469-.316-2.469-.316A2.1,2.1,0,0,1,370.6,628.9a2.265,2.265,0,0,1,2.011-1.9" transform="translate(-31.761 -131.4)" fill="#606872" fill-rule="evenodd"/>
      <path id="XMLID_349_" d="M429.385,626.98s-.914-.158-2.469-.316-3.749-.4-6.4-.553c-1.371-.079-2.743-.158-4.3-.237s-3.109-.158-4.754-.237-3.383-.079-5.12-.158c-1.737,0-3.474-.079-5.3-.079,1.737,0,3.566,0,5.3.079,1.737,0,3.474.079,5.12.158,1.646,0,3.291.158,4.754.158,1.554.079,2.926.158,4.3.237,2.651.158,4.846.395,6.4.553,1.554.237,2.469.395,2.469.395M370.78,629.9a1.744,1.744,0,0,1-.183-1.185,2.285,2.285,0,0,1,2.011-1.738,2.285,2.285,0,0,0-2.011,1.738,1.817,1.817,0,0,0,.183,1.185Z" transform="translate(-31.762 -131.379)" fill="#d6a771" fill-rule="evenodd"/>
      <path id="XMLID_192_" d="M431.039,630.24a2.385,2.385,0,0,0-1.646-.948s-.914-.158-2.469-.316-3.749-.395-6.4-.553c-1.371-.079-2.743-.158-4.3-.237s-3.109-.158-4.754-.158c-1.646-.079-3.383-.079-5.12-.158-1.737,0-3.474,0-5.3-.079-1.737,0-3.566,0-5.3.079-1.737,0-3.474.079-5.12.158-1.646,0-3.291.158-4.754.237-1.554.079-2.926.158-4.3.237-2.651.158-4.846.395-6.4.553s-2.469.316-2.469.316a2.6,2.6,0,0,0-1.646.948.572.572,0,0,1-.183-.316,1.817,1.817,0,0,1-.183-1.185,2.285,2.285,0,0,1,2.011-1.738s.914-.158,2.469-.316,3.749-.395,6.4-.553c1.371-.079,2.743-.158,4.3-.237s3.109-.158,4.754-.237,3.383-.079,5.12-.158c1.737,0,3.474-.079,5.3-.079h0c1.737,0,3.566,0,5.3.079,1.737,0,3.474.079,5.12.158,1.646,0,3.291.158,4.754.237,1.554.079,2.926.158,4.3.237,2.651.158,4.846.4,6.4.553s2.469.316,2.469.316h0a2.1,2.1,0,0,1,2.011,2.449,2.631,2.631,0,0,1-.366.711" transform="translate(-31.771 -131.4)" fill="#727a81" fill-rule="evenodd"/>
      <path id="XMLID_191_" d="M330.5,587.821H464.626c3.749,0,6.766-2.607,6.766-5.846v-7.03c0-3.239-3.017-5.845-6.766-5.845H330.5Z" transform="translate(-28.329 -119.552)" fill="#fff" fill-rule="evenodd"/>
      <path id="XMLID_190_" d="M330.5,666H464.626V819.957H330.5Z" transform="translate(-28.329 -139.908)" fill="#fff" fill-rule="evenodd"/>
      <path id="XMLID_189_" d="M341.1,676.6H455.843V813.811H341.1Z" transform="translate(-29.237 -142.134)" fill="#eee" fill-rule="evenodd"/>
      <path id="XMLID_188_" d="M341.1,676.6H455.843v6.556H341.1Z" transform="translate(-29.237 -142.134)" fill="#dbdddc" fill-rule="evenodd"/>
      <path id="XMLID_123_" d="M455.014,714.5Zm.366.079Zm-2.743,1.738a2.356,2.356,0,0,1,2.377-1.817,2.438,2.438,0,0,0-2.377,1.817ZM450.9,746.729v0Zm8.229,0h0v0Z" transform="translate(-38.649 -150.096)" fill="#c09850" fill-rule="evenodd"/>
      <path id="XMLID_182_" d="M493.7,606.6h99.657v37.68H493.7Z" transform="translate(-42.317 -127.429)" fill="#eee" fill-rule="evenodd"/>
      <path id="XMLID_118_" d="M295.786,612.682H107.9V606.6H295.786Zm132.206,0H328.334V606.6h99.657Zm132.3,0H460.631V606.6h99.657Z" transform="translate(-9.249 -127.429)" fill="#dbdddc" fill-rule="evenodd"/>
      <path id="XMLID_178_" d="M545.75,637.114c-1.737,0-3.566,0-5.3-.079-1.737,0-3.474-.079-5.12-.158-1.646,0-3.292-.158-4.754-.158-1.554-.079-2.926-.158-4.3-.237-2.651-.158-4.846-.395-6.4-.553s-2.469-.316-2.469-.316a2.036,2.036,0,0,1-1.28-3.634,3.012,3.012,0,0,0,1.28.553s.914.158,2.469.316,3.749.395,6.4.553c1.371.079,2.743.158,4.3.237s3.109.158,4.754.158c1.646.079,3.383.079,5.12.158,1.737,0,3.474,0,5.3.079,1.737,0,3.566,0,5.3-.079,1.737,0,3.474-.079,5.12-.158,1.646,0,3.291-.158,4.754-.237,1.554-.079,2.926-.158,4.3-.237,2.651-.158,4.846-.395,6.4-.553s2.469-.316,2.469-.316a2.6,2.6,0,0,0,1.28-.553,1.937,1.937,0,0,1,.732,1.9,2.285,2.285,0,0,1-2.011,1.738s-.914.158-2.469.316-3.749.395-6.4.553c-1.372.079-2.743.158-4.3.237s-3.109.158-4.754.237-3.383.079-5.12.158-3.566.079-5.3.079" transform="translate(-44.173 -132.744)" fill="#dbdddc" fill-rule="evenodd"/>
      <path id="XMLID_177_" d="M517.407,627s.914-.158,2.469-.316,3.749-.395,6.4-.553c1.371-.079,2.743-.158,4.3-.237s3.109-.158,4.754-.158c1.646-.079,3.383-.079,5.12-.158,1.737,0,3.474,0,5.3-.079,1.737,0,3.566,0,5.3.079,1.737,0,3.474.079,5.12.158,1.646,0,3.291.158,4.754.237,1.554.079,2.926.158,4.3.237,2.651.158,4.846.395,6.4.553s2.469.316,2.469.316a2.1,2.1,0,0,1,2.011,2.449,2.285,2.285,0,0,1-2.011,1.738s-.914.158-2.469.316-3.749.395-6.4.553c-1.372.079-2.743.158-4.3.237s-3.109.158-4.754.237-3.383.079-5.12.158c-1.737,0-3.474.079-5.3.079-1.737,0-3.566,0-5.3-.079-1.737,0-3.474-.079-5.12-.158-1.646,0-3.292-.158-4.754-.158-1.554-.079-2.926-.158-4.3-.237-2.651-.158-4.846-.4-6.4-.553s-2.469-.316-2.469-.316A2.1,2.1,0,0,1,515.4,628.9a2.265,2.265,0,0,1,2.011-1.9" transform="translate(-44.173 -131.4)" fill="#606872" fill-rule="evenodd"/>
      <path id="XMLID_113_" d="M574.085,626.98s-.914-.158-2.469-.316-3.749-.4-6.4-.553c-1.372-.079-2.743-.158-4.3-.237s-3.109-.158-4.754-.237-3.383-.079-5.12-.158c-1.737,0-3.474-.079-5.3-.079,1.737,0,3.566,0,5.3.079,1.737,0,3.474.079,5.12.158,1.646,0,3.291.158,4.754.158,1.554.079,2.926.158,4.3.237,2.651.158,4.846.395,6.4.553,1.646.237,2.469.395,2.469.395M515.479,629.9a1.744,1.744,0,0,1-.183-1.185,2.285,2.285,0,0,1,2.011-1.738,2.286,2.286,0,0,0-2.011,1.738,2.683,2.683,0,0,0,.183,1.185Z" transform="translate(-44.165 -131.379)" fill="#d6a771" fill-rule="evenodd"/>
      <path id="XMLID_174_" d="M575.739,630.24a2.385,2.385,0,0,0-1.646-.948s-.914-.158-2.469-.316-3.749-.395-6.4-.553c-1.371-.079-2.743-.158-4.3-.237s-3.109-.158-4.754-.158c-1.646-.079-3.383-.079-5.12-.158-1.737,0-3.474,0-5.3-.079-1.737,0-3.566,0-5.3.079-1.737,0-3.474.079-5.12.158-1.646,0-3.291.158-4.754.237-1.554.079-2.926.158-4.3.237-2.651.158-4.846.395-6.4.553s-2.469.316-2.469.316a2.6,2.6,0,0,0-1.646.948.573.573,0,0,1-.183-.316,1.817,1.817,0,0,1-.183-1.185,2.285,2.285,0,0,1,2.011-1.738s.914-.158,2.469-.316,3.749-.395,6.4-.553c1.372-.079,2.743-.158,4.3-.237s3.109-.158,4.754-.237,3.383-.079,5.12-.158c1.737,0,3.474-.079,5.3-.079h0c1.737,0,3.566,0,5.3.079,1.737,0,3.474.079,5.12.158,1.646,0,3.291.158,4.754.237,1.554.079,2.926.158,4.3.237,2.651.158,4.846.4,6.4.553s2.469.316,2.469.316h0a2.1,2.1,0,0,1,2.011,2.449,1.333,1.333,0,0,1-.366.711" transform="translate(-44.174 -131.4)" fill="#727a81" fill-rule="evenodd"/>
      <path id="XMLID_173_" d="M475.3,587.821H609.426c3.749,0,6.766-2.607,6.766-5.846v-7.03c0-3.239-3.017-5.845-6.766-5.845H475.3Z" transform="translate(-40.74 -119.552)" fill="#fff" fill-rule="evenodd"/>
      <path id="XMLID_172_" d="M582.5,578.9c0-3.239-3.017-5.845-6.766-5.845H88.966c-3.749,0-6.766,2.607-6.766,5.845v-4.266c.183-3.081,3.2-5.529,6.766-5.529H575.731c3.749,0,6.766,2.607,6.766,5.845Z" transform="translate(-7.046 -119.552)" fill="#dbdddc" fill-rule="evenodd"/>
      <path id="XMLID_171_" d="M475.3,666H609.426V819.957H475.3Z" transform="translate(-40.74 -139.908)" fill="#fff" fill-rule="evenodd"/>
      <path id="XMLID_101_" d="M599.723,714.5Zm.366.079Zm-2.743,1.738a2.356,2.356,0,0,1,2.377-1.817,2.438,2.438,0,0,0-2.377,1.817ZM595.7,746.729v0Zm8.137,0h0v0Z" transform="translate(-51.06 -150.096)" fill="#c09850" fill-rule="evenodd"/>
      <path id="XMLID_165_" d="M188.494,764.914c-2.926,0-5.394-2.054-5.394-4.661V759.7a5.132,5.132,0,0,0,5.3,4.029h0c2.743,0,5.029-1.738,5.3-4.029v.553c.183,2.607-2.286,4.661-5.211,4.661" transform="translate(-15.694 -159.591)" fill="#c8c8c9" fill-rule="evenodd"/>
      <path id="XMLID_164_" d="M193.889,757.76c0-2.528-2.377-4.661-5.394-4.661-2.926,0-5.394,2.054-5.394,4.661,0,2.528,2.377,4.661,5.394,4.661,2.926-.079,5.394-2.133,5.394-4.661" transform="translate(-15.694 -158.205)" fill="#606872" fill-rule="evenodd"/>
      <path id="XMLID_163_" d="M188.5,762.342h-.366a4.243,4.243,0,0,0,4.206-3.95c0-2.212-2.1-3.95-4.571-3.95a4.372,4.372,0,0,0-4.571,3.634v-.316c0-2.528,2.377-4.661,5.394-4.661,2.926,0,5.394,2.054,5.394,4.661-.091,2.528-2.56,4.582-5.486,4.582" transform="translate(-15.703 -158.205)" fill="#727a81" fill-rule="evenodd"/>
      <path id="XMLID_162_" d="M353.094,764.914c-2.926,0-5.394-2.054-5.394-4.661V759.7a5.132,5.132,0,0,0,5.3,4.029h0c2.743,0,5.029-1.738,5.3-4.029v.553c.183,2.607-2.286,4.661-5.211,4.661" transform="translate(-29.803 -159.591)" fill="#c8c8c9" fill-rule="evenodd"/>
      <path id="XMLID_161_" d="M358.489,757.76c0-2.528-2.377-4.661-5.394-4.661-2.926,0-5.394,2.054-5.394,4.661,0,2.528,2.377,4.661,5.394,4.661,2.926-.079,5.394-2.133,5.394-4.661" transform="translate(-29.803 -158.205)" fill="#606872" fill-rule="evenodd"/>
      <path id="XMLID_160_" d="M353.1,762.342h-.366a4.243,4.243,0,0,0,4.206-3.95c0-2.212-2.1-3.95-4.571-3.95a4.372,4.372,0,0,0-4.571,3.634v-.316c0-2.528,2.377-4.661,5.394-4.661,2.926,0,5.394,2.054,5.394,4.661-.091,2.528-2.56,4.582-5.486,4.582" transform="translate(-29.811 -158.205)" fill="#727a81" fill-rule="evenodd"/>
      <path id="XMLID_159_" d="M493.7,677.2h99.657v37.68H493.7Z" transform="translate(-42.317 -142.26)" fill="#eee" fill-rule="evenodd"/>
      <path id="XMLID_158_" d="M493.7,677.2h99.657v6.082H493.7Z" transform="translate(-42.317 -142.26)" fill="#dbdddc" fill-rule="evenodd"/>
      <path id="XMLID_157_" d="M545.75,707.714c-1.737,0-3.566,0-5.3-.079-1.737,0-3.474-.079-5.12-.158-1.646,0-3.292-.158-4.754-.158-1.554-.079-2.926-.158-4.3-.237-2.651-.158-4.846-.395-6.4-.553s-2.469-.316-2.469-.316a2.036,2.036,0,0,1-1.28-3.634,3.01,3.01,0,0,0,1.28.553s.914.158,2.469.316,3.749.395,6.4.553c1.371.079,2.743.158,4.3.237s3.109.158,4.754.158c1.646.079,3.383.079,5.12.158,1.737,0,3.474,0,5.3.079,1.737,0,3.566,0,5.3-.079,1.737,0,3.474-.079,5.12-.158,1.646,0,3.291-.158,4.754-.237,1.554-.079,2.926-.158,4.3-.237,2.651-.158,4.846-.395,6.4-.553s2.469-.316,2.469-.316a2.6,2.6,0,0,0,1.28-.553,1.936,1.936,0,0,1,.732,1.9,2.285,2.285,0,0,1-2.011,1.738s-.914.158-2.469.316-3.749.395-6.4.553c-1.372.079-2.743.158-4.3.237s-3.109.158-4.754.237-3.383.079-5.12.158-3.566.079-5.3.079" transform="translate(-44.173 -147.575)" fill="#dbdddc" fill-rule="evenodd"/>
      <path id="XMLID_156_" d="M517.407,697.6s.914-.158,2.469-.316,3.749-.395,6.4-.553c1.371-.079,2.743-.158,4.3-.237s3.109-.158,4.754-.158c1.646-.079,3.383-.079,5.12-.158,1.737,0,3.474,0,5.3-.079,1.737,0,3.566,0,5.3.079,1.737,0,3.474.079,5.12.158,1.646,0,3.291.158,4.754.237,1.554.079,2.926.158,4.3.237,2.651.158,4.846.395,6.4.553s2.469.316,2.469.316a2.1,2.1,0,0,1,2.011,2.449,2.285,2.285,0,0,1-2.011,1.738s-.914.158-2.469.316-3.749.395-6.4.553c-1.372.079-2.743.158-4.3.237s-3.109.158-4.754.237-3.383.079-5.12.158c-1.737,0-3.474.079-5.3.079-1.737,0-3.566,0-5.3-.079-1.737,0-3.474-.079-5.12-.158-1.646,0-3.292-.158-4.754-.158-1.554-.079-2.926-.158-4.3-.237-2.651-.158-4.846-.4-6.4-.553s-2.469-.316-2.469-.316A2.1,2.1,0,0,1,515.4,699.5a2.265,2.265,0,0,1,2.011-1.9" transform="translate(-44.173 -146.231)" fill="#606872" fill-rule="evenodd"/>
      <path id="XMLID_87_" d="M574.085,697.58s-.914-.158-2.469-.316-3.749-.395-6.4-.553c-1.372-.079-2.743-.158-4.3-.237s-3.109-.158-4.754-.237-3.383-.079-5.12-.158c-1.737,0-3.474-.079-5.3-.079,1.737,0,3.566,0,5.3.079,1.737,0,3.474.079,5.12.158,1.646,0,3.291.158,4.754.158,1.554.079,2.926.158,4.3.237,2.651.158,4.846.4,6.4.553,1.646.237,2.469.395,2.469.395M515.479,700.5a1.744,1.744,0,0,1-.183-1.185,2.285,2.285,0,0,1,2.011-1.738,2.286,2.286,0,0,0-2.011,1.738,2.683,2.683,0,0,0,.183,1.185Z" transform="translate(-44.165 -146.21)" fill="#d6a771" fill-rule="evenodd"/>
      <path id="XMLID_153_" d="M575.739,700.839a2.385,2.385,0,0,0-1.646-.948s-.914-.158-2.469-.316-3.749-.395-6.4-.553c-1.371-.079-2.743-.158-4.3-.237s-3.109-.158-4.754-.158c-1.646-.079-3.383-.079-5.12-.158-1.737,0-3.474,0-5.3-.079-1.737,0-3.566,0-5.3.079-1.737,0-3.474.079-5.12.158-1.646,0-3.291.158-4.754.237-1.554.079-2.926.158-4.3.237-2.651.158-4.846.4-6.4.553s-2.469.316-2.469.316a2.6,2.6,0,0,0-1.646.948.573.573,0,0,1-.183-.316,1.818,1.818,0,0,1-.183-1.185,2.285,2.285,0,0,1,2.011-1.738s.914-.158,2.469-.316,3.749-.4,6.4-.553c1.372-.079,2.743-.158,4.3-.237s3.109-.158,4.754-.237,3.383-.079,5.12-.158c1.737,0,3.474-.079,5.3-.079h0c1.737,0,3.566,0,5.3.079,1.737,0,3.474.079,5.12.158,1.646,0,3.291.158,4.754.237,1.554.079,2.926.158,4.3.237,2.651.158,4.846.4,6.4.553s2.469.316,2.469.316h0a2.1,2.1,0,0,1,2.011,2.449,1.674,1.674,0,0,1-.366.711" transform="translate(-44.174 -146.231)" fill="#727a81" fill-rule="evenodd"/>
      <path id="XMLID_152_" d="M493.7,740.3h99.657v37.68H493.7Z" transform="translate(-42.317 -155.516)" fill="#eee" fill-rule="evenodd"/>
      <path id="XMLID_151_" d="M493.7,740.3h99.657v6.082H493.7Z" transform="translate(-42.317 -155.516)" fill="#dbdddc" fill-rule="evenodd"/>
      <path id="XMLID_150_" d="M545.75,770.814c-1.737,0-3.566,0-5.3-.079-1.737,0-3.474-.079-5.12-.158-1.646,0-3.292-.158-4.754-.158-1.554-.079-2.926-.158-4.3-.237-2.651-.158-4.846-.395-6.4-.553s-2.469-.316-2.469-.316a2.036,2.036,0,0,1-1.28-3.634,3.012,3.012,0,0,0,1.28.553s.914.158,2.469.316,3.749.395,6.4.553c1.371.079,2.743.158,4.3.237s3.109.158,4.754.158c1.646.079,3.383.079,5.12.158,1.737,0,3.474,0,5.3.079,1.737,0,3.566,0,5.3-.079,1.737,0,3.474-.079,5.12-.158,1.646,0,3.291-.158,4.754-.237,1.554-.079,2.926-.158,4.3-.237,2.651-.158,4.846-.395,6.4-.553s2.469-.316,2.469-.316a2.6,2.6,0,0,0,1.28-.553,1.937,1.937,0,0,1,.732,1.9,2.285,2.285,0,0,1-2.011,1.738s-.914.158-2.469.316-3.749.395-6.4.553c-1.372.079-2.743.158-4.3.237s-3.109.158-4.754.237-3.383.079-5.12.158-3.566.079-5.3.079" transform="translate(-44.173 -160.831)" fill="#dbdddc" fill-rule="evenodd"/>
      <path id="XMLID_149_" d="M517.407,760.7s.914-.158,2.469-.316,3.749-.395,6.4-.553c1.371-.079,2.743-.158,4.3-.237s3.109-.158,4.754-.158c1.646-.079,3.383-.079,5.12-.158,1.737,0,3.474,0,5.3-.079,1.737,0,3.566,0,5.3.079,1.737,0,3.474.079,5.12.158,1.646,0,3.291.158,4.754.237,1.554.079,2.926.158,4.3.237,2.651.158,4.846.395,6.4.553s2.469.316,2.469.316a2.1,2.1,0,0,1,2.011,2.449,2.285,2.285,0,0,1-2.011,1.738s-.914.158-2.469.316-3.749.395-6.4.553c-1.372.079-2.743.158-4.3.237s-3.109.158-4.754.237-3.383.079-5.12.158c-1.737,0-3.474.079-5.3.079-1.737,0-3.566,0-5.3-.079-1.737,0-3.474-.079-5.12-.158-1.646,0-3.292-.158-4.754-.158-1.554-.079-2.926-.158-4.3-.237-2.651-.158-4.846-.4-6.4-.553s-2.469-.316-2.469-.316A2.1,2.1,0,0,1,515.4,762.6a2.265,2.265,0,0,1,2.011-1.9" transform="translate(-44.173 -159.486)" fill="#606872" fill-rule="evenodd"/>
      <path id="XMLID_78_" d="M574.085,760.68s-.914-.158-2.469-.316-3.749-.4-6.4-.553c-1.372-.079-2.743-.158-4.3-.237s-3.109-.158-4.754-.237-3.383-.079-5.12-.158c-1.737,0-3.474-.079-5.3-.079,1.737,0,3.566,0,5.3.079,1.737,0,3.474.079,5.12.158,1.646,0,3.291.158,4.754.158,1.554.079,2.926.158,4.3.237,2.651.158,4.846.395,6.4.553,1.646.237,2.469.395,2.469.395M515.479,763.6a1.744,1.744,0,0,1-.183-1.185,2.286,2.286,0,0,1,2.011-1.738,2.286,2.286,0,0,0-2.011,1.738,2.683,2.683,0,0,0,.183,1.185Z" transform="translate(-44.165 -159.465)" fill="#d6a771" fill-rule="evenodd"/>
      <path id="XMLID_146_" d="M575.739,763.94a2.384,2.384,0,0,0-1.646-.948s-.914-.158-2.469-.316-3.749-.4-6.4-.553c-1.371-.079-2.743-.158-4.3-.237s-3.109-.158-4.754-.158c-1.646-.079-3.383-.079-5.12-.158-1.737,0-3.474,0-5.3-.079-1.737,0-3.566,0-5.3.079-1.737,0-3.474.079-5.12.158-1.646,0-3.291.158-4.754.237-1.554.079-2.926.158-4.3.237-2.651.158-4.846.395-6.4.553s-2.469.316-2.469.316a2.6,2.6,0,0,0-1.646.948.572.572,0,0,1-.183-.316,1.817,1.817,0,0,1-.183-1.185,2.285,2.285,0,0,1,2.011-1.738s.914-.158,2.469-.316,3.749-.395,6.4-.553c1.372-.079,2.743-.158,4.3-.237s3.109-.158,4.754-.237,3.383-.079,5.12-.158c1.737,0,3.474-.079,5.3-.079h0c1.737,0,3.566,0,5.3.079,1.737,0,3.474.079,5.12.158,1.646,0,3.291.158,4.754.237,1.554.079,2.926.158,4.3.237,2.651.158,4.846.395,6.4.553s2.469.316,2.469.316h0a2.1,2.1,0,0,1,2.011,2.449,1.334,1.334,0,0,1-.366.711" transform="translate(-44.174 -159.486)" fill="#727a81" fill-rule="evenodd"/>
      <path id="XMLID_145_" d="M493.7,802.6h99.657v37.68H493.7Z" transform="translate(-42.317 -168.603)" fill="#eee" fill-rule="evenodd"/>
      <path id="XMLID_144_" d="M493.7,802.6h99.657v6.083H493.7Z" transform="translate(-42.317 -168.603)" fill="#dbdddc" fill-rule="evenodd"/>
      <path id="XMLID_143_" d="M545.75,833.114c-1.737,0-3.566,0-5.3-.079-1.737,0-3.474-.079-5.12-.158-1.646,0-3.292-.158-4.754-.158-1.554-.079-2.926-.158-4.3-.237-2.651-.158-4.846-.395-6.4-.553s-2.469-.316-2.469-.316a2.036,2.036,0,0,1-1.28-3.634,3.011,3.011,0,0,0,1.28.553s.914.158,2.469.316,3.749.395,6.4.553c1.371.079,2.743.158,4.3.237s3.109.158,4.754.158c1.646.079,3.383.079,5.12.158,1.737,0,3.474,0,5.3.079,1.737,0,3.566,0,5.3-.079,1.737,0,3.474-.079,5.12-.158,1.646,0,3.291-.158,4.754-.237,1.554-.079,2.926-.158,4.3-.237,2.651-.158,4.846-.395,6.4-.553s2.469-.316,2.469-.316a2.6,2.6,0,0,0,1.28-.553,1.936,1.936,0,0,1,.732,1.9,2.285,2.285,0,0,1-2.011,1.738s-.914.158-2.469.316-3.749.395-6.4.553c-1.372.079-2.743.158-4.3.237s-3.109.158-4.754.237-3.383.079-5.12.158-3.566.079-5.3.079" transform="translate(-44.173 -173.918)" fill="#dbdddc" fill-rule="evenodd"/>
      <path id="XMLID_142_" d="M517.407,823s.914-.158,2.469-.316,3.749-.395,6.4-.553c1.371-.079,2.743-.158,4.3-.237s3.109-.158,4.754-.158c1.646-.079,3.383-.079,5.12-.158,1.737,0,3.474,0,5.3-.079,1.737,0,3.566,0,5.3.079,1.737,0,3.474.079,5.12.158,1.646,0,3.291.158,4.754.237,1.554.079,2.926.158,4.3.237,2.651.158,4.846.395,6.4.553s2.469.316,2.469.316a2.1,2.1,0,0,1,2.011,2.449,2.285,2.285,0,0,1-2.011,1.738s-.914.158-2.469.316-3.749.395-6.4.553c-1.372.079-2.743.158-4.3.237s-3.109.158-4.754.237-3.383.079-5.12.158c-1.737,0-3.474.079-5.3.079-1.737,0-3.566,0-5.3-.079-1.737,0-3.474-.079-5.12-.158-1.646,0-3.292-.158-4.754-.158-1.554-.079-2.926-.158-4.3-.237-2.651-.158-4.846-.395-6.4-.553s-2.469-.316-2.469-.316A2.1,2.1,0,0,1,515.4,824.9a2.352,2.352,0,0,1,2.011-1.9" transform="translate(-44.173 -172.574)" fill="#606872" fill-rule="evenodd"/>
      <path id="XMLID_70_" d="M574.085,822.98s-.914-.158-2.469-.316-3.749-.395-6.4-.553c-1.372-.079-2.743-.158-4.3-.237s-3.109-.158-4.754-.237-3.383-.079-5.12-.158c-1.737,0-3.474-.079-5.3-.079,1.737,0,3.566,0,5.3.079,1.737,0,3.474.079,5.12.158,1.646,0,3.291.158,4.754.158,1.554.079,2.926.158,4.3.237,2.651.158,4.846.4,6.4.553,1.646.237,2.469.4,2.469.4M515.479,825.9a1.744,1.744,0,0,1-.183-1.185,2.285,2.285,0,0,1,2.011-1.738,2.285,2.285,0,0,0-2.011,1.738,2.683,2.683,0,0,0,.183,1.185Z" transform="translate(-44.165 -172.553)" fill="#d6a771" fill-rule="evenodd"/>
      <path id="XMLID_139_" d="M575.739,826.24a2.385,2.385,0,0,0-1.646-.948s-.914-.158-2.469-.316-3.749-.4-6.4-.553c-1.371-.079-2.743-.158-4.3-.237s-3.109-.158-4.754-.158c-1.646-.079-3.383-.079-5.12-.158-1.737,0-3.474,0-5.3-.079-1.737,0-3.566,0-5.3.079-1.737,0-3.474.079-5.12.158-1.646,0-3.291.158-4.754.237-1.554.079-2.926.158-4.3.237-2.651.158-4.846.395-6.4.553s-2.469.316-2.469.316a2.6,2.6,0,0,0-1.646.948.572.572,0,0,1-.183-.316,1.817,1.817,0,0,1-.183-1.185,2.285,2.285,0,0,1,2.011-1.738s.914-.158,2.469-.316,3.749-.395,6.4-.553c1.372-.079,2.743-.158,4.3-.237s3.109-.158,4.754-.237,3.383-.079,5.12-.158c1.737,0,3.474-.079,5.3-.079h0c1.737,0,3.566,0,5.3.079,1.737,0,3.474.079,5.12.158,1.646,0,3.291.158,4.754.237,1.554.079,2.926.158,4.3.237,2.651.158,4.846.395,6.4.553s2.469.316,2.469.316h0a2.1,2.1,0,0,1,2.011,2.449,1.333,1.333,0,0,1-.366.711" transform="translate(-44.174 -172.574)" fill="#727a81" fill-rule="evenodd"/>
      <path id="XMLID_138_" d="M89.5,662.9H576.357v4.977H89.5Z" transform="translate(-7.671 -139.256)" fill="#eee" fill-rule="evenodd"/>
      <path id="XMLID_137_" d="M223.5,676.6h91.429V813.811H223.5Z" transform="translate(-19.157 -142.134)" fill="#eee" fill-rule="evenodd"/>
      <path id="XMLID_136_" d="M223.5,676.6h91.429v6.556H223.5Z" transform="translate(-19.157 -142.134)" fill="#dbdddc" fill-rule="evenodd"/>
      <path id="XMLID_60_" d="M236.714,714.5m-.366.079Zm2.743,1.738a2.356,2.356,0,0,0-2.377-1.817,2.438,2.438,0,0,1,2.377,1.817Zm1.646,30.412v-1.9h0v1.9Zm-8.137,0h0v0Z" transform="translate(-19.937 -150.096)" fill="#c09850" fill-rule="evenodd"/>
      <path id="XMLID_130_" d="M234.011,764.914c2.926,0,5.394-2.054,5.394-4.661V759.7a5.132,5.132,0,0,1-5.3,4.029h0c-2.743,0-5.029-1.738-5.3-4.029v.553c-.091,2.607,2.286,4.661,5.211,4.661" transform="translate(-19.611 -159.591)" fill="#c8c8c9" fill-rule="evenodd"/>
      <path id="XMLID_129_" d="M228.7,757.76c0-2.528,2.377-4.661,5.394-4.661,2.926,0,5.394,2.054,5.394,4.661,0,2.528-2.377,4.661-5.394,4.661-3.017-.079-5.394-2.133-5.394-4.661" transform="translate(-19.603 -158.205)" fill="#606872" fill-rule="evenodd"/>
      <path id="XMLID_128_" d="M233.986,762.342h.366a4.243,4.243,0,0,1-4.206-3.95c0-2.212,2.1-3.95,4.571-3.95a4.372,4.372,0,0,1,4.571,3.634v-.316c0-2.528-2.377-4.661-5.394-4.661-2.926,0-5.394,2.054-5.394,4.661a5.289,5.289,0,0,0,5.486,4.582" transform="translate(-19.586 -158.205)" fill="#727a81" fill-rule="evenodd"/>
      <path id="XMLID_2_" d="M577.914,566.127h-81.28c-3.383,0-6.034-2.37-6.034-5.214h0c0-2.923,2.743-5.214,6.034-5.214h81.28c3.383,0,6.034,2.37,6.034,5.214h0C583.949,563.757,581.3,566.127,577.914,566.127Z" transform="translate(-42.051 -116.737)" fill="#9ad095" fill-rule="evenodd"/>
      <path id="XMLID_4_" d="M577.914,552.927h-81.28c-3.383,0-6.034-2.37-6.034-5.214h0c0-2.923,2.743-5.214,6.034-5.214h81.28c3.383,0,6.034,2.37,6.034,5.214h0C583.949,550.557,581.3,552.927,577.914,552.927Z" transform="translate(-42.051 -113.964)" fill="#642d91" fill-rule="evenodd"/>
      <path id="XMLID_5_" d="M577.914,539.627h-81.28c-3.383,0-6.034-2.37-6.034-5.213h0c0-2.923,2.743-5.214,6.034-5.214h81.28c3.383,0,6.034,2.37,6.034,5.214h0C583.949,537.257,581.3,539.627,577.914,539.627Z" transform="translate(-42.051 -111.17)" fill="#b9083f" fill-rule="evenodd"/>
      <path id="XMLID_6_" d="M577.914,526.427h-81.28c-3.383,0-6.034-2.37-6.034-5.214h0c0-2.923,2.743-5.214,6.034-5.214h81.28c3.383,0,6.034,2.37,6.034,5.214h0C583.949,524.057,581.3,526.427,577.914,526.427Z" transform="translate(-42.051 -108.397)" fill="#f47920" fill-rule="evenodd"/>
      <path id="XMLID_7_" d="M577.914,513.127h-81.28c-3.383,0-6.034-2.37-6.034-5.214h0c0-2.923,2.743-5.214,6.034-5.214h81.28c3.383,0,6.034,2.37,6.034,5.214h0C583.949,510.757,581.3,513.127,577.914,513.127Z" transform="translate(-42.051 -105.603)" fill="#fff" fill-rule="evenodd"/>
      <path id="XMLID_74_" d="M464.589,564.026H312.634c-3.383,0-6.034-2.37-6.034-5.214v-7.9c0-2.923,2.743-5.214,6.034-5.214H464.5c3.383,0,6.034,2.37,6.034,5.214v7.9C470.623,561.657,467.88,564.026,464.589,564.026Z" transform="translate(-26.28 -114.636)" fill="#eee" fill-rule="evenodd"/>
      <path id="XMLID_73_" d="M464.589,540.726H312.634c-3.383,0-6.034-2.37-6.034-5.214v-7.9c0-2.923,2.743-5.214,6.034-5.214H464.5c3.383,0,6.034,2.37,6.034,5.214v7.9C470.623,538.436,467.88,540.726,464.589,540.726Z" transform="translate(-26.28 -109.741)" fill="#dbdddc" fill-rule="evenodd"/>
      <path id="XMLID_67_" d="M464.589,517.526H312.634c-3.383,0-6.034-2.37-6.034-5.214v-7.9c0-2.923,2.743-5.214,6.034-5.214H464.5c3.383,0,6.034,2.37,6.034,5.214v7.9C470.623,515.157,467.88,517.526,464.589,517.526Z" transform="translate(-26.28 -104.868)" fill="#fff" fill-rule="evenodd"/>
      <path id="XMLID_65_" d="M464.589,494.226H312.634c-3.383,0-6.034-2.37-6.034-5.214v-7.9c0-2.923,2.743-5.214,6.034-5.214H464.5c3.383,0,6.034,2.37,6.034,5.214v7.9C470.623,491.936,467.88,494.226,464.589,494.226Z" transform="translate(-26.28 -99.973)" fill="#eee" fill-rule="evenodd"/>
      <path id="XMLID_45_" d="M1118.9,571.9h190.263V797.188H1118.9Z" transform="translate(-95.906 -120.14)" fill="#fff" fill-rule="evenodd"/>
      <path id="XMLID_58_" d="M1118.9,611.9h190.263v3.713H1118.9Z" transform="translate(-95.906 -128.543)" fill="#eee" fill-rule="evenodd"/>
      <path id="XMLID_75_" d="M1118.9,841.8h190.263v12.086H1118.9Z" transform="translate(-95.906 -176.838)" fill="#d5d6d5" fill-rule="evenodd"/>
      <path id="XMLID_96_" d="M1270.369,702.484c0,24.962-23.406,45.263-52.389,45.263q-2.606,0-5.211-.237c-1.92-.158-3.749-.395-5.669-.711a71.506,71.506,0,0,1-8.411-2.133,53.051,53.051,0,0,1-21.211-13.35,41.42,41.42,0,0,1-11.977-28.753c0-24.962,23.406-45.263,52.389-45.263a60.977,60.977,0,0,1,17.646,2.607,52.622,52.622,0,0,1,21.669,12.8,49.6,49.6,0,0,1,5.211,6.082,43.629,43.629,0,0,1,2.743,4.266A38.849,38.849,0,0,1,1270.369,702.484Z" transform="translate(-99.9 -138.08)" fill="#6f7371" fill-rule="evenodd"/>
      <path id="XMLID_76_" d="M1288.606,697.841c0,34.6-32.461,62.641-72.5,62.641s-72.5-28.045-72.5-62.641,32.461-62.641,72.5-62.641S1288.606,663.245,1288.606,697.841Z" transform="translate(-98.023 -133.437)" fill="none" stroke="#eee" stroke-miterlimit="10" stroke-width="5" fill-rule="evenodd"/>
      <path id="XMLID_91_" d="M1258.517,673.4l-58.606,71.883a53.054,53.054,0,0,1-21.211-13.35l58.057-71.331A52.961,52.961,0,0,1,1258.517,673.4Z" transform="translate(-101.031 -138.773)" fill="#a1a4a2" fill-rule="evenodd"/>
      <path id="XMLID_90_" d="M1269.149,688.766l-52.48,64.458c-1.92-.158-3.749-.395-5.669-.711l55.406-68.013A43.637,43.637,0,0,1,1269.149,688.766Z" transform="translate(-103.8 -143.794)" fill="#a1a4a2" fill-rule="evenodd"/>
      <path id="XMLID_64_" d="M1308.337,592.662c0,4.232-3.971,7.662-8.869,7.662s-8.869-3.43-8.869-7.662,3.971-7.662,8.869-7.662S1308.337,588.43,1308.337,592.662Z" transform="translate(-110.623 -122.892)" fill="#eee" fill-rule="evenodd"/>
      <path id="XMLID_77_" d="M1201.6,584.2h39.04v16.588H1201.6Z" transform="translate(-102.994 -122.724)" fill="#a1a4a2" fill-rule="evenodd"/>
      <path id="XMLID_79_" d="M1126.6,584.2h40.594v15.957H1126.6Z" transform="translate(-96.566 -122.724)" fill="none" stroke="#eee" stroke-miterlimit="10" stroke-width="5" fill-rule="evenodd"/>
      <text id="XMLID_921_" transform="translate(908.683 133.596)" fill="#fff" font-size="35" font-family="Helvetica" letter-spacing="0.098em"><tspan x="0" y="0">L</tspan><tspan y="0" letter-spacing="0.079em">A</tspan><tspan y="0">UND</tspan><tspan y="0" letter-spacing="0.079em">R</tspan><tspan y="0">Y</tspan></text>
      <g id="XMLID_8_" transform="translate(1006.56 304.122)">
        <path id="XMLID_44_" d="M1132.866,390.377h.183c1.371-.158,2.743-.316,4.114-.395h0v-4.266c-1.463-.079-2.926-.237-4.48-.316h-.183Z" transform="translate(-1103.631 -385.084)" fill="#b64326" fill-rule="evenodd"/>
        <path id="XMLID_42_" d="M1125.94,395.661c-2.377.079-4.754.079-7.04.158.823-.632,1.554-1.264,2.377-1.9,1.28-.632,2.469-1.5,3.749-2.133,1.006-.316,1.92-.474,2.926-.79.274.395.548.869.823,1.264a21.452,21.452,0,0,0,1.006,7.583,7.982,7.982,0,0,0,1.189,2.291c.183.158.366.395.549.553.64.79,0,1.027-.731.395a13.937,13.937,0,0,1-4.846-7.425" transform="translate(-1102.466 -386.26)" fill="#b64326" fill-rule="evenodd"/>
        <path id="XMLID_41_" d="M1130.7,385.083c-5.943-.079-19.2-.395-24.411,1.738-1.646.632-1.463,1.027-.457,1.817a11.407,11.407,0,0,1,1.829,1.659,6.75,6.75,0,0,1,1.1,1.659c1.006,1.9.914,2.212.914,4.977,2.651-.079,5.211,0,7.863-.079,3.017-3.318,8.32-6.319,13.257-6.4-.091-1.817,0-3.634-.091-5.371" transform="translate(-1101.28 -385.004)" fill="#ef6023" fill-rule="evenodd"/>
        <path id="XMLID_15_" d="M1131.866,385.079c-3.109-.079-8.228-.158-13.166.079v11.691h0c3.017-3.318,8.32-6.319,13.257-6.4-.091-1.817,0-3.634-.091-5.372" transform="translate(-1102.449 -385)" fill="#d45027" fill-rule="evenodd"/>
        <path id="XMLID_14_" d="M1109.8,399.6h11.886v7.425H1109.8Z" transform="translate(-1101.686 -388.067)" fill="#d45027" fill-rule="evenodd"/>
        <path id="XMLID_13_" d="M1118.6,399.6h3.84v7.425h-3.84Z" transform="translate(-1102.44 -388.067)" fill="#b64326" fill-rule="evenodd"/>
        <path id="XMLID_12_" d="M1122.662,410.312a9.784,9.784,0,0,0-1.554-1.975l-.183-.237h-12.251l-.183.395-.549.948v.079h0a100.817,100.817,0,0,0-2.926,9.874c-.457,1.738-.914,3.476-1.463,5.371h0c-.457,2.212-.914,4.424-1.189,6.714-.366,2.291-.64,4.582-.914,6.793h0c-.183,1.975-.366,3.792-.457,5.766-.091,1.9-.091,3.792,0,5.766a40.586,40.586,0,0,0,.823,7.662,17.831,17.831,0,0,0,3.291,6.793l.183.237h23.68l.183-.237a18.526,18.526,0,0,0,4.3-11.3,63.2,63.2,0,0,0-.731-11.928v-.158a13.192,13.192,0,0,0-.914-2.212,21.184,21.184,0,0,0-1.1-2.133v-.079h0a13,13,0,0,0-4.3-3.713l-.091-.079h0a20,20,0,0,1-2.377-1.264,3.1,3.1,0,0,1-1.006-1.422,4.709,4.709,0,0,1-.366-2.212,6.441,6.441,0,0,1,.64-2.449,1.764,1.764,0,0,0,.183-.948,3.472,3.472,0,0,0-.274-1.027,2.712,2.712,0,0,0-.732-.948c-.091-.079-.091-.079,0-.632a1.844,1.844,0,0,1,.275-.869l.548-1.185v-.079a1.516,1.516,0,0,0-.274-2.054,2.256,2.256,0,0,1-.549-.79c-.183-.474-.183-.553.183-1.422h0c.091-.237.183-.395.274-.632a6.318,6.318,0,0,0,.64-2.054,10.992,10.992,0,0,0-.823-2.37" transform="translate(-1100.925 -389.853)" fill="#fcb415" fill-rule="evenodd"/>
        <path id="XMLID_11_" d="M1124.186,410.312a9.787,9.787,0,0,0-1.554-1.975l-.183-.237H1118.7v56.48h11.795l.183-.237a18.528,18.528,0,0,0,4.3-11.3,63.235,63.235,0,0,0-.732-11.928v-.158a13.2,13.2,0,0,0-.914-2.212,21.162,21.162,0,0,0-1.1-2.133v-.079h0a13,13,0,0,0-4.3-3.713l-.091-.079h0a20,20,0,0,1-2.377-1.264,3.1,3.1,0,0,1-1.006-1.422,4.71,4.71,0,0,1-.366-2.212,6.445,6.445,0,0,1,.64-2.449,1.762,1.762,0,0,0,.183-.948,3.479,3.479,0,0,0-.274-1.027,2.713,2.713,0,0,0-.731-.948c-.092-.079-.092-.079,0-.632a1.845,1.845,0,0,1,.274-.869l.549-1.185v-.079a1.516,1.516,0,0,0-.274-2.054,2.255,2.255,0,0,1-.548-.79c-.183-.474-.183-.553.183-1.422h0c.091-.237.183-.395.274-.632a6.318,6.318,0,0,0,.64-2.054,10.4,10.4,0,0,0-.823-2.449" transform="translate(-1102.449 -389.853)" fill="#e19826" fill-rule="evenodd"/>
        <path id="XMLID_10_" d="M1111.951,446h11.886a2.493,2.493,0,0,1,2.652,2.291v15.878a2.493,2.493,0,0,1-2.652,2.291h-11.886a2.493,2.493,0,0,1-2.652-2.291V448.291a2.493,2.493,0,0,1,2.652-2.291" transform="translate(-1101.643 -397.814)" fill="#fff" fill-rule="evenodd"/>
        <path id="XMLID_9_" d="M1118.6,446h6.034a2.493,2.493,0,0,1,2.652,2.291v15.878a2.493,2.493,0,0,1-2.652,2.291H1118.6Z" transform="translate(-1102.44 -397.814)" fill="#dbdddc" fill-rule="evenodd"/>
      </g>
      <path id="XMLID_3_" d="M993.5,479.6h307.84v7.109H993.5Z" transform="translate(-85.157 -100.75)" fill="#fff" fill-rule="evenodd"/>
      <path id="XMLID_61_" d="M1307.076,434.195c-5.212-14.614-22.674-23.856-24.594-34.6a13.321,13.321,0,0,1-.183-1.9h-12.343c-3.017,18.721-7.314,52.372-2.743,64.774h39.954A43.009,43.009,0,0,0,1307.076,434.195ZM1299.03,449.2c-5.212,1.027-10.057-3.792-9.966-22.671,0-2.844,4.206-4.029,6.126-1.738a42.782,42.782,0,0,1,8.96,16.983A6.15,6.15,0,0,1,1299.03,449.2Z" transform="translate(-108.447 -83.545)" fill="#f27fa8" fill-rule="evenodd"/>
      <path id="XMLID_63_" d="M1308.06,434.7c-5.211-14.614-22.674-23.856-24.594-34.6H1276.7s8.686,13.982,9.6,36.89,0,25.91,0,25.91h21.76A41.645,41.645,0,0,0,1308.06,434.7Zm-8.046,15.009c-5.211,1.027-10.057-3.792-9.966-22.671,0-2.844,4.206-4.029,6.126-1.738a42.782,42.782,0,0,1,8.96,16.983A6.15,6.15,0,0,1,1300.014,449.708Z" transform="translate(-109.431 -84.05)" fill="#f16f9d" fill-rule="evenodd"/>
      <path id="XMLID_1_" d="M1267.7,395.3h16.457v3.792H1267.7Z" transform="translate(-108.66 -83.041)" fill="#e55ea2" fill-rule="evenodd"/>
      <path id="XMLID_47_" d="M1269.7,377.6h12.983v13.982H1269.7Z" transform="translate(-108.832 -79.323)" fill="#e55ea2" fill-rule="evenodd"/>
      <path id="XMLID_46_" d="M1271.2,436.4h16.64v25.91H1271.2Z" transform="translate(-108.96 -91.675)" fill="#e55ea2" fill-rule="evenodd"/>
      <path id="XMLID_49_" d="M1276.8,377.6h6.491v13.982H1276.8Z" transform="translate(-109.44 -79.323)" fill="#ce4b97" fill-rule="evenodd"/>
      <path id="XMLID_50_" d="M1276.7,395.3h8.229v3.792H1276.7Z" transform="translate(-109.431 -83.041)" fill="#ce4b97" fill-rule="evenodd"/>
      <path id="XMLID_68_" d="M1237.957,428.3v36.89a4.032,4.032,0,0,1-4.3,3.713H1174.6a4.032,4.032,0,0,1-4.3-3.713V428.3Z" transform="translate(-100.311 -89.974)" fill="#fff" fill-rule="evenodd"/>
      <path id="XMLID_66_" d="M1170.3,428.3h67.657v16.825H1170.3Z" transform="translate(-100.311 -89.974)" fill="#e2e1e1" fill-rule="evenodd"/>
      <path id="XMLID_53_" d="M1244.817,430.677H1161.8v-2.054c0-2.449,2.286-4.424,5.12-4.424h72.686c2.834,0,5.12,1.975,5.12,4.424v2.054Z" transform="translate(-99.583 -89.112)" fill="#e55ea2" fill-rule="evenodd"/>
      <path id="XMLID_55_" d="M1078.186,406.8v57.507H1066.3V420.545s5.943-6.951,5.943-13.666C1076.631,406.8,1078.186,406.8,1078.186,406.8Z" transform="translate(-91.397 -85.457)" fill="#b77bb5" fill-rule="evenodd"/>
      <path id="XMLID_56_" d="M1079.3,406.8v57.507h11.886V420.545s-5.943-6.951-5.943-13.666C1080.946,406.8,1079.3,406.8,1079.3,406.8Z" transform="translate(-92.511 -85.457)" fill="#a860a6" fill-rule="evenodd"/>
      <path id="XMLID_54_" d="M1071.3,403.4h14.628v5.451H1071.3Z" transform="translate(-91.826 -84.743)" fill="#735ea2" fill-rule="evenodd"/>
      <path id="XMLID_80_" d="M999.4,177.2h319.177V289.686H999.4Z" transform="translate(-85.663 -37.225)" fill="none" fill-rule="evenodd"/>
      <text id="XMLID_924_" transform="translate(903.741 184.505)" fill="#fff" font-size="11" font-family="Helvetica"><tspan x="0" y="0">Lorem ipsum dolor sit amet, consectetur adipiscing </tspan><tspan x="0" y="13">elit. Sed nisl felis, tristique nec velit accumsan, </tspan><tspan x="0" y="26">interdum cursus lorem. Sed suscipit ultrices gravida. </tspan><tspan x="0" y="39">Suspendisse potenti. Vestibulum a est vel mi </tspan><tspan x="0" y="52">aliquam suscipit non id ipsum.</tspan></text>
    </g>
  </g>
</svg>
