<?xml version="1.0" encoding="iso-8859-1"?>
<!-- Generator: Adobe Illustrator 19.0.0, SVG Export Plug-In . SVG Version: 6.00 Build 0)  -->
<svg version="1.1" id="Capa_1" xmlns="http://www.w3.org/2000/svg" xmlns:xlink="http://www.w3.org/1999/xlink" x="0px" y="0px"
	 viewBox="0 0 512.002 512.002" style="enable-background:new 0 0 512.002 512.002;" xml:space="preserve">
<circle style="fill:#9DB55F;" cx="52.5" cy="117.5" r="25"/>
<path style="fill:#FFB4A9;" d="M136.756,68.335c0.01-0.01-34.255-0.005-34.255-0.005v74.17c24.85,0,45-20.15,45-45
	C147.501,86.38,143.456,76.185,136.756,68.335z"/>
<path style="fill:#FFD9D4;" d="M116.391,80.51L68.246,68.335c-6.7,7.85-10.745,18.045-10.745,29.165c0,24.85,20.15,45,45,45
	c8.28,0,15-20.15,15-45C117.501,91.49,117.111,85.75,116.391,80.51z"/>
<path style="fill:#869E47;" d="M102.501,52.5l13.89,28.01c7.45-2.23,14.475-6.295,20.365-12.175
	C128.506,58.645,116.221,52.5,102.501,52.5z"/>
<path style="fill:#9DB55F;" d="M102.501,52.5c-13.72,0-26.005,6.145-34.255,15.835c13.04,13.04,31.645,17.105,48.145,12.175
	C114.161,64.08,108.781,52.5,102.501,52.5z"/>
<path style="fill:#116F97;" d="M102.47,52.5c24.853,0,45-20.147,45-45C122.617,7.5,102.47,27.647,102.47,52.5z"/>
<path style="fill:#1990C2;" d="M57.47,7.5c0,24.853,20.147,45,45,45C102.47,27.647,82.323,7.5,57.47,7.5z"/>
<path style="fill:#696969;" d="M237.501,192.5c0-28.892-12.738-53.132-30-60l-10,45l10,45h30V192.5z"/>
<path style="fill:#999999;" d="M177.501,192.5v30h30v-90C190.239,139.368,177.501,163.608,177.501,192.5z"/>
<path style="fill:#1990C2;" d="M127.501,172.5h-10l-20,105l50-30v-55C147.501,181.454,138.547,172.5,127.501,172.5z"/>
<path style="fill:#2DADE3;" d="M77.501,172.5c-11.046,0-20,8.954-20,20v55l60,30v-105H77.501z"/>
<path style="fill:#7DD9FF;" d="M147.501,232.5c-16.57,0-30-13.43-30-30l-30,93.5l30,56.5h30V232.5z"/>
<path style="fill:#A8E5FF;" d="M87.501,202.5c0,16.57-13.43,30-30,30v30c-9.329,10.575-15,24.454-15,39.665V352.5h75v-150H87.501z"
	/>
<path style="fill:#49C9FF;" d="M489.501,252.5h-30v30h30c8.284,0,15-6.716,15-15S497.785,252.5,489.501,252.5z"/>
<path style="fill:#7DD9FF;" d="M474.501,267.5c0-8.284-6.716-15-15-15h-267c-8.284,0-15,6.716-15,15s6.716,15,15,15h267
	C467.785,282.5,474.501,275.784,474.501,267.5z"/>
<path d="M52.501,150c-17.921,0-32.5-14.58-32.5-32.5S34.58,85,52.501,85c2.215,0,4.499,0.248,6.789,0.737
	c4.051,0.866,6.633,4.851,5.767,8.901c-0.864,4.051-4.852,6.632-8.901,5.768c-1.279-0.273-2.475-0.406-3.654-0.406
	c-9.649,0-17.5,7.851-17.5,17.5s7.851,17.5,17.5,17.5c5.769,0,11.167-2.86,14.441-7.652c2.339-3.42,7.006-4.297,10.424-1.961
	c3.42,2.337,4.298,7.004,1.961,10.424C73.256,144.696,63.228,150,52.501,150z"/>
<path d="M102.501,89.999c-14.325,0-28.651-5.453-39.558-16.359c-2.929-2.929,7.678-13.535,10.607-10.606
	c15.963,15.963,41.938,15.963,57.9,0c2.93-2.929,13.536,7.678,10.607,10.606C131.152,84.546,116.826,89.999,102.501,89.999z"/>
<path d="M102.501,150c-28.948,0-52.5-23.551-52.5-52.5S73.553,45,102.501,45s52.5,23.551,52.5,52.5S131.449,150,102.501,150z
	 M102.501,60c-20.678,0-37.5,16.822-37.5,37.5s16.822,37.5,37.5,37.5s37.5-16.822,37.5-37.5S123.179,60,102.501,60z"/>
<path d="M102.489,60C73.521,60,49.97,36.449,49.97,7.5c0-4.142,3.357-7.5,7.5-7.5c19.073,0,35.805,10.226,45,25.481
	C111.665,10.226,128.396,0,147.47,0c4.143,0,7.5,3.358,7.5,7.5C154.97,36.438,131.437,59.983,102.489,60z M139.007,15.963
	c-13.896,3.217-24.857,14.179-28.074,28.074C124.828,40.82,135.79,29.858,139.007,15.963z M65.933,15.963
	C69.15,29.859,80.112,40.82,94.007,44.037C90.79,30.142,79.828,19.18,65.933,15.963z"/>
<path d="M177.501,200h-30c-4.143,0-7.5-3.358-7.5-7.5s3.357-7.5,7.5-7.5h30c4.143,0,7.5,3.358,7.5,7.5S181.644,200,177.501,200z"/>
<path d="M252.501,230h-75c-4.143,0-7.5-3.358-7.5-7.5v-30c0-31.294,14.28-58.833,34.728-66.969c1.779-0.708,3.764-0.708,5.545,0
	c18.796,7.478,32.381,31.352,34.452,59.469h7.775c12.406,0,22.5,10.093,22.5,22.5S264.907,230,252.501,230z M245.001,215h7.5
	c4.136,0,7.5-3.364,7.5-7.5s-3.364-7.5-7.5-7.5h-7.5V215z M185.001,215h45v-22.5c0-23.302-9.306-44.327-22.5-51.707
	c-13.194,7.38-22.5,28.406-22.5,51.707V215z"/>
<path d="M43.634,298.022c-0.688,0-1.387-0.095-2.08-0.295c-24.466-7.05-41.553-29.772-41.553-55.257c0-31.706,25.794-57.5,57.5-57.5
	c4.143,0,7.5,3.358,7.5,7.5s-3.357,7.5-7.5,7.5c-23.435,0-42.5,19.065-42.5,42.5c0,18.839,12.627,35.634,30.705,40.844
	c3.98,1.146,6.277,5.303,5.131,9.283C49.89,295.884,46.891,298.022,43.634,298.022z"/>
<path d="M117.501,210h-30c-4.143,0-7.5-3.358-7.5-7.5s3.357-7.5,7.5-7.5h30c4.143,0,7.5,3.358,7.5,7.5S121.644,210,117.501,210z"/>
<path d="M147.501,360h-105c-4.143,0-7.5-3.358-7.5-7.5v-50.335c0-15.471,5.307-30.417,15-42.406V192.5
	c0-15.164,12.337-27.5,27.5-27.5h50c15.163,0,27.5,12.336,27.5,27.5v160C155.001,356.642,151.644,360,147.501,360z M50.001,345h90
	V192.5c0-6.893-5.607-12.5-12.5-12.5h-50c-6.893,0-12.5,5.607-12.5,12.5v70c0,1.827-0.667,3.591-1.876,4.961
	c-8.463,9.594-13.124,21.919-13.124,34.704C50.001,302.165,50.001,345,50.001,345z"/>
<path d="M57.501,240c-4.143,0-7.5-3.358-7.5-7.5s3.357-7.5,7.5-7.5c12.406,0,22.5-10.093,22.5-22.5v-30c0-4.142,3.357-7.5,7.5-7.5
	c4.143,0,7.5,3.358,7.5,7.5v30C95.001,223.178,78.179,240,57.501,240z"/>
<path d="M147.501,240c-20.678,0-37.5-16.822-37.5-37.5v-30c0-4.142,3.357-7.5,7.5-7.5c4.143,0,7.5,3.358,7.5,7.5v30
	c0,12.407,10.094,22.5,22.5,22.5c4.143,0,7.5,3.358,7.5,7.5S151.644,240,147.501,240z"/>
<path d="M162.502,512.002c-0.786,0-1.586-0.125-2.373-0.387l-30-10c-3.062-1.021-5.128-3.887-5.128-7.115v-142
	c0-4.142,3.357-7.5,7.5-7.5s7.5,3.358,7.5,7.5v136.595l24.872,8.291c3.929,1.31,6.053,5.557,4.743,9.487
	C168.568,510.014,165.643,512.002,162.502,512.002z"/>
<path d="M102.502,512.002c-0.786,0-1.586-0.125-2.373-0.387l-30-10c-3.062-1.021-5.128-3.887-5.128-7.115v-142
	c0-4.142,3.357-7.5,7.5-7.5c4.143,0,7.5,3.358,7.5,7.5v136.595l24.872,8.291c3.929,1.31,6.053,5.557,4.743,9.487
	C108.568,510.014,105.643,512.002,102.502,512.002z"/>
<path d="M452.001,512c-1.919,0-3.839-0.732-5.304-2.197l-222-222c-2.929-2.929-2.929-7.678,0-10.606
	c2.93-2.929,7.678-2.929,10.607,0l222,222c2.929,2.929,2.929,7.678,0,10.606C455.84,511.268,453.92,512,452.001,512z"/>
<path d="M230.001,512c-1.919,0-3.839-0.732-5.304-2.197c-2.929-2.929-2.929-7.678,0-10.606l222-222c2.93-2.929,7.678-2.929,10.607,0
	s2.929,7.678,0,10.606l-222,222C233.84,511.268,231.92,512,230.001,512z"/>
<path d="M489.501,290h-297c-12.406,0-22.5-10.093-22.5-22.5s10.094-22.5,22.5-22.5h297c12.406,0,22.5,10.093,22.5,22.5
	C512.001,279.907,501.907,290,489.501,290z M192.501,260c-4.136,0-7.5,3.364-7.5,7.5s3.364,7.5,7.5,7.5h297
	c4.136,0,7.5-3.364,7.5-7.5s-3.364-7.5-7.5-7.5H192.501z"/>
<g>
</g>
<g>
</g>
<g>
</g>
<g>
</g>
<g>
</g>
<g>
</g>
<g>
</g>
<g>
</g>
<g>
</g>
<g>
</g>
<g>
</g>
<g>
</g>
<g>
</g>
<g>
</g>
<g>
</g>
</svg>
