<svg xmlns="http://www.w3.org/2000/svg" xmlns:xlink="http://www.w3.org/1999/xlink" width="684.624" height="651.83" viewBox="0 0 684.624 651.83">
  <defs>
    <clipPath id="clip-path">
      <path id="Path_2" data-name="Path 2" d="M6.151,792l437.687,10s131.781,100.178,125.721,247.314-31.237,114.292-111.252,175.709,3.163,201.531-110.875,207.1c-38.659,1.89-118.9-55.9-170.579-58.862-99.989-5.74-170.7,39.576-170.7,39.576H-103.793V802Z" transform="matrix(1, -0.017, 0.017, 1, -32.373, 4.236)" fill="#e2e2e9"/>
    </clipPath>
    <clipPath id="clip-path-2">
      <path id="Path_4" data-name="Path 4" d="M376.739,198.15a.8.8,0,0,0,0,1.516c26.456,15.355,65.577,38.241,92.033,53.6a17.746,17.746,0,0,0,4.548,1.467c9.145,1.76,18.289,3.472,27.385,5.232,1.174.245,3.668-.538,5.77-1.76s3.472-2.69,3.081-3.374c-2.983-5.281-5.966-10.612-8.949-15.893a8.491,8.491,0,0,0-2.494-2.641c-26.456-15.355-65.577-38.241-92.033-53.6a2.806,2.806,0,0,0-2.641,0c-4.352,2.543-8.7,5.037-13.106,7.58-.2.1-.342.2-.538.293C385.443,193.113,381.091,195.607,376.739,198.15Z" transform="translate(-376.189 -182.367)"/>
    </clipPath>
  </defs>
  <g id="Mask_Group_1" data-name="Mask Group 1" transform="translate(122.328 -786.171)" clip-path="url(#clip-path)">
    <g id="Untitled_1_" data-name="Untitled (1)" transform="translate(-59.328 880.585)">
      <path id="XMLID_213_" d="M0,0H684.624V700.658H0Z" transform="translate(0 -108.625)" fill="#e2e2e9"/>
      <g id="XMLID_214_" transform="translate(104.851 -35.548)">
        <path id="XMLID_138_" d="M159.713,321.578,341.774,426.57,523.591,321.578,341.774,216.586Z" transform="translate(-147.439 -37.165)" fill="#fae7b5" fill-rule="evenodd"/>
        <path id="XMLID_16_" d="M342.459,442.071l-184.946-106.7V320.4L342.459,427.059Z" transform="translate(-147.439 -37.165)" fill="#cfc5d5" fill-rule="evenodd"/>
        <path id="XMLID_15_" d="M342.459,442.071l182.7-105.53V321.578l-182.7,105.481Z" transform="translate(-147.439 -37.165)" fill="#e1d4d1" fill-rule="evenodd"/>
        <path id="XMLID_14_" d="M342.41,52.08V37.165L537.185,148.612l-12.959,7.433Z" transform="translate(-147.439 -37.165)" fill="#f4f3ef" fill-rule="evenodd"/>
        <path id="XMLID_13_" d="M342.41,218.933V52.031L524.226,156.045v166.07Z" transform="translate(-147.439 -37.165)" fill="#5aa4cc" fill-rule="evenodd"/>
        <path id="XMLID_12_" d="M160.4,337.079,147.439,329.6V148.368L160.4,155.9Z" transform="translate(-147.439 -37.165)" fill="#cfc5d5" fill-rule="evenodd"/>
        <path id="XMLID_11_" d="M342.41,52.08V37.165L147.439,148.612l12.959,7.433Z" transform="translate(-147.439 -37.165)" fill="#fff" fill-rule="evenodd"/>
        <path id="XMLID_7_" d="M342.361,218.884V51.983L160.4,156v166.07Z" transform="translate(-147.439 -37.165)" fill="#5aa4cc" fill-rule="evenodd"/>
        <path id="XMLID_6_" d="M524.226,337.079l12.959-7.482V148.612l-12.959,7.433Z" transform="translate(-147.439 -37.165)" fill="#e1d4d1" fill-rule="evenodd"/>
        <path id="XMLID_5_" d="M160.4,322.067,342.41,218.884V202.306L160.4,305.489Z" transform="translate(-147.439 -37.165)" fill="#f8a22c" fill-rule="evenodd"/>
        <path id="XMLID_4_" d="M524.226,322.116,342.361,218.933V202.306L524.226,305.489Z" transform="translate(-147.439 -37.165)" fill="#f8ba2c" fill-rule="evenodd"/>
        <g id="XMLID_30_" transform="translate(49.586 141.913)">
          <path id="XMLID_36_" d="M306.125,220.791l-.2,72.766-60.394,35.111.2-72.815h.049Z" transform="translate(-197.025 -179.078)" fill="#ededee"/>
          <path id="XMLID_24_" d="M197.269,214.189l60.394-35.111,46.114,26.5-58,36.627Z" transform="translate(-197.025 -179.078)" fill="#fff"/>
          <path id="XMLID_40_" d="M303.777,205.583l2.347,15.16v.049L245.78,255.854h-.049l-2.347-15.16Z" transform="translate(-197.025 -179.078)" fill="#f5f5f6"/>
          <path id="XMLID_20_" d="M243.384,240.694l2.347,15.16-.2,72.815-48.51-28.021.245-86.458Z" transform="translate(-197.025 -179.078)" fill="#d9dbdc"/>
          <g id="XMLID_3_" transform="translate(59.464 65.846)">
            <g id="XMLID_18_">
              <path id="XMLID_22_" d="M275.806,247.589c-10.71,6.162-19.316,21.126-19.316,33.449.049,12.274,8.753,17.262,19.414,11.052,6.357-3.668,11.981-10.465,15.5-17.947a37.277,37.277,0,0,0,3.814-15.5c0-4.988-1.467-8.753-3.863-11.1-3.521-3.374-9.194-3.619-15.551.049" transform="translate(-256.489 -244.924)" fill="#dfe0e1"/>
            </g>
            <g id="XMLID_23_" transform="translate(2.69 0.703)">
              <path id="XMLID_32_" d="M278.5,248.274c-10.709,6.162-19.316,21.126-19.316,33.449s8.753,17.262,19.414,11.052c6.357-3.668,11.981-10.465,15.5-17.947a37.277,37.277,0,0,0,3.814-15.5c0-4.988-1.467-8.753-3.863-11.1-3.521-3.325-9.194-3.619-15.551.049" transform="translate(-259.179 -245.626)" fill="#fff"/>
            </g>
            <g id="XMLID_19_" transform="translate(9.976 8.807)">
              <path id="XMLID_34_" d="M292.579,262.993c0,8.264-5.819,18.387-13.008,22.544-4.792,2.738-8.949,2.2-11.247-.88a10.916,10.916,0,0,1-1.858-6.6c0-8.264,5.819-18.387,13.008-22.544,3.912-2.249,7.433-2.3,9.829-.538C291.307,256.441,292.53,259.228,292.579,262.993Z" transform="translate(-266.465 -253.731)" fill="#4b4f62"/>
            </g>
            <g id="XMLID_8_" transform="translate(9.976 8.807)">
              <path id="XMLID_28_" d="M291.161,261.575c0,8.264-5.819,18.387-13.008,22.544-3.912,2.249-7.433,2.3-9.829.538a10.916,10.916,0,0,1-1.858-6.6c0-8.264,5.819-18.387,13.008-22.544,3.912-2.249,7.433-2.3,9.829-.538A10.916,10.916,0,0,1,291.161,261.575Z" transform="translate(-266.465 -253.731)" fill="#3d4153"/>
            </g>
            <path id="XMLID_25_" d="M295.073,249.594l.147-.685-1.565-.978a30.62,30.62,0,0,0-4.988,7.775,24.688,24.688,0,0,0-2.249,9.731,10.349,10.349,0,0,0,2.3,7.091,6.356,6.356,0,0,0,4.988,2,37.277,37.277,0,0,0,3.814-15.5A16.627,16.627,0,0,0,295.073,249.594Z" transform="translate(-256.489 -244.924)" fill="#eaebec"/>
            <g id="XMLID_9_" transform="translate(31.493 3.986)">
              <path id="XMLID_21_" d="M295.22,248.91c2.4,2.3,3.863,6.113,3.863,11.1a37.278,37.278,0,0,1-3.814,15.5,6.357,6.357,0,0,1-4.988-2c-1.467-1.565-2.3-3.961-2.3-7.091a24.689,24.689,0,0,1,2.249-9.731,32.436,32.436,0,0,1,4.988-7.775Z" transform="translate(-287.982 -248.91)" fill="#fff"/>
            </g>
          </g>
          <g id="XMLID_29_" transform="translate(92.145 35.126)">
            <path id="XMLID_10_" d="M5.282,4.4c0,2.431-1.182,4.4-2.641,4.4S0,6.832,0,4.4,1.182,0,2.641,0,5.282,1.971,5.282,4.4Z" transform="translate(0 1.628) rotate(-10.894)" fill="#d9dbdc"/>
            <path id="XMLID_26_" d="M291.307,215.461l2.592-.734,1.663,8.656-2.152.587S290.036,218.346,291.307,215.461Z" transform="translate(-289.17 -214.204)" fill="#d9dbdc"/>
            <path id="XMLID_27_" d="M5.282,4.4c0,2.431-1.182,4.4-2.641,4.4S0,6.832,0,4.4,1.182,0,2.641,0,5.282,1.971,5.282,4.4Z" transform="translate(2.148 0.998) rotate(-10.894)" fill="#fff"/>
          </g>
          <g id="XMLID_44_" transform="translate(53.736 53.981)">
            <path id="XMLID_31_" d="M252.773,247.443a1.737,1.737,0,0,1-.489-.1,1.128,1.128,0,0,1-.636-.831l-.88-5.477a1.166,1.166,0,0,1,.538-1.125l11.492-6.7a1.088,1.088,0,0,1,1.027-.049,1.128,1.128,0,0,1,.636.831l.831,5.477a1.166,1.166,0,0,1-.538,1.125l-11.443,6.7A1.275,1.275,0,0,1,252.773,247.443Zm-.88-.978a.832.832,0,0,0,.489.636.849.849,0,0,0,.831-.049l11.492-6.7a.938.938,0,0,0,.44-.88l-.831-5.477a.832.832,0,0,0-.489-.636.849.849,0,0,0-.831.049l-11.541,6.7a.938.938,0,0,0-.44.88Z" transform="translate(-250.761 -233.059)" fill="#dfe0e1"/>
          </g>
          <path id="XMLID_41_" d="M287.786,227.2v.049l-16.773,9.731v-.049L269.84,229.4l16.773-9.731Z" transform="translate(-197.025 -179.078)" fill="#f8a24e"/>
        </g>
        <g id="XMLID_98_" transform="translate(227.099 144.993)">
          <g id="XMLID_37_" transform="translate(30.145 4.534)">
            <path id="XMLID_43_" d="M411.459,239.618h0v0Z" transform="translate(-404.683 -186.693)" fill="#242424"/>
            <path id="XMLID_50_" d="M404.759,187.978a1.944,1.944,0,0,1,.782-1.076,1.824,1.824,0,0,1,1.858.1,3.4,3.4,0,0,1,1.223,1.271l33.547,58.1,32.911-18.729a.84.84,0,0,1,.88.1,2.319,2.319,0,0,1,.88.929c.489.831.489,1.76,0,2.054L443.93,249.448l33.5,58.046a3.447,3.447,0,0,1,.44,2.347,1.944,1.944,0,0,1-.782,1.076,1.607,1.607,0,0,1-.831.2,2.38,2.38,0,0,1-1.076-.293,3.4,3.4,0,0,1-1.223-1.271l-33.547-58.1L407.5,270.182a.84.84,0,0,1-.88-.1,2.319,2.319,0,0,1-.88-.929c-.489-.831-.489-1.76,0-2.054l32.911-18.729-33.5-58.046A3.448,3.448,0,0,1,404.759,187.978Z" transform="translate(-404.683 -186.693)" fill="#242424"/>
          </g>
          <path id="XMLID_52_" d="M384.416,200.595a1.944,1.944,0,0,1,.782-1.076,1.824,1.824,0,0,1,1.858.1,3.4,3.4,0,0,1,1.223,1.271l33.547,58.1,32.911-18.729a.84.84,0,0,1,.88.1,2.7,2.7,0,0,1,.88.929c.489.831.489,1.76,0,2.054l-32.911,18.729,33.5,58.046a3.447,3.447,0,0,1,.44,2.347,1.944,1.944,0,0,1-.782,1.076,1.607,1.607,0,0,1-.831.2,2.38,2.38,0,0,1-1.076-.293,3.4,3.4,0,0,1-1.223-1.271l-33.5-58.1L387.2,282.8a.84.84,0,0,1-.88-.1,2.319,2.319,0,0,1-.88-.929c-.489-.831-.489-1.76,0-2.054l32.911-18.729-33.5-58.046A3.045,3.045,0,0,1,384.416,200.595Z" transform="translate(-374.538 -182.159)" fill="#5e5e5e"/>
          <g id="XMLID_1_">
            <path id="XMLID_405_" d="M375.027,200.5v.1c0,.2.049.342.049.44v.049c0,.049.049.1.049.147v.049c0,.049,0,.049.049.1v.049h0c0,.049,0,.049.049.1h0a.151.151,0,0,1,.049.1v.147c.049.049.049.1.1.147a.048.048,0,0,0,.049.049c.049.049.049.1.1.147l.049.049.049.049.049.049.1.1h0c.049.049.1.049.1.1h0a1.023,1.023,0,0,0,.293.2h0l7.922,4.6,7.922,4.6,7.922,4.6,7.922,4.6,7.922,4.6,7.922,4.6,7.922,4.6L452.194,246.9l7.922,4.6c.391.2.782.44,1.174.685l.587.342c.147.1.342.2.489.293l.2.1.734.44.538.293c1.467.831,2.934,1.712,4.206,2.445h0c.147.1.293.147.44.245.245.1.538.245.929.391h.1c.049,0,.147.049.2.049h.049a.171.171,0,0,1,.1.049c.049,0,.1.049.147.049h.049c.049,0,.049,0,.1.049.049,0,.147.049.2.049s.1.049.147.049.147.049.2.049h.1c.1.049.2.049.293.1h0c.1.049.245.049.342.1h.1c.2.049.44.1.636.147h.1c.2.049.44.1.636.147h.049c5.037.978,10.025,1.907,15.062,2.885.1,0,.2.049.293.049.44.1.88.147,1.32.245l.88.147c.2.049.342.049.538.1a.18.18,0,0,1,.147.049c.342.049.734.147,1.076.2.147.049.293.049.44.1.245.049.489.1.782.147h.049c.1,0,.245.049.342.049,1.32.245,2.641.489,3.912.734.342.049.734.147,1.076.2a.18.18,0,0,1,.147.049,6.167,6.167,0,0,0,1.369.245h0a2.118,2.118,0,0,1,.245.049h.978c.1,0,.245-.049.342-.049h.342a.18.18,0,0,0,.147-.049h0c.049,0,.1,0,.1-.049h.049c.049,0,.147-.049.2-.049h.049a3.59,3.59,0,0,0,.391-.1,13.6,13.6,0,0,0,2-.734,2.9,2.9,0,0,0,.391-.2h0c.44-.2.831-.44,1.125-.587h0c.245-.147.685-.391,1.174-.734a.048.048,0,0,0,.049-.049c.049-.049.1-.049.147-.1s.1-.049.1-.1l.049-.049a8.749,8.749,0,0,0,1.32-1.223v-.049l.049-.049.1-.1v-.049c0-.049.049-.049.049-.1.049-.049.049-.1.1-.1a.254.254,0,0,0,.1-.2.048.048,0,0,1,.049-.049,1.066,1.066,0,0,1,.147-.245h0a.827.827,0,0,0,.1-.245v-.049h0v-.049c0-.049.049-.147.049-.2s.049-.1.049-.147v-.1a1.664,1.664,0,0,0,.049-.489v-.293h0V256.2h0a1.077,1.077,0,0,0-.049-.391c0-.049-.049-.147-.049-.2h0a.374.374,0,0,0-.1-.245c0-.049-.049-.049-.049-.1s-.049-.049-.049-.1h0c-2.983-5.281-5.966-10.612-8.949-15.893h0a1.155,1.155,0,0,0-.293-.44l-.049-.049c-.049-.049-.049-.1-.1-.147,0-.049-.049-.049-.049-.1-.049-.049-.049-.1-.1-.147s-.049-.1-.1-.147-.049-.1-.1-.147-.1-.1-.1-.147c-.049-.049-.1-.1-.1-.147l-.147-.147-.2-.2c0-.049-.049-.049-.049-.1h0a1.067,1.067,0,0,1-.2-.245c-.049-.049-.1-.1-.147-.1l-.049-.049h0c-.049,0-.049-.049-.1-.049-.049-.049-.1-.1-.147-.1l-.1-.1c-.049-.049-.1-.049-.1-.1-.049-.049-.1-.049-.147-.1l-.049-.049c-.049-.049-.1-.1-.147-.1h0c-.1-.049-.147-.1-.245-.147-.049-.049-.1-.049-.147-.1h0c-26.456-15.355-65.577-38.241-92.033-53.6h0c-.1-.049-.147-.1-.245-.1h0c-.049-.049-.147-.049-.245-.1h0a2.117,2.117,0,0,0-.245-.049h-.049c-.049,0-.1,0-.1-.049-.049,0-.245-.049-.489-.1h-1.076a1.729,1.729,0,0,0-.293.049c-.049,0-.049,0-.1.049h-.1c-.1,0-.147.049-.2.049h0c-.1.049-.147.049-.245.1h0c-.1.049-.147.1-.245.1h0l-1.32.734-1.32.734-1.32.734-1.32.734-1.32.734-1.32.734-1.32.734-1.32.734-1.32.734-.636.391a7.236,7.236,0,0,0-.636.391c-.2.1-.342.2-.538.293l-1.32.734-1.32.734-1.32.734-1.32.734-1.32.734-1.32.734-1.32.734-1.32.734-1.32.734-1.32.734h0c-.147.1-.293.2-.489.342h0l-.049.049-.2.2h0a.675.675,0,0,1-.147.2.048.048,0,0,1-.049.049h0v.049h0v.049c0,.049-.049.049-.049.1v.049h0c0,.049-.049.049-.049.1v.049c0,.049-.049.1-.049.147s-.049.147-.049.2h0v.44h0C375.027,200.252,375.027,200.4,375.027,200.5Zm31.639-17.7Z" transform="translate(-374.538 -182.159)" fill="#f6ad1a"/>
            <g id="XMLID_467_" transform="translate(1.651 0.208)">
              <path id="Path_3" data-name="Path 3" d="M376.739,198.15a.8.8,0,0,0,0,1.516c26.456,15.355,65.577,38.241,92.033,53.6a17.746,17.746,0,0,0,4.548,1.467c9.145,1.76,18.289,3.472,27.385,5.232,1.174.245,3.668-.538,5.77-1.76s3.472-2.69,3.081-3.374c-2.983-5.281-5.966-10.612-8.949-15.893a8.491,8.491,0,0,0-2.494-2.641c-26.456-15.355-65.577-38.241-92.033-53.6a2.806,2.806,0,0,0-2.641,0c-4.352,2.543-8.7,5.037-13.106,7.58-.2.1-.342.2-.538.293C385.443,193.113,381.091,195.607,376.739,198.15Z" transform="translate(-376.189 -182.367)" fill="#fcd600"/>
              <g id="Group_6" data-name="Group 6" clip-path="url(#clip-path-2)">
                <path id="XMLID_468_" d="M376.739,198.15a.8.8,0,0,0,0,1.516c26.456,15.355,65.577,38.241,92.033,53.6a17.746,17.746,0,0,0,4.548,1.467c9.145,1.76,18.289,3.472,27.385,5.232,1.174.245,3.668-.538,5.77-1.76s3.472-2.69,3.081-3.374c-2.983-5.281-5.966-10.612-8.949-15.893a8.491,8.491,0,0,0-2.494-2.641c-26.456-15.355-65.577-38.241-92.033-53.6a2.806,2.806,0,0,0-2.641,0c-4.352,2.543-8.7,5.037-13.106,7.58-.2.1-.342.2-.538.293C385.443,193.113,381.091,195.607,376.739,198.15Z" transform="translate(-376.189 -182.367)" fill="#fcd600"/>
              </g>
            </g>
          </g>
        </g>
        <g id="XMLID_48_" transform="translate(250.377 142.255)">
          <path id="XMLID_69_" d="M408.28,187.831a9.913,9.913,0,0,0,7.14,4.743,10.809,10.809,0,0,0-7.14-4.743M431.8,205.974l-.88.636s-16.871.2-26.6-4.548c0,0-5.819-3.814-6.5-6.846l1.76-3.619a21.556,21.556,0,0,0,2.4-4.548c.44-1.663,1.467-3.668,6.308-3.668,4.792,0,9.389,3.081,13.839,9.291S431.8,205.974,431.8,205.974Z" transform="translate(-397.815 -179.42)" fill="#9b9b9b" fill-rule="evenodd"/>
          <path id="XMLID_68_" d="M403.439,183.528l-2.054-3.472s.1-.636,1.027-.636l2.445,3.374a2.123,2.123,0,0,1-1.418.734" transform="translate(-397.815 -179.42)" fill="#e3e3e3" fill-rule="evenodd"/>
          <path id="XMLID_65_" d="M408.28,186.8a9.913,9.913,0,0,0,7.14,4.743,10.809,10.809,0,0,0-7.14-4.743M431.8,204.947l-.88.636s-16.871.2-26.6-4.548c0,0-5.819-3.814-6.5-6.846l1.76-3.619a21.555,21.555,0,0,0,2.4-4.548c.44-1.663,1.467-3.668,6.308-3.668,4.792,0,9.389,3.081,13.839,9.291S431.8,204.947,431.8,204.947Z" transform="translate(-397.815 -179.42)" fill="#eeeded" fill-rule="evenodd"/>
          <path id="XMLID_62_" d="M408.28,186.8a9.913,9.913,0,0,0,7.14,4.743,10.809,10.809,0,0,0-7.14-4.743m20.343,13.79c.44.636.88,1.223,1.271,1.76a1.008,1.008,0,0,1-1.027.587c-.88,0-13.106-.2-21.419-3.717-8.313-3.472-9-6.357-9-6.357l1.125-2.347a1.26,1.26,0,0,0,1.858.1c.929-.978,1.565-4.45,4.695-5.086,3.179-.636,6.553,1.418,9.145,4.01,3.472,3.472,7.237,9.78,9.78,11.1S428.623,200.595,428.623,200.595Z" transform="translate(-397.815 -179.42)" fill="#b9a571" fill-rule="evenodd"/>
          <path id="XMLID_59_" d="M408.28,186.8a9.913,9.913,0,0,0,7.14,4.743,10.809,10.809,0,0,0-7.14-4.743m7.482,7.14c-.88.929-4.695,2.1-8.949-.685-4.3-2.738-2.445-5.819-1.418-6.5,1.223-.734,4.695-.929,8.167,2.1C416.545,191.548,416.642,193.064,415.762,193.944Z" transform="translate(-397.815 -179.42)" fill="#817448" fill-rule="evenodd"/>
          <path id="XMLID_58_" d="M415.616,192.819c0,.538-1.174,1.027-2.641,1.027-1.418,0-2.641-.44-2.641-1.027v-.489h5.232v.489Z" transform="translate(-397.815 -179.42)" fill="#c7c7c7" fill-rule="evenodd"/>
          <path id="XMLID_57_" d="M415.616,192.379c0-.538-1.174-1.027-2.641-1.027s-2.641.44-2.641,1.027c0,.538,1.174,1.027,2.641,1.027s2.641-.44,2.641-1.027" transform="translate(-397.815 -179.42)" fill="#e3e3e3" fill-rule="evenodd"/>
          <path id="XMLID_56_" d="M418.6,190.032l-.391.1v.489l3.814,2.787,1.418.147-.147-.831-1.174-1.712-.587-1.223Z" transform="translate(-397.815 -179.42)" fill="#9b9b9b" fill-rule="evenodd"/>
          <path id="XMLID_55_" d="M418.745,189.592v.44l2.641,1.516v-1.809Z" transform="translate(-397.815 -179.42)" fill="#c7c7c7" fill-rule="evenodd"/>
          <path id="XMLID_54_" d="M421.386,189.739l.782-.391-.049,1.663-.734.538Z" transform="translate(-397.815 -179.42)" fill="#eeeded" fill-rule="evenodd"/>
          <path id="XMLID_49_" d="M418.745,189.592l.782-.147,2.641-.1-.782.391Z" transform="translate(-397.815 -179.42)" fill="#d6d6d6" fill-rule="evenodd"/>
        </g>
        <g id="XMLID_83_" transform="translate(138.979 252.969)">
          <path id="XMLID_93_" d="M286.417,343.143h4.89V380.8l-4.89-2.885Z" transform="translate(-286.417 -290.134)" fill="#cea163" fill-rule="evenodd"/>
          <path id="XMLID_92_" d="M296.149,344.072h-4.89V380.8l4.89-2.885Z" transform="translate(-286.417 -290.134)" fill="#d5b07c" fill-rule="evenodd"/>
          <path id="XMLID_91_" d="M329.451,368.328h4.841v37.7l-4.841-2.885Z" transform="translate(-286.417 -290.134)" fill="#cea163" fill-rule="evenodd"/>
          <path id="XMLID_90_" d="M339.133,369.257h-4.89v36.774l4.89-2.885Z" transform="translate(-286.417 -290.134)" fill="#d5b07c" fill-rule="evenodd"/>
          <path id="XMLID_89_" d="M403.635,331.016h4.841v31.053l-4.841-2.885Z" transform="translate(-286.417 -290.134)" fill="#cea163" fill-rule="evenodd"/>
          <path id="XMLID_88_" d="M286.466,348.278l47.777,28.265,79.123-45.283V318.5l-126.9,16.969Z" transform="translate(-286.417 -290.134)" fill="#d5b07c" fill-rule="evenodd"/>
          <path id="XMLID_87_" d="M286.466,335.466l47.777,28.314L413.366,318.5l-47.777-28.363Z" transform="translate(-286.417 -290.134)" fill="#f9dba7" fill-rule="evenodd"/>
          <path id="XMLID_86_" d="M413.317,331.016h-4.89v31.053l4.89-2.885Z" transform="translate(-286.417 -290.134)" fill="#d5b07c" fill-rule="evenodd"/>
        </g>
        <g id="XMLID_97_" transform="translate(46.506 113.012)">
          <path id="XMLID_96_" d="M212.184,193.6l-18.24-10.025,57.851-33.4,18.045,9.878Z" transform="translate(-193.944 -150.177)" fill="#fff" fill-rule="evenodd"/>
          <path id="XMLID_95_" d="M212.184,195.264l-18.24-9.976v-1.712l18.24,10.025Z" transform="translate(-193.944 -150.177)" fill="#c8c8c9" fill-rule="evenodd"/>
          <path id="XMLID_94_" d="M212.184,195.264V193.6l57.655-33.547v1.663Z" transform="translate(-193.944 -150.177)" fill="#dbdcdc" fill-rule="evenodd"/>
        </g>
        <g id="XMLID_100_" transform="translate(46.506 88.463)">
          <path id="XMLID_121_" d="M212.184,169.053l-18.24-9.976,57.851-33.449,18.045,9.878Z" transform="translate(-193.944 -125.628)" fill="#fff" fill-rule="evenodd"/>
          <path id="XMLID_120_" d="M212.184,170.765l-18.24-10.025v-1.663l18.24,9.976Z" transform="translate(-193.944 -125.628)" fill="#c8c8c9" fill-rule="evenodd"/>
          <path id="XMLID_119_" d="M212.184,170.765v-1.712l57.655-33.547v1.712Z" transform="translate(-193.944 -125.628)" fill="#dbdcdc" fill-rule="evenodd"/>
        </g>
        <g id="XMLID_99_" transform="translate(304.126 184.103)">
          <path id="XMLID_135_" d="M495.374,237.467c-1.809,1.076-12.714,7.58-18.876,11.247-.293.2-.587.342-.831.489a4.333,4.333,0,0,1-.831.391,6.7,6.7,0,0,1-6.015-.391l-15.991-9.487a2.678,2.678,0,0,1-1.223-1.516,3.205,3.205,0,0,1,1.223-2.787c1.858-1.418,45.332-3.325,45.332-3.325C499.922,234.63,499.482,235.022,495.374,237.467Z" transform="translate(-451.565 -221.268)" fill="#3157b1"/>
          <path id="XMLID_132_" d="M483.3,223.285l-2.592-1.467a4.974,4.974,0,0,0-4.548,0l-22.984,13.35c-1.271.734-1.271,1.907,0,2.641l16.675,9.634a4.974,4.974,0,0,0,4.548,0l.342-.2-21.272-12.274,1.663-.978L476.4,246.269l4.792-2.787-21.272-12.274,1.663-.978L482.855,242.5l4.792-2.787-21.272-12.274,1.663-.978,21.272,12.274,4.792-2.787-9.047-5.232a10.094,10.094,0,0,1-1.809-.782,6.357,6.357,0,0,1-1.369-1.076l-9.047-5.232,1.663-.978,6.357,3.668a4.69,4.69,0,0,1,2.445-3.032m14.133,8.167-2.592-1.467a11.586,11.586,0,0,1-5.281,1.369l6.357,3.668,1.565-.88c1.223-.782,1.223-1.956-.049-2.69" transform="translate(-451.565 -221.268)" fill="#4c79bf"/>
          <path id="XMLID_131_" d="M480.948,226.366l-6.357-3.668-1.663.978,9.047,5.232A3.088,3.088,0,0,1,480.948,226.366Z" transform="translate(-451.565 -221.268)" fill="#fff"/>
          <path id="XMLID_130_" d="M489.555,231.354a12.676,12.676,0,0,1-4.352-.587L494.249,236l1.663-.978Z" transform="translate(-451.565 -221.268)" fill="#fff"/>
          <path id="XMLID_129_" d="M489.408,238.738l-21.272-12.274-1.663.978,21.272,12.274,1.663-.978" transform="translate(-451.565 -221.268)" fill="#fff"/>
          <path id="XMLID_128_" d="M482.953,242.5l-21.272-12.274-1.712.978,21.321,12.274,1.663-.978" transform="translate(-451.565 -221.268)" fill="#fff"/>
          <path id="XMLID_127_" d="M476.5,246.269l-21.321-12.274-1.663.978,21.272,12.274,1.712-.978" transform="translate(-451.565 -221.268)" fill="#fff"/>
          <path id="XMLID_126_" d="M494.836,229.985,483.3,223.334a4.138,4.138,0,0,0-2.347,3.081,3.088,3.088,0,0,0,1.027,2.543,6.357,6.357,0,0,0,1.369,1.076,7.5,7.5,0,0,0,1.809.782,12.656,12.656,0,0,0,9.683-.831" transform="translate(-451.565 -221.268)" fill="#3157b1"/>
          <path id="XMLID_125_" d="M495.863,235.022a2.4,2.4,0,0,1,0,2.152c-.538.293-1.663,1.027-1.663,1.027s.587-1.418,0-2.2C495.423,235.266,495.863,235.022,495.863,235.022Z" transform="translate(-451.565 -221.268)" fill="#e5e7eb"/>
          <path id="XMLID_124_" d="M489.408,238.738a2.9,2.9,0,0,1,0,2.347c-.538.293-1.663,1.027-1.663,1.027s.587-1.614,0-2.4C488.919,239.032,489.408,238.738,489.408,238.738Z" transform="translate(-451.565 -221.268)" fill="#e5e7eb"/>
          <path id="XMLID_123_" d="M482.953,242.5a2.9,2.9,0,0,1,0,2.347c-.538.293-1.663,1.027-1.663,1.027s.587-1.614,0-2.4C482.464,242.8,482.953,242.5,482.953,242.5Z" transform="translate(-451.565 -221.268)" fill="#e5e7eb"/>
          <path id="XMLID_122_" d="M476.5,248.714c-.293.2-.587.342-.831.489a4.333,4.333,0,0,1-.831.391c.1-.391.44-1.712-.049-2.4,1.223-.685,1.663-.978,1.663-.978A3.2,3.2,0,0,1,476.5,248.714Z" transform="translate(-451.565 -221.268)" fill="#e5e7eb"/>
        </g>
        <g id="XMLID_137_" transform="translate(304.077 181.462)">
          <path id="XMLID_142_" d="M494.836,227.344,483.3,220.693a4.138,4.138,0,0,0-2.347,3.081,3.088,3.088,0,0,0,1.027,2.543,6.358,6.358,0,0,0,1.369,1.076,7.5,7.5,0,0,0,1.809.782,13.011,13.011,0,0,0,4.352.587,11.65,11.65,0,0,0,5.33-1.418" transform="translate(-451.516 -218.627)" fill="#fa6311"/>
          <path id="XMLID_144_" d="M498.113,229.5s-43.474,1.907-45.332,3.325a3.159,3.159,0,0,0-1.223,2.787,2.678,2.678,0,0,0,1.223,1.516l16.04,9.536a6.7,6.7,0,0,0,6.015.391,6.371,6.371,0,0,0,.831-.391c.245-.147.538-.342.831-.489,3.13-1.858,7.531-4.45,11.3-6.7a.379.379,0,0,0-.049.147s1.174-.685,1.663-1.027a.18.18,0,0,0,.049-.147c1.956-1.174,3.619-2.152,4.743-2.836h.049c.489-.293.88-.538,1.125-.685a.371.371,0,0,1,.2-.1c.1-.049.245-.147.342-.2h0C499.531,232.381,499.824,231.892,498.113,229.5Z" transform="translate(-451.516 -218.627)" fill="#fa6311"/>
          <g id="XMLID_136_" transform="translate(0.752)">
            <path id="XMLID_145_" d="M497.428,228.86l-2.592-1.467a11.585,11.585,0,0,1-5.281,1.369,12.676,12.676,0,0,1-4.352-.587l9.047,5.232,1.663-.978h0l1.565-.88C498.7,230.767,498.7,229.593,497.428,228.86Z" transform="translate(-452.267 -218.627)" fill="#fa9016"/>
            <path id="XMLID_147_" d="M483.344,227.344a6.357,6.357,0,0,1-1.369-1.076,3.423,3.423,0,0,1-1.027-2.543h0a4.219,4.219,0,0,1,2.347-3.081l-2.592-1.467a4.974,4.974,0,0,0-4.548,0l-1.565.88h0l-1.663.978h0l-4.792,2.787h0l-1.663.978h0l-4.792,2.787-1.663.978-4.792,2.787-1.663.978-.342.2c-1.271.734-1.271,1.907,0,2.641L469.9,244.8a4.974,4.974,0,0,0,4.548,0l.342-.2,1.663-.978,4.792-2.787,1.663-.978,4.792-2.787,1.663-.978,4.792-2.787-9.047-5.232A6.117,6.117,0,0,1,483.344,227.344Z" transform="translate(-452.267 -218.627)" fill="#fa9016"/>
          </g>
        </g>
        <path id="XMLID_158_" d="M291.552,338.987c.1.1.147.245.245.293l-.391-.245Z" transform="translate(-147.439 -37.165)" fill="#e1d4d1" fill-rule="evenodd"/>
        <g id="XMLID_17_" transform="translate(143.526 265.689)">
          <g id="XMLID_139_">
            <path id="XMLID_165_" d="M291.8,339.28l1.125.636a2.99,2.99,0,0,1-.587-.245A1.025,1.025,0,0,1,291.8,339.28Z" transform="translate(-290.965 -302.854)" fill="#faab16"/>
            <path id="XMLID_166_" d="M335.612,303.288c-1.174-.685-2.836-.587-4.646.489l-38.046,21.957a4.381,4.381,0,0,0-1.956,3.423,1.444,1.444,0,0,0,.44,1.174l.245.147h.049l1.271.734L327.3,351.359v-1.418l34.427-19.952,9.78-5.673Z" transform="translate(-290.965 -302.854)" fill="#faab16"/>
            <path id="XMLID_155_" d="M291.65,330.478a1.069,1.069,0,0,1-.245-.147Z" transform="translate(-290.965 -302.854)" fill="#faab16"/>
          </g>
          <path id="XMLID_153_" d="M371.506,335.759l-43.327,24.989-35.258-20.783-1.125-.636a1.3,1.3,0,0,1-.245-.293,3.835,3.835,0,0,1-.587-2.249,10.12,10.12,0,0,1,1.956-5.526l34.329,20.148V349.99l34.427-19.952Z" transform="translate(-290.965 -302.854)" fill="#fa9016" fill-rule="evenodd"/>
          <g id="XMLID_143_" transform="translate(35.894 21.018)">
            <path id="XMLID_154_" d="M366.861,324.805l-38.046,21.957a4.381,4.381,0,0,0-1.956,3.423,1.444,1.444,0,0,0,.44,1.174,1.323,1.323,0,0,0,1.516-.049l2.641-1.516-2.641,1.516a1.318,1.318,0,0,1-1.516.049l38.975-22.495c1.614-.929,2.934-.245,2.983,1.565a6.42,6.42,0,0,1-2.934,4.988L331.065,355.76c-.391.245-.734.049-.734-.44a1.727,1.727,0,0,1,.734-1.271l35.258-20.343a3.135,3.135,0,0,0,1.467-2.445c0-.88-.685-1.223-1.467-.734l-37.312,21.517a9.908,9.908,0,0,0-2.1,5.673,2.821,2.821,0,0,0,4.646,2.641l35.4-20.441a14.287,14.287,0,0,0,6.553-11.394c0-2.1-.734-3.57-1.956-4.254-1.223-.636-2.885-.538-4.695.538" transform="translate(-326.859 -323.872)" fill="#fa7e16"/>
            <path id="XMLID_152_" d="M366.274,328.864,327.3,351.359a1.323,1.323,0,0,0,1.516-.049l2.641-1.516a8.48,8.48,0,0,0-2.494,2.3l37.312-21.517c.831-.489,1.467-.147,1.467.734a3.188,3.188,0,0,1-1.467,2.445L331.016,354.1a1.644,1.644,0,0,0-.734,1.271c0,.489.342.636.734.44l35.258-20.343a6.42,6.42,0,0,0,2.934-4.988c0-1.858-1.32-2.543-2.934-1.614" transform="translate(-326.859 -323.872)" fill="#e67216"/>
          </g>
        </g>
        <g id="XMLID_141_" transform="translate(143.526 250.285)">
          <g id="XMLID_151_">
            <path id="XMLID_160_" d="M291.8,323.876l1.125.636a2.99,2.99,0,0,1-.587-.245A1.025,1.025,0,0,1,291.8,323.876Z" transform="translate(-290.965 -287.45)" fill="#faab16"/>
            <path id="XMLID_157_" d="M335.612,287.884c-1.174-.685-2.836-.587-4.646.489L292.921,310.33a4.381,4.381,0,0,0-1.956,3.423,1.444,1.444,0,0,0,.44,1.174l.245.147h.049l1.271.734L327.3,335.955v-1.418l34.427-19.952,9.78-5.673Z" transform="translate(-290.965 -287.45)" fill="#fff"/>
            <path id="XMLID_156_" d="M291.65,315.074a1.069,1.069,0,0,1-.245-.147Z" transform="translate(-290.965 -287.45)" fill="#faab16"/>
          </g>
          <path id="XMLID_150_" d="M371.506,320.355l-43.327,24.989-35.258-20.783-1.125-.636a1.3,1.3,0,0,1-.245-.293,3.835,3.835,0,0,1-.587-2.249,10.12,10.12,0,0,1,1.956-5.526L327.25,336v-1.418l34.427-19.952Z" transform="translate(-290.965 -287.45)" fill="#dbdbdb" fill-rule="evenodd"/>
          <g id="XMLID_146_" transform="translate(35.894 21.028)">
            <path id="XMLID_149_" d="M366.861,309.4l-38.046,21.957a4.381,4.381,0,0,0-1.956,3.423,1.444,1.444,0,0,0,.44,1.174,1.323,1.323,0,0,0,1.516-.049l2.641-1.516-2.641,1.516a1.318,1.318,0,0,1-1.516.049l38.975-22.495c1.614-.929,2.934-.245,2.983,1.565a6.42,6.42,0,0,1-2.934,4.988l-35.307,20.343c-.391.245-.734.049-.734-.44a1.727,1.727,0,0,1,.734-1.271l35.258-20.294a3.135,3.135,0,0,0,1.467-2.445c0-.88-.685-1.223-1.467-.734l-37.312,21.517a9.908,9.908,0,0,0-2.1,5.673A2.821,2.821,0,0,0,331.5,345l35.4-20.441a14.287,14.287,0,0,0,6.553-11.394c0-2.1-.734-3.57-1.956-4.254-1.174-.685-2.836-.587-4.646.489" transform="translate(-326.859 -308.478)" fill="#c4c4c4"/>
            <path id="XMLID_148_" d="M366.274,313.46,327.3,335.955a1.323,1.323,0,0,0,1.516-.049l2.641-1.516a8.48,8.48,0,0,0-2.494,2.3l37.312-21.517c.831-.489,1.467-.147,1.467.734a3.188,3.188,0,0,1-1.467,2.445l-35.258,20.343a1.644,1.644,0,0,0-.734,1.271c0,.489.342.636.734.44l35.258-20.343a6.42,6.42,0,0,0,2.934-4.988c0-1.858-1.32-2.592-2.934-1.614" transform="translate(-326.859 -308.478)" fill="#acacac"/>
          </g>
        </g>
        <g id="XMLID_162_" transform="translate(260.939 125.042)">
          <g id="XMLID_164_">
            <path id="XMLID_170_" d="M408.378,162.207l9.976,5.721-.049,11.394-9.927-5.721V162.207" transform="translate(-408.378 -162.207)" fill="#fff"/>
          </g>
          <g id="XMLID_140_" transform="translate(2.445 5.31)">
            <path id="XMLID_161_" d="M410.823,169.1a5.948,5.948,0,0,0,2.641,4.6,1.778,1.778,0,0,0,2,.1,2.226,2.226,0,0,0,.391-1.32,5.948,5.948,0,0,0-2.641-4.6,1.778,1.778,0,0,0-2-.1A2.024,2.024,0,0,0,410.823,169.1Z" transform="translate(-410.823 -167.516)" fill="#e4e4e7"/>
          </g>
        </g>
        <g id="XMLID_168_" transform="translate(33.155 233.359)">
          <g id="XMLID_172_">
            <path id="XMLID_173_" d="M190.521,270.524l-9.927,5.77v11.394l9.976-5.721-.049-11.443" transform="translate(-180.594 -270.524)" fill="#fff"/>
          </g>
          <g id="XMLID_169_" transform="translate(2.445 5.31)">
            <path id="XMLID_171_" d="M188.076,277.419a5.948,5.948,0,0,1-2.641,4.6,1.778,1.778,0,0,1-2,.1,2.225,2.225,0,0,1-.391-1.32,5.948,5.948,0,0,1,2.641-4.6,1.778,1.778,0,0,1,2-.1A2.121,2.121,0,0,1,188.076,277.419Z" transform="translate(-183.039 -275.834)" fill="#e4e4e7"/>
          </g>
        </g>
        <g id="XMLID_179_" transform="translate(200.448 60.472)">
          <path id="XMLID_195_" d="M369.355,97.9a4.4,4.4,0,0,1,2,3.521l-.391-.245a3.714,3.714,0,0,0-1.614-2.836,1.148,1.148,0,0,0-1.174-.1,1.067,1.067,0,0,0-.489,1.027,3.39,3.39,0,0,0,.929,2.2,3.364,3.364,0,0,1,.929,2.1v.1c-.049-.049-.147-.1-.2-.147s-.147-.049-.2-.1v-.1a2.474,2.474,0,0,0-.685-1.565,4.476,4.476,0,0,1-1.125-2.738,1.3,1.3,0,0,1,.587-1.271,1.512,1.512,0,0,1,1.418.147" transform="translate(-347.887 -97.637)" fill="#c7c7cd"/>
          <path id="XMLID_194_" d="M362.753,102.449h0v.1a9.982,9.982,0,0,0,.147,1.663h0c.049.2.049.342.1.538h0a14.788,14.788,0,0,0,6.308,9.1c2.3,1.32,4.352,1.125,5.526-.245a5.393,5.393,0,0,0,1.076-3.423v-.1l9.389,9.78,5.33,20.245-4.743.538-1.907-16.969-.049,17.213-.049,24.011-29.341-16.871.049-24.011.049-17.213-2,14.719-4.743-6.015,5.428-14.035,9.438.978" transform="translate(-347.887 -97.637)" fill="#0083cb"/>
          <path id="XMLID_191_" d="M367.056,104.943l-4.157-.734c.049.2.049.342.1.538l12.666,7.286a4.44,4.44,0,0,1-.782,1.516l-11.052-6.357a14.343,14.343,0,0,0,5.526,6.651c2.3,1.32,4.352,1.125,5.526-.245a5.393,5.393,0,0,0,1.076-3.423v-.1l-.245-.147.245.245a8.1,8.1,0,0,1-.2,1.614l-4.548-4.45-4.157-2.4m-4.3-2.494v.1l.245.049-.245-.147" transform="translate(-347.887 -97.637)" fill="#0063a7"/>
          <path id="XMLID_187_" d="M383.927,123.721l1.907,16.92-1.956.245.049-17.164" transform="translate(-347.887 -97.637)" fill="#0063a7"/>
          <path id="XMLID_186_" d="M354.684,106.8l-.049,17.164-1.956-2.494,2-14.671" transform="translate(-347.887 -97.637)" fill="#0063a7"/>
          <path id="XMLID_185_" d="M363,104.747h0l12.666,7.286a4.44,4.44,0,0,1-.782,1.516l-11.052-6.357a11.1,11.1,0,0,1-.831-2.445" transform="translate(-347.887 -97.637)" fill="#dbb170"/>
          <path id="XMLID_184_" d="M369.355,103.574c.049.049.147.1.2.147a1.3,1.3,0,0,1,.293.245l5.868,5.966.245.245a8.1,8.1,0,0,1-.2,1.614l-4.548-4.45-2.054-2-2.1-.391-4.157-.734h0a9.55,9.55,0,0,1-.147-1.663l.245.049,5.917.831a.7.7,0,0,1,.293.1.214.214,0,0,0,.147.049" transform="translate(-347.887 -97.637)" fill="#dbb170"/>
        </g>
        <g id="XMLID_174_" transform="translate(194.971 66.549)">
          <path id="XMLID_188_" d="M363.829,104.014a4.4,4.4,0,0,1,2,3.521l-.391-.245a3.714,3.714,0,0,0-1.614-2.836,1.148,1.148,0,0,0-1.174-.1,1.067,1.067,0,0,0-.489,1.027,3.39,3.39,0,0,0,.929,2.2,3.364,3.364,0,0,1,.929,2.1v.1c-.049-.049-.147-.1-.2-.147s-.147-.049-.2-.1v-.1a2.474,2.474,0,0,0-.685-1.565,4.476,4.476,0,0,1-1.125-2.739,1.215,1.215,0,0,1,2-1.125" transform="translate(-342.41 -103.714)" fill="#c7c7cd"/>
          <path id="XMLID_183_" d="M357.227,108.562h0v.1a9.982,9.982,0,0,0,.147,1.663h0c.049.2.049.342.1.538h0a14.788,14.788,0,0,0,6.308,9.1c2.3,1.32,4.352,1.125,5.526-.245a5.393,5.393,0,0,0,1.076-3.423v-.1l9.389,9.78,5.33,20.245-4.743.538-1.907-16.969L378.4,147l-.049,24.011-29.292-16.92.049-24.011.049-17.213-2,14.719-4.743-6.015,5.428-14.035,9.389,1.027" transform="translate(-342.41 -103.714)" fill="#e4e4e7"/>
          <path id="XMLID_180_" d="M361.53,111.056l-4.157-.734c.049.2.049.342.1.538l12.666,7.286a4.44,4.44,0,0,1-.782,1.516L358.3,113.305a14.343,14.343,0,0,0,5.526,6.651c2.3,1.32,4.352,1.125,5.526-.245a5.393,5.393,0,0,0,1.076-3.423v-.1l-.245-.147.245.245a8.1,8.1,0,0,1-.2,1.614l-4.548-4.45-4.157-2.4m-4.3-2.494v.1l.245.049-.245-.147" transform="translate(-342.41 -103.714)" fill="#c0c0c7"/>
          <path id="XMLID_178_" d="M378.45,129.785l1.907,16.969L378.4,147l.049-17.213" transform="translate(-342.41 -103.714)" fill="#c0c0c7"/>
          <path id="XMLID_177_" d="M349.158,112.914l-.049,17.164-1.956-2.494,2-14.671" transform="translate(-342.41 -103.714)" fill="#c0c0c7"/>
          <path id="XMLID_176_" d="M357.471,110.86h0l12.666,7.286a4.44,4.44,0,0,1-.782,1.516L358.3,113.305a18.058,18.058,0,0,1-.831-2.445" transform="translate(-342.41 -103.714)" fill="#dbb170"/>
          <path id="XMLID_175_" d="M363.829,109.687c.049.049.147.1.2.147a1.3,1.3,0,0,1,.293.245l5.868,5.966.245.245a8.1,8.1,0,0,1-.2,1.614l-4.548-4.45-2.054-2-2.1-.391-4.157-.734h0a9.55,9.55,0,0,1-.147-1.663l.245.049,5.868.831a.7.7,0,0,1,.293.1.294.294,0,0,1,.2.049" transform="translate(-342.41 -103.714)" fill="#dbb170"/>
        </g>
        <g id="XMLID_189_" transform="translate(190.179 74.604)">
          <path id="XMLID_203_" d="M359.085,112.034a4.4,4.4,0,0,1,2,3.521l-.391-.245a3.714,3.714,0,0,0-1.614-2.836,1.148,1.148,0,0,0-1.174-.1,1.168,1.168,0,0,0-.489,1.027,3.39,3.39,0,0,0,.929,2.2,3.364,3.364,0,0,1,.929,2.1v.1c-.049-.049-.147-.1-.2-.147s-.147-.049-.2-.1v-.1a2.474,2.474,0,0,0-.685-1.565,4.476,4.476,0,0,1-1.125-2.739,1.3,1.3,0,0,1,.587-1.271,1.512,1.512,0,0,1,1.418.147" transform="translate(-337.617 -111.77)" fill="#c7c7cd"/>
          <path id="XMLID_202_" d="M352.483,116.631h0v.1a9.982,9.982,0,0,0,.147,1.663h0c.049.2.049.342.1.538h0a14.788,14.788,0,0,0,6.308,9.1c2.347,1.369,4.352,1.125,5.526-.245a5.393,5.393,0,0,0,1.076-3.423v-.1l9.389,9.78,5.33,20.245-4.743.538-1.907-16.969-.1,17.165-.049,24.011-29.292-16.871.049-24.011.049-17.213-2,14.719-4.743-6.015,5.428-14.035,9.438,1.027" transform="translate(-337.617 -111.77)" fill="#c53100"/>
          <path id="XMLID_199_" d="M356.787,119.076l-4.157-.734c.049.2.049.342.1.538l12.666,7.286a4.44,4.44,0,0,1-.782,1.516l-11.052-6.357a14.343,14.343,0,0,0,5.526,6.651c2.347,1.369,4.352,1.125,5.526-.245a5.393,5.393,0,0,0,1.076-3.423v-.1l-.245-.147.245.245a8.1,8.1,0,0,1-.2,1.614l-4.548-4.45-4.157-2.4m-4.3-2.445v.1l.245.049-.245-.147" transform="translate(-337.617 -111.77)" fill="#9c3100"/>
          <path id="XMLID_198_" d="M373.658,137.854l1.956,16.969-2,.2.049-17.164" transform="translate(-337.617 -111.77)" fill="#9c3100"/>
          <path id="XMLID_197_" d="M344.415,120.934l-.049,17.213-1.956-2.494,2-14.719" transform="translate(-337.617 -111.77)" fill="#9c3100"/>
          <path id="XMLID_196_" d="M352.728,118.88h0l12.666,7.286a4.44,4.44,0,0,1-.782,1.516l-11.052-6.357a11.1,11.1,0,0,1-.831-2.445" transform="translate(-337.617 -111.77)" fill="#dbb170"/>
          <path id="XMLID_190_" d="M359.085,117.755c.049.049.147.1.2.147a1.3,1.3,0,0,1,.293.245l5.868,5.966.245.245a8.1,8.1,0,0,1-.2,1.614l-4.548-4.45-2.054-2-2.1-.391-4.157-.734h0a9.55,9.55,0,0,1-.147-1.663l.245.049,5.917.831a.7.7,0,0,1,.293.1c0-.049.049,0,.147.049" transform="translate(-337.617 -111.77)" fill="#dbb170"/>
        </g>
        <path id="XMLID_167_" d="M354.635,119.076l17.556-21.028a1.224,1.224,0,0,0-.147-1.712h0a1.224,1.224,0,0,0-1.712.147l-17.556,21.028a1.224,1.224,0,0,0,.147,1.712h0A1.228,1.228,0,0,0,354.635,119.076Z" transform="translate(-147.439 -37.165)" fill="#d2d2d7"/>
        <g id="XMLID_204_" transform="translate(135.898 54.672)">
          <path id="XMLID_212_" d="M326.321,94.576v67.289l-37.948,21.81V116.484Z" transform="translate(-283.336 -91.837)" fill="#cc8400" fill-rule="evenodd"/>
          <path id="XMLID_211_" d="M322.556,101.129v58.535l-3.374-1.809v-54.77Z" transform="translate(-283.336 -91.837)" fill="#db9700" fill-rule="evenodd"/>
          <path id="XMLID_210_" d="M292.139,177.171l30.27-17.458-3.228-1.858-27.043,15.6Z" transform="translate(-283.336 -91.837)" fill="#db9700" fill-rule="evenodd"/>
          <path id="XMLID_209_" d="M283.336,113.745l5.037,2.934,37.948-21.908-5.037-2.934Z" transform="translate(-283.336 -91.837)" fill="#db9700" fill-rule="evenodd"/>
          <path id="XMLID_208_" d="M283.336,113.745l5.037,2.934v67l-5.037-2.885Z" transform="translate(-283.336 -91.837)" fill="#a76600" fill-rule="evenodd"/>
          <path id="XMLID_207_" d="M314.242,105.921h0l4.939-2.836v54.77l-27.043,15.6v-54.77Z" transform="translate(-283.336 -91.837)" fill="#fff" fill-rule="evenodd"/>
          <path id="XMLID_206_" d="M292.139,141.228l28.705-16.578h0l-1.663-.978-26.945,15.551Z" transform="translate(-283.336 -91.837)" fill="#db9700" fill-rule="evenodd"/>
          <path id="XMLID_205_" d="M320.844,124.65v3.081l-28.705,16.48v-2.983Z" transform="translate(-283.336 -91.837)" fill="#cc8400" fill-rule="evenodd"/>
        </g>
      </g>
      <path id="Path_5" data-name="Path 5" d="M159.282,41.842,155.41-16.233" transform="translate(0 19.671)" fill="#e2e2e9"/>
    </g>
  </g>
</svg>
