<svg xmlns="http://www.w3.org/2000/svg" width="2207.398" height="508.537" viewBox="0 0 2207.398 508.537">
  <g id="Component_2_1" data-name="Component 2 – 1" transform="translate(0.504 0.504)">
    <path id="Path_46" data-name="Path 46" d="M2623.72,889.4s-4.519-66.909-29.915-64.022-15.936,75.572-71.669,75.572-78.176-72.684-151.264-75.572S2316.292,889.4,2229.78,889.4s-122-66.909-204.954-64.022-44.069,68.012-126.876,75.572S1795.395,850.1,1693.6,855.616,1593.3,920.51,1490.762,923,1373.8,838.26,1271.947,838.26,1181.191,922.8,1083.348,923s-100.955-83.926-202.771-83.926S786.076,897,676.085,923s-176.6,15.069-235.471,20.091,12.433,389.721,12.433,389.721L2623.72,1314.7Z" transform="translate(-417.326 -825.285)" fill="#6c63ff" stroke="#707070" stroke-width="1"/>
  </g>
</svg>
