<svg xmlns="http://www.w3.org/2000/svg" width="1985.417" height="508.537" viewBox="0 0 1985.417 508.537">
  <g id="Component_3_1" data-name="Component 3 – 1" transform="translate(0.504 0.504)">
    <path id="Path_46" data-name="Path 46" d="M2401.739,889.4s-4.064-66.909-26.905-64.022,12.237,53.924-37.89,53.924-30.772-21.261-96.508-24.149-115.2,34.247-193,34.247-54.332-53.21-128.943-50.322-95.026,54.312-169.5,61.872-47.478-51.31-139.034-45.8S1474.984,920.51,1382.765,923s-105.194-84.741-196.8-84.741S1104.34,922.8,1016.341,923s-90.8-83.926-182.371-83.926S748.977,897,650.052,923,491.216,938.07,438.271,943.093s11.182,389.721,11.182,389.721L2401.739,1314.7Z" transform="translate(-417.326 -825.285)" fill="#dd67cb" stroke="#707070" stroke-width="1"/>
  </g>
</svg>
