<svg viewBox="-49 0 511 511.99882" xmlns="http://www.w3.org/2000/svg"><path d="m270.164062 95.144531c0 .007813-.003906.050781-.039062.179688l-.65625 2.519531 135.308594-.539062 2.289062-82.671876-130.691406-2.78125zm68.511719-8.820312-17.1875.976562c.050781-.011719.089844-.019531.105469-.035156l.164062-.28125.0625-.320313c.347657-1.734374.726563-8.140624.886719-12.109374.003907-.078126.007813-.136719.015625-.179688.632813-.304688 2.714844-.457031 6.199219-.457031 1.785156 0 3.957031.03125 6.582031.082031 1.234375.027344 2.582032.054688 3.390625.054688.332031 0 .824219-.007813.851563-.007813zm0-25.171875-16.964843.972656-.117188-.027344.164062-.285156.0625-.316406c.347657-1.71875.726563-8.132813.886719-12.113282.003907-.074218.011719-.132812.015625-.171874.632813-.304688 2.699219-.457032 6.148438-.457032 1.796875 0 3.980468.035156 6.644531.085938 1.214844.023437 2.539063.042968 3.351563.042968.347656 0 .855468-.003906.882812-.003906zm13.09375 16.359375c0-.003907.011719-.011719.019531-.011719l30.800782 1.261719zm-.003906-16.875s.015625-.015625.035156-.019531l30.789063 1.265624zm-.007813-8.847657c.003907 0 .023438-.007812.054688-.007812l30.777344 1.25zm-56.351562-18.796874c.429688-2.039063 1.890625-4.035157 3.714844-5.085938 2.527344-1.4375 5.453125-1.621094 7.71875-1.621094 1.011718 0 2 .042969 2.984375.082032l22.402343.980468c2.433594.109375 4.867188.230469 7.300782.351563l4.429687.214843c10.972657.542969 22.324219 1.105469 33.542969 1.15625 2.046875.015626 4.167969.035157 6.03125.882813 2.070312.933594 3.230469 2.675781 3.179688 4.792969-.054688 2.476562-1.714844 4.789062-4.132813 5.753906-1.9375.773438-4.042969.878906-5.847656.878906-.589844 0-1.175781-.011718-1.730469-.019531l-70.652344-1.449219c-2.332031-.046875-6.234375-.125-8.15625-2.75-.84375-1.136718-1.121094-2.613281-.785156-4.167968zm-2.101562 28.828124.0625-.3125c.359374-1.722656.734374-8.203124.898437-12.132812.003906-.070312.011719-.125.015625-.167969.640625-.300781 2.71875-.449219 6.1875-.449219 1.789062 0 3.957031.03125 6.597656.082032 1.214844.019531 2.539063.042968 3.347656.042968.320313 0 .847657-.003906.882813-.003906l-1.070313 12.273438-16.964843.976562-.117188-.03125zm-.160157 25.449219.160157-.277343.0625-.316407c.359374-1.734375.734374-8.210937.898437-12.132812.003906-.070313.011719-.128907.015625-.171875.636719-.300782 2.71875-.453125 6.191406-.453125 1.785156 0 3.953125.03125 6.578125.082031 1.234375.027344 2.585938.054688 3.394531.054688.300782 0 .8125-.007813.851563-.003907l-1.070313 12.273438-17.003906.964843h-.132812c.023437-.003906.042968-.011718.054687-.019531zm0 0" fill="#f0f2fa"/><path d="m9.113281 432.488281h80.839844c1.074219 0 1.960937.84375 2.019531 1.925781l2.003906 35.363282 2.003907-.121094c55.5-3.328125 112.035156-5.015625 168.039062-5.015625 42.796875 0 86.015625.988281 128.449219 2.9375l2.035156.089844 10.152344-366.296875-397.507812 1.574218zm109.015625-242.359375c22.332032-22.214844 51.109375-35.648437 81.035156-37.835937 2.730469-.195313 5.527344-.296875 8.3125-.296875 22.855469 0 47.152344 6.828125 68.414063 19.230468 23.945313 13.964844 43.355469 34.296876 54.65625 57.253907 9.261719 18.835937 13.765625 40.3125 13.015625 62.109375-.75 21.785156-6.722656 42.898437-17.273438 61.054687-12.605468 21.695313-31.9375 39.910157-54.433593 51.289063-18.167969 9.203125-38.917969 14.066406-60.003907 14.066406-21.347656 0-42.324218-4.972656-60.667968-14.378906-37.164063-19.0625-64.242188-56.546875-70.667969-97.828125-6.421875-41.269531 7.992187-85.210938 37.613281-114.664063zm0 0" fill="#f0f2fa"/><path d="m263.996094 464.671875c-55.992188 0-112.527344 1.6875-168.035156 5.011719l-1.988282.121094 1.050782 18.640624 298.972656-2.351562.507812-18.390625-1.960937-.089844c-42.460938-1.953125-85.710938-2.941406-128.546875-2.941406zm0 0" fill="#f0f2fa"/><path d="m132.285156 8.792969-8.8125-.191407.261719 2.273438c.515625 4.527344.867187 8.300781.34375 12.1875-.632813 4.699219-2.609375 8.636719-5.5625 11.085938-3.394531 2.804687-7.984375 3.675781-12.394531 4.324218-12.136719 1.761719-24.488282 2.65625-36.710938 2.65625-8.894531 0-17.914062-.476562-26.808594-1.417968-8.117187-.855469-17.09375-2.597657-22.152343-9-4.410157-5.589844-4.8125-12.945313-4.054688-22.269532l.171875-2.113281-9.988281-.222656.484375 81.914062 126.675781 1.859375zm0 0" fill="#f0f2fa"/><path d="m69.28125 436.558594.175781 2.164062c.28125 3.457032-1.359375 8.535156-6.902343 11.46875-3.027344 1.601563-6.601563 2.347656-11.246094 2.347656-1.421875 0-3.007813-.070312-4.980469-.222656-3.691406-.289062-7.90625-.789062-11.199219-3.09375-3.265625-2.289062-5.25-6.441406-5.058594-10.578125l.097657-2.09375h-21.03125l.316406 52.5625 81.503906-.640625-2.925781-51.914062zm0 0" fill="#f0f2fa"/><path d="m330.515625 228.496094c-11.292969-22.953125-30.699219-43.28125-54.636719-57.242188-21.5625-12.574218-45.195312-19.222656-68.339844-19.222656-2.804687 0-5.625.101562-8.375.304688-29.90625 2.171874-58.679687 15.605468-81.015624 37.816406-29.613282 29.441406-44.023438 73.367187-37.605469 114.636718 6.417969 41.265626 33.488281 78.742188 70.652343 97.800782 18.351563 9.410156 39.324219 14.382812 60.65625 14.382812 21.070313 0 41.816407-4.859375 59.992188-14.058594 22.5-11.394531 41.828125-29.605468 54.425781-51.28125 10.539063-18.160156 16.507813-39.269531 17.261719-61.042968.75-21.789063-3.75-43.257813-13.015625-62.09375zm2.316406 61.574218c-.691406 20.007813-6.175781 39.414063-15.871093 56.113282-11.574219 19.921875-29.339844 36.660156-50.023438 47.132812-16.695312 8.453125-35.765625 12.921875-55.136719 12.921875-19.613281 0-38.886719-4.566406-55.738281-13.207031-34.15625-17.527344-59.035156-51.96875-64.925781-89.890625-5.902344-37.914063 7.335937-78.285156 34.554687-105.355469 20.523438-20.402344 46.980469-32.746094 74.496094-34.75 2.578125-.191406 5.21875-.285156 7.839844-.285156 46.082031 0 92.484375 28.886719 112.839844 70.242188 8.515624 17.320312 12.65625 37.054687 11.964843 57.078124zm0 0" fill="#d8deec"/><path d="m133.734375 89.917969-126.679687-1.867188.082031 10.835938 126.75-.503907zm0 0" fill="#d8deec"/><path d="m42.609375 39.679688c8.875.9375 17.902344 1.417968 26.832031 1.417968 12.25 0 24.589844-.894531 36.679688-2.65625 4.398437-.644531 8.976562-1.503906 12.371094-4.320312 2.953124-2.429688 4.925781-6.363282 5.550781-11.058594.566406-4.160156.09375-8.390625-.382813-12.527344v-1.933594l-11.441406-.234374.644531 2.542968c.722657 2.851563.601563 5.914063-.347656 8.863282-1.320313 4.144531-4.132813 7.539062-7.707031 9.300781-3.8125 1.871093-8.207032 2.109375-12.75 2.207031-2.6875.058594-5.402344.089844-8.066406.089844-13.949219 0-28.074219-.765625-41.984376-2.269532-5.199218-.566406-11.039062-1.507812-14.507812-5.53125-3.496094-4.074218-3.4375-9.828124-2.917969-14.914062l.21875-2.15625-8.195312-.179688-.15625 1.871094c-.644531 7.613282-.917969 16.253906 4.023437 22.5 5.054688 6.398438 14.027344 8.132813 22.136719 8.988282zm0 0" fill="#d8deec"/><path d="m69.152344 436.558594-38.90625-.011719-.121094 1.875c-.269531 4.214844 1.703125 8.445313 5.027344 10.773437 3.257812 2.292969 7.476562 2.796876 11.171875 3.089844 1.933593.148438 3.511719.222656 4.960937.222656 4.652344 0 8.230469-.746093 11.25-2.347656 3.839844-2.027344 7.550782-6.875 6.855469-11.875zm0 0" fill="#d8deec"/><g fill="#bfc7d8"><path d="m383.503906 29.976562c-1.867187-.84375-4-.855468-6.0625-.867187-11.125-.058594-22.4375-.613281-33.378906-1.152344l-.710938-.035156c-3.710937-.1875-7.417968-.367187-11.125-.539063l-22.566406-.984374c-.980468-.039063-1.917968-.078126-2.808594-.078126-2.402343 0-5.195312.195313-7.710937 1.625-1.847656 1.054688-3.269531 2.992188-3.707031 5.054688-.328125 1.527344-.058594 3 .78125 4.160156 1.679687 2.273438 4.902344 2.648438 8.132812 2.722656l70.648438 1.449219c.578125.011719 1.160156.023438 1.742187.023438 1.792969 0 3.886719-.105469 5.824219-.878907 2.402344-.960937 4.058594-3.261718 4.117188-5.730468.046874-2.101563-1.109376-3.839844-3.175782-4.769532zm0 0"/><path d="m347.917969 492.21875c-.292969 2.074219.136719 4.277344 1.199219 6.195312 1.234374 2.242188 3.335937 4.132813 5.914062 5.320313 1.921875.886719 4.097656 1.359375 6.300781 1.359375 2.941407 0 5.871094-.84375 8.253907-2.375 3.398437-2.195312 5.882812-5.949219 6.648437-10.042969l.449219-2.386719-28.523438.222657zm0 0"/><path d="m288.277344 247.351562-2.027344 2.742188c-10.234375 13.863281-15.824219 26.09375-17.597656 38.480469-2.289063 15.929687 3.109375 31.921875 13.761718 40.746093l1.792969 1.484376 1.664063-2.761719c13.300781-22.886719 14.796875-53.34375 3.8125-77.589844zm0 0"/><path d="m266.113281 94.796875 6.199219-83.03125-135.960938-2.890625 1.59375 89.492188 128.875-.519532-.644531-2.488281c-.054687-.210937-.074219-.390625-.0625-.5625zm-27.613281-68.621094 5.289062.367188-5.300781-.363281c0-.003907.007813-.003907.011719-.003907zm-84.167969.738281 11.144531-.738281v.027344l-11.257812.75c.054688-.011719.09375-.019531.113281-.039063zm4.179688 14.53125.015625-2-.007813 2.039063-11.042969.730469-.113281-.03125zm-13.027344 15.210938 11.1875-.746094-.03125.035156-11.246094.746094c.046875-.007812.078125-.019531.089844-.035156zm6.96875 15.269531 11.164063-.730469-.007813.03125-11.03125.730469zm10.605469 14.777344c.054687-.011719.09375-.023437.113281-.039063l11.132813-.738281.015624.027344zm55.394531-7.589844c-4.648437 3.011719-10.175781 4.605469-15.992187 4.605469-7.683594 0-15.136719-2.855469-20.441407-7.839844-5.765625-5.410156-9.210937-13.601562-9.210937-21.910156 0-3.382812.5625-6.640625 1.664062-9.6875 3.53125-9.765625 11.828125-16.761719 22.1875-18.71875l1.832032-.34375-.214844-1.851562c-.214844-1.863282.335937-3.679688 1.476562-4.855469.863282-.886719 2.089844-1.394531 3.371094-1.394531 1.027344 0 1.96875.335937 2.652344.945312.972656.867188 1.527344 2.28125 1.523437 3.886719 0 .394531-.042969.8125-.136719 1.402343l-.304687 1.894532 1.882813.382812c10.222656 2.066406 18.320312 9.132813 21.652343 18.894532 4.265625 12.523437-.867187 27.394531-11.941406 34.589843zm11.183594 6.839844c0-.019531.015625-.027344.039062-.027344h-.019531l9.253906.644531zm21.820312-13.992187-11.101562-.746094c0-.011719 0-.019532.023437-.019532l11.152344.765626zm5.09375-29.742188-11.097656-.773438 11.167969.773438zm0 0"/><path d="m112 8.359375-87.160156-1.859375-.199219 1.824219c-.5625 5.214843-.660156 11.097656 2.882813 15.21875 3.457031 4.027343 9.289062 4.964843 14.480468 5.523437 13.839844 1.503906 27.945313 2.269532 41.929688 2.269532 2.699218 0 5.433594-.027344 8.117187-.085938 4.703125-.09375 8.90625-.328125 12.738281-2.203125 3.5625-1.746094 6.371094-5.128906 7.707032-9.285156 1.078125-3.371094 1.0625-6.957031-.039063-10.09375zm0 0"/><path d="m61.855469 492.765625-27.363281.21875-.207032 1.75c-.382812 3.203125.921875 6.503906 3.316406 8.40625 1.871094 1.5 4.558594 2.40625 7.992188 2.703125.730469.058594 1.460938.09375 2.171875.09375 3.996094 0 7.449219-.972656 9.984375-2.804688 2.835938-2.042968 4.507812-5.386718 4.253906-8.515624zm0 0"/></g><path d="m253.15625 211.082031c-14.003906-8.171875-29.339844-12.492187-44.355469-12.492187-1.722656 0-3.484375.0625-5.394531.195312-19.378906 1.414063-38.023438 10.125-52.496094 24.527344-19.207031 19.09375-28.554687 47.582031-24.386718 74.34375 4.15625 26.761719 21.710937 51.066406 45.8125 63.421875 11.898437 6.105469 25.496093 9.332031 39.328124 9.332031 13.667969 0 27.125-3.15625 38.917969-9.125 9.078125-4.589844 17.597657-11.082031 24.632813-18.773437l1.332031-1.457031-1.4375-1.351563c-13.988281-13.128906-21.847656-33.125-20.503906-52.183594 1.316406-18.550781 11.515625-36.957031 26.617187-48.039062l1.601563-1.171875-1.164063-1.613282c-7.371094-10.183593-17.226562-19.039062-28.503906-25.613281zm0 0" fill="#5bd0fc"/><path d="m329.195312 73.957031c-2.136718 0-3.664062.039063-4.671874.117188l-1.746094.140625-.140625 2.652344c-.066407 1.234374-.148438 2.8125-.25 4.378906-.101563 1.464844-.1875 2.683594-.285157 3.675781l-.230468 2.328125 16.796875-.964844 1.039062-12.175781-4.402343-.082031c-1.613282-.027344-3.941407-.070313-6.109376-.070313zm0 0" fill="#5fc980"/><path d="m308 48.886719-.925781-.015625c-1.605469-.035156-4.019531-.082032-6.269531-.082032-2.164063 0-3.71875.042969-4.738282.128907l-1.742187.140625-.128907 2.453125c-.066406 1.257812-.152343 2.917969-.261718 4.5625l-.011719.160156c-.09375 1.433594-.167969 2.566406-.269531 3.496094l-.257813 2.347656 16.820313-.949219 1.042968-12.230468h-2.179687c-.320313 0-.679687-.003907-1.078125-.011719zm0 0" fill="#ed6d66"/><path d="m202.820312 29.058594h-.296874c-11.054688 0-20.566407 6.515625-24.234376 16.601562-3.363281 9.285156-.6875 20.496094 6.511719 27.257813 4.539063 4.261719 10.984375 6.707031 17.691407 6.707031 5.042968 0 9.796874-1.355469 13.75-3.917969 9.402343-6.117187 13.933593-19.238281 10.3125-29.871093-4.175782-12.238282-15-16.6875-23.734376-16.777344zm10.890626 39.183594c-3.011719 2.476562-6.96875 3.835937-11.140626 3.835937-3.273437 0-6.375-.835937-8.972656-2.425781-6.121094-3.730469-9.480468-11.519532-7.980468-18.527344 1.523437-7.148438 8.898437-13.855469 15.785156-14.351562.289062-.019532.574218-.03125.863281-.03125 6.828125 0 14.351563 5.40625 16.773437 12.050781 2.453126 6.734375.210938 14.914062-5.328124 19.449219zm0 0" fill="#ed6d66"/><path d="m199.777344 18.535156c-1.117188 1.148438-1.679688 2.921875-1.496094 4.742188l.191406 1.925781 1.929688-.128906c.765625-.050781 1.464844-.074219 2.136718-.074219h.304688c.683594.007812 1.386719.042969 2.144531.105469l1.816407.144531.3125-1.792969c.105468-.585937.152343-1.066406.152343-1.515625 0-1.601562-.554687-3.007812-1.515625-3.859375-.675781-.597656-1.605468-.929687-2.613281-.929687-1.261719 0-2.519531.515625-3.363281 1.382812zm0 0" fill="#ed6d66"/><path d="m306.871094 74.027344c-1.617188-.027344-3.949219-.070313-6.121094-.070313-2.140625 0-3.671875.039063-4.675781.117188l-1.746094.140625-.132813 2.492187c-.066406 1.253907-.152343 2.910157-.261718 4.539063l-.015625.261718c-.089844 1.335938-.167969 2.484376-.265625 3.394532l-.257813 2.351562 16.820313-.964844 1.039062-12.175781zm0 0" fill="#d3413d"/><path d="m317.214844 234.785156c-10.027344-20.378906-27.277344-38.445312-48.578125-50.875-18.894531-11.023437-40.460938-17.09375-60.726563-17.09375-2.488281 0-4.984375.089844-7.425781.269532-26.554687 1.9375-52.101563 13.863281-71.925781 33.585937-26.308594 26.15625-39.109375 65.179687-33.414063 101.847656 5.707031 36.671875 29.761719 69.96875 62.773438 86.890625 16.296875 8.359375 34.925781 12.78125 53.878906 12.78125 18.722656 0 37.15625-4.320312 53.308594-12.496094 20-10.132812 37.164062-26.308593 48.335937-45.550781 18.941406-32.59375 20.421875-75.519531 3.773438-109.359375zm-27.835938 95.300782c-8.550781 14.726562-21.675781 27.09375-36.960937 34.828124-12.328125 6.246094-26.417969 9.546876-40.746094 9.546876-14.492187 0-28.734375-3.375-41.1875-9.761719-25.238281-12.945313-43.625-38.394531-47.976563-66.417969-4.363281-28.027344 5.421876-57.859375 25.53125-77.855469 15.171876-15.082031 34.726563-24.207031 55.066407-25.691406 1.917969-.140625 3.871093-.210937 5.816406-.210937 34.035156 0 68.308594 21.339843 83.34375 51.898437 12.9375 26.277344 11.832031 58.335937-2.886719 83.664063zm0 0" fill="#5b5d6d"/><path d="m286.171875 243.660156-1.125-1.949218-1.800781 1.347656c-14.160156 10.550781-23.347656 27.28125-24.582032 44.75-1.25 17.648437 5.972657 36.253906 18.855469 48.558594l1.628907 1.554687 1.351562-1.800781c.921875-1.226563 1.824219-2.5 2.683594-3.792969l1.015625-1.519531-1.425781-1.148438c-10.921876-8.769531-16.476563-24.894531-14.152344-41.085937 1.839844-12.84375 7.824218-25.597657 18.835937-40.136719l.769531-1.019531-.601562-1.132813c-.46875-.878906-.953125-1.757812-1.453125-2.625zm0 0" fill="#5b5d6d"/><path d="m337.53125 48.898438c-.320312 0-.679688-.003907-1.074219-.011719l-.945312-.019531c-1.601563-.03125-4.011719-.078126-6.257813-.078126-2.164062 0-3.714844.042969-4.738281.125l-1.738281.144532-.140625 2.636718c-.066407 1.234376-.148438 2.8125-.25 4.378907-.101563 1.476562-.1875 2.6875-.285157 3.679687l-.230468 2.324219 16.796875-.949219 1.042969-12.230468zm0 0" fill="#ffc973"/><path d="m193.613281 69.628906c2.632813 1.601563 5.734375 2.445313 8.972657 2.445313 4.132812 0 8.082031-1.371094 11.113281-3.855469 5.527343-4.535156 7.765625-12.699219 5.308593-19.414062-2.382812-6.523438-10.046874-12.03125-16.742187-12.03125-.285156 0-.574219.011718-.855469.03125-6.988281.496093-14.210937 7.054687-15.765625 14.328124-1.488281 6.984376 1.859375 14.765626 7.96875 18.496094zm0 0" fill="#ffc973"/><path d="m412.070312 9.871094c-.742187-.78125-1.761718-1.230469-2.835937-1.253906l-404.617187-8.61328175c-1.078126-.05468745-2.140626.39453175-2.914063 1.16015575-.777344.761719-1.210937 1.808594-1.203125 2.894532l2.902344 487.125c.007812 1.070312.4375 2.09375 1.199218 2.84375.757813.746094 1.773438 1.164062 2.832032 1.164062h.03125l20.691406-.164062c-.253906 4.847656 1.808594 9.785156 5.667969 12.859375 2.859375 2.28125 6.539062 3.585937 11.25 3.992187.851562.074219 1.777343.121094 2.753906.121094 4.125 0 9.160156-.832031 13.480469-3.960938 4.46875-3.230468 6.976562-8.355468 6.785156-13.324218l273.707031-2.148438c-.183593 2.984375.496094 6.058594 2.019531 8.800782 1.859376 3.347656 4.9375 6.144531 8.660157 7.867187 2.75 1.269531 5.785156 1.898437 8.828125 1.898437 4.070312 0 8.148437-1.121093 11.554687-3.316406 5.277344-3.398437 8.871094-9.332031 9.582031-15.570312l13.5625-.105469c2.167969-.015625 3.9375-1.75 3.996094-3.917969l13.175782-475.460937c.03125-1.074219-.371094-2.113281-1.109376-2.890625zm-9.242187 85.441406-130.765625.519531c.042969-.191406.085938-.382812.101562-.585937l6.0625-81.351563 126.78125 2.699219zm-393.753906-5.234375 122.695312 1.808594.078125 4.503906-122.730468.488281zm130.835937 6.28125-1.523437-85.441406 131.769531 2.804687-6.035156 80.925782c-.03125.421874.023437.824218.117187 1.214843zm-18.246094-85.710937c.460938 4.023437.9375 8.183593.402344 12.144531-.566406 4.195312-2.285156 7.675781-4.84375 9.789062-2.996094 2.480469-7.269531 3.273438-11.390625 3.875-20.851562 3.039063-42.054687 3.457031-63.011719 1.234375-7.699218-.816406-16.1875-2.433594-20.78125-8.242187-4.3125-5.460938-4.277343-13.046875-3.601562-21.085938l4.148438.089844c-.585938 5.78125-.46875 11.914063 3.398437 16.414063 3.941406 4.585937 10.226563 5.617187 15.804687 6.222656 13.957032 1.511718 28.117188 2.277344 42.199219 2.277344 2.707031 0 5.410157-.027344 8.109375-.085938 4.777344-.101562 9.410156-.359375 13.589844-2.414062 4.054688-1.992188 7.238281-5.8125 8.738281-10.480469 1.070313-3.332031 1.171875-6.804688.378907-9.972657l6.859374.148438c0 .027344-.003906.054688 0 .085938zm-11.089843-.324219c.949219 2.703125.976562 5.824219.011719 8.828125-1.167969 3.632812-3.601563 6.585937-6.679688 8.097656-3.445312 1.691406-7.421875 1.90625-11.894531 2-16.570313.347656-33.320313-.382812-49.789063-2.167969-4.8125-.523437-10.199218-1.371093-13.183594-4.84375-2.960937-3.441406-2.96875-8.53125-2.414062-13.699219zm-96.171875-2.046875c-.695313 8.503906-.664063 17.164062 4.472656 23.671875 5.519531 6.980469 14.988281 8.847656 23.519531 9.753906 8.976563.949219 17.992188 1.425781 27.015625 1.425781 12.375 0 24.75-.898437 37.003906-2.683594 4.6875-.683593 9.582032-1.613281 13.378907-4.753906 3.339843-2.769531 5.566406-7.15625 6.269531-12.359375.582031-4.300781.132812-8.558593-.339844-12.683593l4.601563.097656 1.371093 77.109375-122.644531-1.808594-.464843-77.894531zm-3.25 430.277344h16.921875c-.222657 4.730468 1.996093 9.5625 5.90625 12.300781 3.703125 2.597656 8.230469 3.144531 12.1875 3.453125 1.695312.132812 3.417969.226562 5.140625.226562 4.191406 0 8.378906-.570312 12.179687-2.578125 5.820313-3.082031 8.339844-8.691406 7.960938-13.402343l14.691406.003906 2.699219 47.929687-77.398438.609375zm56.257812 0c.53125 3.824218-2.320312 7.992187-5.808594 9.839843-4.449218 2.351563-9.898437 2.300781-15.121093 1.894531-3.421875-.265624-7.316407-.71875-10.183594-2.730468-2.800781-1.964844-4.402344-5.578125-4.175781-9.003906zm-10.828125 62.957031c-2.601562 1.882812-6.441406 2.710937-10.816406 2.335937-3.035156-.261718-5.359375-1.023437-6.917969-2.265625-1.898437-1.511719-2.863281-4.179687-2.574218-6.617187l23.738281-.1875c.1875 2.359375-1.144531 5.078125-3.429688 6.734375zm311.914063-.472657c-3.691406 2.375-8.648438 2.722657-12.628906.878907-2.1875-1.011719-3.960938-2.597657-5-4.464844-.859376-1.546875-1.191407-3.332031-.964844-4.949219l24.371094-.191406c-.664063 3.519531-2.769532 6.789062-5.777344 8.726562zm-271.582032-14.613281-.832031-14.746093c98.320313-5.890626 197.988281-6.589844 296.371094-2.066407l-.402344 14.496094zm295.652344-20.84375c-98.496094-4.523437-198.277344-3.820312-296.710937 2.074219l-1.878907-33.359375c-.121093-2.132813-1.886718-3.804687-4.027343-3.804687l-78.84375-.003907-1.941407-325.546875 393.441407-1.566406zm0 0"/><path d="m200.046875 161.035156c-27.996094 2.042969-54.902344 14.59375-75.765625 35.335938-27.660156 27.507812-41.121094 68.539062-35.125 107.082031 5.996094 38.546875 31.285156 73.550781 65.992188 91.355469 17.453124 8.953125 37.054687 13.429687 56.652343 13.429687 19.367188 0 38.742188-4.375 56.039063-13.132812 21.023437-10.644531 39.078125-27.65625 50.847656-47.914063 9.859375-16.96875 15.441406-36.699218 16.144531-57.050781s-3.507812-40.417969-12.171875-58.03125c-22.03125-44.761719-73.613281-74.640625-122.613281-71.074219zm111.667969 182.105469c-10.996094 18.925781-27.871094 34.824219-47.515625 44.769531-32.539063 16.472656-72.914063 16.367188-105.371094-.28125-32.453125-16.644531-56.097656-49.375-61.703125-85.414062-5.605469-36.042969 6.976562-74.40625 32.839844-100.125 19.5-19.386719 44.59375-31.109375 70.667968-33.011719 22.121094-1.617187 45.917969 4.265625 67 16.5625 20.960938 12.226563 37.929688 29.992187 47.789063 50.03125 16.359375 33.246094 14.90625 75.429687-3.707031 107.46875zm0 0"/><path d="m332.339844 227.601562c-11.46875-23.304687-31.15625-43.9375-55.433594-58.101562-24.453125-14.261719-52.109375-21.070312-77.886719-19.195312-30.398437 2.21875-59.625 15.855468-82.300781 38.402343-30.066406 29.898438-44.695312 74.496094-38.179688 116.394531 6.519532 41.894532 34.003907 79.941407 71.734376 99.292969 18.972656 9.734375 40.273437 14.601563 61.578124 14.601563 21.054688 0 42.109376-4.757813 60.914063-14.273438 22.847656-11.566406 42.472656-30.058594 55.261719-52.070312 10.707031-18.4375 16.773437-39.875 17.535156-61.996094s-3.808594-43.925781-13.222656-63.054688zm9.191406 62.917969c-.738281 21.460938-6.617188 42.246094-16.992188 60.105469-12.402343 21.347656-31.4375 39.28125-53.59375 50.5-36.699218 18.578125-82.234374 18.457031-118.835937-.3125-36.601563-18.773438-63.265625-55.6875-69.585937-96.332031-6.324219-40.644531 7.867187-83.910157 37.039062-112.914063 21.988281-21.867187 50.3125-35.089844 79.75-37.238281 24.976562-1.828125 51.808594 4.800781 75.558594 18.65625 23.605468 13.765625 42.730468 33.796875 53.851562 56.398437 9.121094 18.535157 13.550782 39.675782 12.808594 61.136719zm0 0"/><path d="m202.960938 192.742188c-20.816407 1.519531-40.820313 10.84375-56.328126 26.265624-20.558593 20.441407-30.558593 50.933594-26.101562 79.578126 4.453125 28.644531 23.246094 54.660156 49.042969 67.890624 12.972656 6.652344 27.535156 9.980469 42.101562 9.980469 14.394531 0 28.789063-3.25 41.648438-9.761719 15.621093-7.90625 29.042969-20.554687 37.789062-35.609374 15.042969-25.894532 16.175781-58.675782 2.953125-85.542969-16.367187-33.253907-54.6875-55.46875-91.105468-52.800781zm78.554687 138.480468c-.835937 1.253906-1.703125 2.488282-2.609375 3.699219-12.488281-11.917969-19.464844-29.761719-18.246094-46.972656 1.191406-16.84375 10.234375-33.1875 23.777344-43.289063.492188.851563.96875 1.707032 1.421875 2.570313-11.199219 14.789062-17.324219 27.863281-19.21875 41.0625-2.429687 16.929687 3.410156 33.710937 14.875 42.929687zm-31.835937 28.28125c-23.601563 11.949219-52.886719 11.871094-76.425782-.203125-23.542968-12.074219-40.691406-35.8125-44.757812-61.957031-4.066406-26.140625 5.0625-53.96875 23.824218-72.617188 14.140626-14.0625 32.332032-22.566406 51.226563-23.945312 1.742187-.125 3.496094-.1875 5.257813-.1875 14.503906 0 29.703124 4.257812 43.34375 12.210938 11.15625 6.507812 20.742187 15.179687 27.890624 25.070312-15.617187 11.453125-26.054687 30.195312-27.421874 49.503906-1.398438 19.746094 6.679687 40.234375 21.121093 53.777344-6.832031 7.484375-15.039062 13.78125-24.058593 18.347656zm34.460937-32.46875c-.144531.25-.304687.496094-.453125.746094-10.140625-8.402344-15.261719-23.550781-13.058594-38.917969 1.726563-12.019531 7.222656-24.027343 17.230469-37.582031 10.757813 23.753906 9.375 53.214844-3.71875 75.753906zm0 0"/><path d="m232.289062 43.878906c-3.605468-10.566406-12.363281-18.027344-23.148437-20.207031.089844-.558594.15625-1.128906.160156-1.71875.003907-2.175781-.792969-4.136719-2.191406-5.382813-2.402344-2.140624-6.425781-1.886718-8.789063.550782-1.59375 1.640625-2.308593 4.050781-2.035156 6.480468-10.910156 2.054688-19.867187 9.421876-23.695312 19.996094v.003906c-4.160156 11.492188-.847656 25.367188 8.0625 33.734376 5.878906 5.527343 13.84375 8.382812 21.8125 8.382812 5.988281 0 11.980468-1.617188 17.078125-4.929688 11.820312-7.679687 17.300781-23.546874 12.746093-36.910156zm-31.078124-23.949218c.84375-.871094 2.4375-1.042969 3.21875-.347657.527343.472657.839843 1.351563.839843 2.363281 0 .375-.050781.765626-.117187 1.160157-.75-.058594-1.511719-.097657-2.277344-.105469-.109375 0-.21875 0-.332031 0-.761719 0-1.519531.03125-2.269531.082031-.121094-1.214843.210937-2.398437.9375-3.152343zm13.9375 54.101562c-8.703126 5.652344-21.429688 4.523438-28.976563-2.570312-6.632813-6.230469-9.097656-16.558594-6-25.117188v.003906c3.398437-9.382812 12.289063-15.394531 22.628906-15.285156 8.050781.078125 18.019531 4.167969 21.855469 15.421875 3.34375 9.808594-.832031 21.910156-9.507812 27.546875zm0 0"/><path d="m201.261719 34.777344c-7.820313.558594-15.878907 7.859375-17.601563 15.9375-1.664062 7.808594 2.078125 16.492187 8.898438 20.644531 2.996094 1.828125 6.5 2.722656 10.011718 2.722656 4.46875 0 8.953126-1.457031 12.414063-4.292969 6.171875-5.058593 8.667969-14.179687 5.933594-21.679687-2.839844-7.789063-11.84375-13.890625-19.65625-13.332031zm11.164062 31.894531c-4.894531 4.015625-12.367187 4.535156-17.773437 1.246094-5.402344-3.292969-8.367188-10.175781-7.050782-16.363281 1.355469-6.359376 7.875-12.320313 13.949219-12.757813 6.003907-.421875 13.382813 4.671875 15.578125 10.691406 2.167969 5.945313.191406 13.171875-4.703125 17.183594zm0 0"/><path d="m238.367188 28.203125 11.148437.738281c.046875.003906.09375.003906.136719.003906 1.050781 0 1.9375-.816406 2.011718-1.882812.070313-1.109375-.769531-2.070312-1.878906-2.144531l-11.152344-.738281c-1.117187-.070313-2.070312.769531-2.144531 1.878906s.765625 2.070312 1.878907 2.144531zm0 0"/><path d="m243.453125 41.332031c-.070313 1.109375.769531 2.070313 1.878906 2.144531l11.152344.738282c.042969.003906.089844.003906.132813.003906 1.054687 0 1.941406-.816406 2.011718-1.882812.074219-1.109376-.769531-2.070313-1.878906-2.144532l-11.152344-.738281c-1.113281-.078125-2.070312.769531-2.144531 1.878906zm0 0"/><path d="m258.625 54.660156-11.148438-.738281c-1.109374-.097656-2.074218.765625-2.144531 1.878906-.074219 1.109375.765625 2.070313 1.875 2.144531l11.152344.738282c.046875.003906.09375.003906.136719.003906 1.050781 0 1.9375-.816406 2.007812-1.882812.074219-1.109376-.765625-2.070313-1.878906-2.144532zm0 0"/><path d="m251.660156 69.933594-11.152344-.738282c-1.117187-.070312-2.070312.765626-2.144531 1.878907-.074219 1.109375.765625 2.070312 1.878907 2.144531l11.148437.738281c.046875.003907.09375.003907.136719.003907 1.050781 0 1.9375-.816407 2.011718-1.882813.070313-1.109375-.769531-2.070313-1.878906-2.144531zm0 0"/><path d="m240.941406 84.667969-11.152344-.738281c-1.117187-.0625-2.070312.769531-2.144531 1.878906-.070312 1.109375.769531 2.070312 1.878907 2.144531l11.152343.742187c.042969 0 .089844.003907.132813.003907 1.054687 0 1.941406-.820313 2.011718-1.882813.074219-1.113281-.769531-2.074218-1.878906-2.148437zm0 0"/><path d="m154.328125 28.945312c.042969 0 .089844 0 .132813-.003906l11.152343-.738281c1.109375-.074219 1.953125-1.035156 1.878907-2.144531-.074219-1.109375-1.03125-1.949219-2.144532-1.878906l-11.152344.738281c-1.109374.074219-1.953124 1.035156-1.878906 2.144531.070313 1.066406.957032 1.882812 2.011719 1.882812zm0 0"/><path d="m147.359375 44.21875c.046875 0 .089844 0 .136719-.003906l11.152344-.738282c1.109374-.074218 1.949218-1.035156 1.878906-2.144531-.074219-1.109375-1.03125-1.960937-2.148438-1.878906l-11.148437.738281c-1.113281.074219-1.953125 1.035156-1.878907 2.144532.070313 1.066406.957032 1.882812 2.007813 1.882812zm0 0"/><path d="m158.648438 55.800781c-.074219-1.113281-1.054688-1.976562-2.144532-1.878906l-11.148437.738281c-1.113281.074219-1.953125 1.035156-1.878907 2.144532.070313 1.066406.957032 1.882812 2.007813 1.882812.046875 0 .089844 0 .136719-.003906l11.152344-.738282c1.109374-.074218 1.949218-1.035156 1.875-2.144531zm0 0"/><path d="m165.617188 71.074219c-.074219-1.113281-1.03125-1.949219-2.144532-1.878907l-11.152344.738282c-1.109374.074218-1.949218 1.035156-1.878906 2.144531.070313 1.066406.960938 1.882813 2.011719 1.882813.042969 0 .089844 0 .132813-.003907l11.152343-.738281c1.109375-.074219 1.953125-1.035156 1.878907-2.144531zm0 0"/><path d="m174.191406 83.929688-11.152344.738281c-1.109374.074219-1.953124 1.035156-1.878906 2.148437.070313 1.0625.957032 1.882813 2.011719 1.882813.042969 0 .089844-.003907.132813-.003907l11.152343-.742187c1.109375-.074219 1.949219-1.03125 1.878907-2.144531-.078126-1.109375-1.027344-1.945313-2.144532-1.878906zm0 0"/><path d="m304.304688 41.910156 70.65625 1.449219c.574218.011719 1.164062.027344 1.765624.027344 2.136719 0 4.414063-.15625 6.59375-1.027344 3.152344-1.261719 5.316407-4.300781 5.390626-7.566406.066406-2.90625-1.566407-5.398438-4.363282-6.664063-2.269531-1.027344-4.726562-1.042968-6.902344-1.054687-11.320312-.058594-22.847656-.632813-33.996093-1.183594-3.710938-.183594-7.421875-.371094-11.132813-.535156l-22.40625-.980469c-3.566406-.15625-7.996094-.351562-11.773437 1.800781-2.339844 1.332031-4.132813 3.785157-4.691407 6.40625-.449218 2.117188-.046874 4.167969 1.132813 5.773438 2.503906 3.40625 7.203125 3.503906 9.726563 3.554687zm-6.917969-8.492187c.320312-1.503907 1.398437-2.972657 2.746093-3.742188 1.894532-1.082031 4.121094-1.351562 6.71875-1.351562.914063 0 1.871094.03125 2.878907.078125l22.40625.980468c3.703125.164063 7.40625.347657 11.109375.535157 11.195312.554687 22.769531 1.128906 34.183594 1.1875 1.9375.011719 3.765624.019531 5.253906.695312 1.6875.765625 2.019531 2 1.996094 2.902344-.035157 1.648437-1.210938 3.257813-2.855469 3.914063-2.035157.8125-4.445313.761718-6.78125.714843l-70.65625-1.453125c-2.71875-.054687-5.398438-.324218-6.5625-1.910156-.625-.855469-.582031-1.855469-.4375-2.550781zm0 0"/><path d="m293.15625 64.128906c.039062 0 .078125 0 .117188-.003906h.003906l17.066406-.972656c1-.054688 1.808594-.839844 1.894531-1.839844l1.054688-12.261719c.050781-.59375-.167969-1.179687-.589844-1.597656-.421875-.421875-1.023437-.636719-1.605469-.582031-.378906.035156-2.300781 0-3.996094-.035156-12.851562-.238282-14.707031-.109376-14.835937 2.445312-.195313 4.761719-.566406 10.425781-.851563 11.820312-.191406.332032-.289062.71875-.269531 1.128907.0625 1.070312.949219 1.898437 2.011719 1.898437zm2.773438-7.921875c.132812-1.988281.234374-4 .296874-5.300781 2.425782-.195312 7.917969-.09375 10.800782-.039062.804687.019531 1.488281.03125 2.058594.039062l-.71875 8.320312-12.722657.726563c.101563-1.011719.183594-2.25.285157-3.746094zm0 0"/><path d="m311.097656 72.039062c-.378906.035157-2.300781 0-3.996094-.035156-12.851562-.242187-14.707031-.109375-14.835937 2.445313-.195313 4.761719-.566406 10.421875-.851563 11.820312-.191406.332031-.289062.71875-.269531 1.128907.0625 1.070312.949219 1.898437 2.011719 1.898437.039062 0 .078125 0 .117188-.003906h.003906l17.066406-.972657c1-.054687 1.808594-.839843 1.894531-1.839843l1.054688-12.261719c.050781-.59375-.164063-1.179688-.589844-1.597656-.421875-.421875-1.023437-.636719-1.605469-.582032zm-2.726562 12.355469-12.726563.722657c.101563-1.011719.183594-2.246094.285157-3.742188.132812-1.988281.234374-4.003906.296874-5.304688 2.425782-.195312 7.917969-.089843 10.800782-.035156.804687.015625 1.484375.027344 2.058594.035156zm0 0"/><path d="m339.546875 46.875c-.378906.03125-2.300781-.003906-3.996094-.035156-12.851562-.242188-14.707031-.109375-14.835937 2.441406-.199219 4.761719-.570313 10.425781-.851563 11.824219-.195312.328125-.292969.714843-.269531 1.125.0625 1.074219.949219 1.902343 2.007812 1.902343.039063 0 .078126-.003906.117188-.003906l17.074219-.972656c1-.058594 1.804687-.84375 1.890625-1.839844l1.054687-12.261718c.050781-.59375-.164062-1.179688-.585937-1.601563-.425782-.421875-1.011719-.636719-1.605469-.578125zm-2.726563 12.351562-12.726562.726563c.101562-1.011719.183594-2.25.285156-3.746094.132813-1.992187.234375-4 .296875-5.300781 2.425781-.195312 7.917969-.09375 10.800781-.039062.808594.019531 1.488282.03125 2.058594.039062zm0 0"/><path d="m339.546875 72.039062c-.378906.035157-2.300781 0-3.996094-.035156-12.851562-.242187-14.707031-.109375-14.835937 2.445313-.199219 4.761719-.570313 10.421875-.851563 11.820312-.195312.332031-.292969.71875-.269531 1.128907.0625 1.070312.949219 1.898437 2.007812 1.898437.039063 0 .078126 0 .117188-.003906l17.070312-.972657c1.003907-.054687 1.808594-.839843 1.894532-1.839843l1.054687-12.261719c.050781-.59375-.164062-1.179688-.585937-1.597656-.425782-.421875-1.011719-.636719-1.605469-.582032zm-2.726563 12.355469-12.726562.726563c.101562-1.015625.183594-2.25.285156-3.746094.132813-1.992188.234375-4.003906.296875-5.304688 2.425781-.195312 7.917969-.089843 10.800781-.035156.808594.015625 1.488282.027344 2.058594.035156zm0 0"/><path d="m382.667969 51.003906-30.804688-1.226562c-1.140625-.019532-2.050781.824218-2.09375 1.933594-.046875 1.113281.820313 2.050781 1.933594 2.097656l30.804687 1.222656c.027344.003906.054688.003906.082032.003906 1.078125 0 1.972656-.851562 2.011718-1.9375.046876-1.109375-.820312-2.046875-1.933593-2.09375zm0 0"/><path d="m382.671875 59.847656-30.808594-1.226562c-1.097656-.035156-2.050781.824218-2.09375 1.933594-.046875 1.113281.820313 2.050781 1.933594 2.09375l30.804687 1.226562c.027344 0 .054688.003906.082032.003906 1.078125 0 1.96875-.851562 2.011718-1.9375.046876-1.113281-.820312-2.050781-1.929687-2.09375zm0 0"/><path d="m382.667969 76.726562-30.804688-1.222656c-1.097656-.039062-2.050781.820313-2.09375 1.933594-.046875 1.109375.820313 2.046875 1.933594 2.09375l30.804687 1.222656c.027344 0 .054688.003906.082032.003906 1.078125 0 1.972656-.851562 2.011718-1.9375.046876-1.113281-.820312-2.046874-1.933593-2.09375zm0 0"/><path d="m382.667969 85.570312-30.804688-1.226562c-1.097656-.054688-2.050781.820312-2.09375 1.933594-.046875 1.113281.820313 2.050781 1.933594 2.09375l30.804687 1.226562h.082032c1.078125 0 1.972656-.847656 2.011718-1.933594.046876-1.113281-.820312-2.050781-1.933593-2.09375zm0 0"/></svg>